<?xml version="1.0" encoding="UTF-8"?>
<svg enable-background="new 0 0 1369 605" version="1.1" viewBox="0 0 1369 605" xmlns="http://www.w3.org/2000/svg">
 <path d="m1336.4 24.106l-0.0313-0.0098c-1.1982-0.3857-2.2949-0.6934-3.355-0.9415-1.437-0.4685-2.8652-1.0521-4.2466-1.6171-2.3557-0.9631-4.7922-1.9583-7.3521-2.4093-1.7224-1.3373-3.8804-1.6835-5.9683-2.0175l-0.1719-0.0273c-0.124-0.0034-0.2471-0.0049-0.3701-0.0049-4.29 0-8.1885 2.0103-11.106 3.762-19.467 11.654-42.602 17.736-63.175 27.333-1.8936 0.8833-3.8516 1.7964-5.7727 2.6821-14.602 4.1917-28.838 12.872-42.604 19.25-15.025 6.9622-30.05 13.924-45.076 20.886-40.706 18.862-81.033 40.261-122.93 56.244-0.3447 0.106-1.0732 0.335-1.4658 0.4629-2.123 0.9702-4.918 2.2383-7.708 3.439-2.2617 0.9399-4.5186 1.9741-6.7021 2.9746-0.7559 0.3462-1.5117 0.6929-2.2666 1.0347-3.1494 1.2173-6.2803 2.6123-9.3086 3.9609-3.5391 1.5762-7.1982 3.2065-10.915 4.564l-0.3184 0.4582c-5.2429 1.3361-10.258 3.6379-15.107 5.8641-3.002 1.3779-6.1055 2.8027-9.2305 3.9829l-0.0488 0.0186 0.0256 0.0495c-5.8138 2.5938-11.826 4.9703-17.641 7.2684-1.1826 0.4673-2.3652 0.9346-3.5527 1.4067-0.5859 0.3335-1.2197 0.4956-1.9355 0.4956-0.9072 0-1.8447-0.2627-2.751-0.5161-0.9189-0.2568-1.8691-0.5229-2.8008-0.5229-0.7148 0-1.3496 0.1548-1.9395 0.4717-2.1436 1.0083-4.3564 1.9614-6.4971 2.8828-2.2482 0.968-4.5732 1.9691-6.8176 3.0345-1.3013 0.1301-2.5898 0.7448-3.8357 1.34-1.3633 0.6514-2.7734 1.3247-4.1602 1.3247-0.7666 0-1.4678-0.1992-2.1455-0.6094l-0.0322-0.0195-0.2336 0.2445c-0.2676-0.1001-0.5327-0.2018-0.7976-0.3036-1.2363-0.4736-2.5146-0.9639-3.8447-1.228-6.5439-0.8525-12.393-1.2671-17.881-1.2671-9.8691 0-18.463 1.3379-26.272 4.0898-2.7158 1.0498-5.2109 2.249-7.416 3.563-1.7891 0.98-2.3281 2.9111-2.8486 4.7783-0.1201 0.4302-0.2344 0.8374-0.3623 1.2344-7.6963-0.2651-15.678-0.3999-23.724-0.3999-1.3242 0-2.6732 0.0038-4.0085 0.0111-0.0151-0.2392-0.0334-0.5768-0.053-0.9208-0.0188-0.3487-0.0382-0.6917-0.0527-0.9314l0.0703-0.0281-0.074-0.0337-0.0022-0.0366-0.043 0.017c-2.0365-0.9232-4.2267-1.0487-6.1016-1.0487-0.6533 0-1.3174 0.0171-1.96 0.0332-0.6357 0.0161-1.293 0.0327-1.9326 0.0327-0.1582 0-0.3174-1e-3 -0.4785-0.0034-4.8457 0.2739-10.264 0.9219-13.241 5.1694-5.1836-0.1025-10.444-0.3491-15.531-0.5874-40.011-1.8742-80.085-5.1045-119.98-8.5522-2.9487-0.2456-5.9395-0.5483-8.832-0.8408-26.777-2.7063-53.967-3.6586-80.894-5.3899-27.61-1.7752-55.233-3.367-82.864-4.7752-27.631-1.4081-55.271-2.6328-82.919-3.6737-26.986-1.016-54.215-2.8084-81.214-2.3497-4.7968 0.0815-8.6259-0.5475-12.329 2.4812-1.7511 1.4321-8.5565 6.9359-7.8358 9.6743 0.7119 2.7054 11.788 2.0526 14.548 2.0526 2.022 0 4.0806-0.0381 6.0713-0.0752 1.9893-0.0371 4.0459-0.0752 6.0668-0.0752 54.519 7e-4 109.2 2.287 163.7 4.4008 54.555 1.4357 109.1 5.0527 163.57 7.8446 22.53 1.1548 45.041 2.6833 67.521 4.5844 21.882 1.8507 44.093 5.7834 66.048 5.7825 0.4788 0 0.9606-2e-3 1.4385-0.0068 2.1244 0.3892 4.3103 0.4398 5.9805 0.4399 0.7256 0.0093 1.4717 0.064 2.1934 0.1172 0.8027 0.0586 1.6328 0.1196 2.4482 0.1196 0.9253 0 1.7268-0.0836 2.4563-0.2493 0.1138 2.1287 0.4475 4.2302 0.9951 6.2471l-0.0051 0.0476 0.0547-2e-3c1.9678-0.0767 3.9307-0.4814 5.8291-0.8726 0.5723-0.1177 1.1631-0.2397 1.7461-0.3506 0.4541 1.5313 1.0586 2.5874 1.9023 3.3213l0.0449 0.0391 0.0283-0.0527c0.2109-0.4038 0.5498-1.0669 0.8486-1.6514 0.1786-0.3486 0.3435-0.6711 0.4673-0.9122 5.0942 0.1475 10.249 0.6754 15.234 1.1862 4.2006 0.4306 8.5439 0.8749 12.834 1.0908l0.0309 2e-3c0.8652 0.0527 1.748 0.0928 2.6016 0.1313 1.0747 0.0482 2.1858 0.0991 3.2793 0.1761-0.1172 1.1662-0.2271 2.41-0.335 3.8024l-0.0029 0.0376 0.2598 0.0767c0.6582 0.1934 1.6475 0.4844 2.1963 0.6548 0.2743 2.7965 0.8657 5.4331 1.7585 7.8369 0.9082 4.6559 2.0776 9.348 3.2083 13.885 0.736 2.9556 1.4982 6.0117 2.1797 9.0278-0.0176 1.3545-0.0273 2.7399-0.0371 4.0801l-0.0029 0.3643c-4.2529 0.6528-8.6094 0.7412-12.314 0.7412-1.1914 0-2.4033-0.0098-3.5762-0.0195-1.1729-0.0093-2.3848-0.019-3.5771-0.019-2.876 0-5.0713 0.0586-7.1172 0.1904-2.0908 0.0625-4.2129 0.2061-6.2656 0.3457-2.7393 0.1855-5.5723 0.3779-8.3633 0.3779-0.8428 0-1.6631-0.0181-2.4385-0.0527-0.2861-0.3052-0.5586-0.6372-0.8223-0.959-0.625-0.7617-1.2715-1.5493-2.1465-2.0361l-0.0791-0.0103c-0.9883-0.0771-2.0107-0.1567-3.0332-0.1567-2.3711 0-5.2754 0.376-6.7305 3.3032-2.1758 0.1646-4.3906 0.2012-6.5332 0.2363-2.5049 0.0415-5.0957 0.084-7.6309 0.3315-3.2705 0.2661-6.6182 0.4702-9.8564 0.6675-11.163 0.6801-22.705 1.3832-33.57 4.7534-1.1345 0.2595-2.2416 0.6001-3.2924 1.0107l-0.2203-0.2797-0.0313 0.0107c-4.3574 1.4863-7.0918 3.6113-8.3623 6.5107-0.0117 0.1509-0.0479 0.3516-0.0908 0.5845-0.126 0.6914-0.2822 1.5518 0.0508 1.9521 0.1191 0.1421 0.291 0.2139 0.5127 0.2139 0.0693 0 0.1436-0.0068 0.2129-0.02l1.4414 0.0674c-0.0215 0.3931-0.042 0.7866-0.0625 1.1812-0.0886 1.7162-0.1815 3.4911-0.3827 5.2271-4.0852 5.5569-8.0623 10.174-12.159 14.116-1.3572 1.5059-1.6052 3.603-1.7405 5.6251-0.73 0.4712-1.2908 0.8421-1.8318 1.2382 0.0137 0.3145 0.0264 0.6279 0.0391 0.9414 0.0303 0.7607 0.0615 1.5469 0.1152 2.332-0.9424-0.5518-1.8809-1.1152-2.7783-1.6543l-2.6079 0.4744c-0.0227-0.2157-0.0564-0.52-0.0903-0.8201-0.0283-0.2598-0.0566-0.5107-0.0742-0.6807l-0.0039-0.0381-0.0381-0.0039c-0.4297-0.0449-1.0771-0.1074-1.7246-0.1699s-1.2949-0.125-1.7246-0.1699l-0.0908-0.0098 0.4307 0.75c-1.7764 0.2376-3.2771 0.4286-4.7972 0.5885-1.0251-0.4422-1.999-0.947-2.905-1.5084-4.0205-2.7934-8.7872-4.0834-13.397-5.3311-1.4152-0.3829-2.8774-0.7787-4.291-1.2114-0.2029-0.4803-0.5706-1.3386-0.8262-1.9327l-0.1475-0.3438-0.0293-0.0015c-5.3945-0.2197-11.214-0.3262-17.792-0.3262-6.457 0-12.972 0.1021-19.091 0.2065l-0.0801 0.0015 0.0405 0.0688c0.1548 0.2651 0.2866 1.2773 0.2866 1.2773l-2.5981 0.062 0.0059 0.0522c1.2949 11.478 6.1714 22.2 11.484 33.085l0.0156 0.0322 0.0294-0.0057c1.8514 0.0595 3.7372 0.1093 5.5609 0.1581 8.0181 0.2139 16.309 0.4346 24.356 1.501 0.3486 0.0811 0.8945 0.2051 1.4238 0.3242 0.4404 0.0994 0.869 0.1968 1.1638 0.2651 11.272 2.6138-1.821 7.9045-6.6406 8.7592-25.51 4.5241-50.665 3.3351-76.139 4.4954-29.449 1.3415-58.884 2.9907-88.299 4.9472 0.0634 0.8432 0.1266 1.6864 0.1901 2.5296-33.137 1.9184-66.28 3.7499-99.41 5.7847-15.406 0.9453-31.338 1.9229-47.028 2.6494l0.0337-0.4131c0.2051-2.4893 0.417-5.0625 0.332-7.5996l-0.0918-0.0117-0.1663 0.5352c-1.7698-0.6382-3.7303-0.9503-5.9949-0.9503-2.186 0-4.4312 0.2852-6.6021 0.5596-2.0135 0.2558-4.0956 0.5193-6.1107 0.5517-1.0531-0.0692-2.1351-0.1035-3.3077-0.1035-2.8315 0-5.707 0.2051-8.4873 0.4033-2.2212 0.1582-4.5176 0.3223-6.7793 0.3799-2.3569 0.1797-4.7593 0.248-7.083 0.3135-3.6353 0.1035-7.3943 0.2101-11.062 0.747l-0.2055-0.0126-0.0029 0.0469c-0.1519 2.4189-0.4839 4.8496-0.8203 7.1211l-0.1183 2.7946c-0.1114 0.0649-0.311 0.1869-0.4277 0.2701-8.9001 0.0632-17.916 0.8019-26.635 1.5164-8.0908 0.6631-16.456 1.3486-24.715 1.4932-2.1113 0.126-4.2588 0.2861-6.3359 0.4404-4.6504 0.3457-9.459 0.7041-14.192 0.7041-2.0146 0-3.8711-0.0629-5.6743-0.1918-0.0289-0.4742-0.071-1.317-0.1259-2.5137l0.0321-0.0123-0.0345-0.0385-0.0021-0.0474-0.0306 0.0114c-0.7119-0.7988-1.4514-1.6091-2.237-2.4215-8.3452 0.5947-19.334 1.2783-30.334 1.2783-1.6961 0-3.3839-0.0164-5.0192-0.0481 0.1208-0.9824 0.2795-2.1337 0.5402-3.2927 0.085-0.1045 0.2065-0.2607 0.3286-0.417 0.1245-0.1602 0.2495-0.3203 0.3311-0.4209 1.1627-1.1623 1.671-2.5402 1.4767-3.9873l0.9034-0.2282c0.8092 0.1326 1.6473 0.197 2.5637 0.197 1.7344 0 3.4878-0.2373 5.1831-0.4658 1.5547-0.21 3.1621-0.4277 4.752-0.4619 0.7011-0.0283 1.4247-0.041 2.1244-0.0527 8.2045-0.1374 11.703-3.8422 18.13-8.1802 7.2276-4.8787 14.455-9.7581 21.682-14.637 4.9786-3.361 9.9985-6.7563 14.16-11.089 4.0532-4.2199 10.866-12.947 6.499-18.437 0 0-0.0459-0.0576-0.0463-0.0567-1.4777-1.8169-3.0026-3.6928-4.4449-5.5781 0 0-0.04-0.0469-0.0401-0.0469 0 0-0.0209-0.0278-0.0234-0.0267-1.286-1.502-2.6318-2.9858-3.9336-4.421l-0.4141-0.4561-0.0293 0.0098c-3.4863 1.1938-6.1982 3.6415-8.8207 6.0092-12.214 11.027-25.051 21.24-37.764 31.639-1.9243 1.5742-4.0059 3.04-6.0186 4.458-3.9589 2.7879-8.0522 5.6717-11.164 9.5247-1.7259 1.4296-3.6262 2.6956-5.6558 3.7663-0.9751 0.7344-2.0845 1.1396-3.1245 1.1396-1.2813 0-2.3701-0.5947-3.1484-1.7188 0 0-0.0181-0.0264-0.0397-0.0216-0.5658-0.133-1.1548-0.202-1.7518-0.202-2.0591 0-4.0342 0.7939-5.9448 1.5615-0.7368 0.2959-1.499 0.6025-2.2476 0.8545l-0.0493 0.0166 0.022 0.0469c0.2539 0.5527 0.5347 1.1074 0.8062 1.6436 0.8906 1.7607 1.8115 3.5801 1.9478 5.624-1.0225 0.7158-2.019 1.4814-2.9758 2.2891 0 0-0.43 0.2578-0.4301 0.2579-1.9531 1.1874-3.9014 3.1694-5.9635 3.832-2.5521 0.82-6.5547 0.8001-9.3187 1.2078-5.6354 0.8312-8.4074-1.5775-11.696-5.7322-3.2563-4.1846-6.6958-8.335-10.022-12.35-3.0903-3.7285-6.2852-7.585-9.3335-11.466-0.1914-0.1787-0.3652-0.4053-0.5332-0.624-0.348-0.4537-0.709-0.918-1.277-1.0584-2.643-3.9297-5.7257-7.6274-8.7074-11.203-1.1138-1.3359-2.2656-2.7168-3.3779-4.0898-8.7959-10.743-17.698-21.704-26.307-32.304-10.447-12.862-21.25-26.163-31.952-39.185-0.6874-0.912-1.4706-1.7787-2.2284-2.6176-3.6853-4.0795-3.9584-5.8876-9.8297-6.4488-2.4401-0.2332-30.78 2.5513-30.384 4.4395 0.6962 3.3146 2.1001 6.0547 3.8929 8.9233 0.7729 1.168 1.5718 2.376 2.231 3.606 5.8291 9.8799 11.834 19.878 17.641 29.548 6.019 10.023 12.243 20.386 18.282 30.635 2.5708 3.6377 5.0435 7.6396 8.0181 12.978 4.5659 7.5986 9.1226 15.373 13.529 22.893 6.2285 10.627 12.669 21.616 19.243 32.29 0.4092 0.5811 0.7871 1.2119 1.1523 1.8213 0.9107 1.5201 1.8538 3.0896 3.3916 4.1182h0.0306l0.0661 0.043-0.0027-0.0439c0.562-0.0027 1.1383-0.018 1.6961-0.0332 0.6226-0.0166 1.2666-0.0342 1.8999-0.0342 1.2078 0 2.7512 0.075 4.2543 0.4929-0.1211-0.0052-0.2382-0.0173-0.3613-0.0173-1.3599 0-2.7217 0.3135-4.0391 0.6172-1.0566 0.2432-2.1494 0.4941-3.2383 0.583-6.4526 1.1406-13.104 1.2119-19.535 1.2803-2.2333 0.0243-4.5421 0.0488-6.8099 0.1183-0.0836-0.3324-0.2432-0.9527-0.3312-1.2755l-0.0088-0.0303-0.0313-0.0039c-0.2764-0.0322-0.7095-0.0791-1.1304-0.125-0.355-0.0391-0.7017-0.0771-0.9395-0.1045l-0.0342-0.0039-0.0664 0.1484c-0.2627 0.5889-0.6997 1.5664-0.9453 2.1055-2.0732 0.0234-3.771 0.0703-5.3682 0.1592-1.2158 0.9512-2.6333 1.5957-4.0044 2.2207-0.2295 0.1035-0.4585 0.208-0.7007 0.3242-0.8359 0.8623-0.8398 2.0859-0.8442 3.2695-2e-3 0.6172-0.0039 1.2549-0.1279 1.8232l-0.0088 0.04 0.0386 0.0137c0.1255 0.0459 0.252 0.0918 0.3784 0.1367 1.7007 0.6123 3.4595 1.2461 4.3618 2.9863 0.2144 0.0273 0.4292 0.0537 0.645 0.0801 2.1968 0.2715 4.4692 0.5518 6.4102 1.8262 1.3433-0.6016 2.8491-0.8809 4.7393-0.8809 1.1499 0 2.334 0.1016 3.479 0.2002s2.3296 0.2002 3.479 0.2002c0.3389 0 0.6675-0.0088 0.9746-0.0264 1.5657-0.039 3.1342-0.0595 4.6624-0.0595 2.329 0.3301 5.0965 0.6689 7.965 0.6689 0.4756 0 0.948-0.0099 1.4127-0.0299l0.3168 0.0944c0.3518 0.1044 0.7986 0.2371 1.0591 0.3118l1.3987 1.2831c-1.0734 1.3365-1.9553 2.4466-2.7679 3.4871-0.2734-0.0127-0.5474-0.0264-0.8223-0.04-0.5728-0.0293-1.165-0.0586-1.7441-0.0791l-0.04-1e-3 -0.0073 0.0391c-0.0669 0.3447-0.1709 0.8867-0.2705 1.4072-0.0796 0.416-0.1563 0.8174-0.2012 1.1299 0.9125 1.2326 1.8167 2.5397 2.7617 3.9971 0 0 0.019 0.0234 0.0193 0.0238 0 0 0.0412 0.0641 0.0455 0.0556 1.2468 1.5597 2.6664 3.1675 4.5925 5.2025-0.4863 4.6923-0.5554 9.4979-0.6217 14.145-0.0978 6.8068-0.5022 13.604-0.9896 20.393-0.3149 4.3853-2.9749 13.643 0.0221 17.289 1.5839 1.9219 5.595 2.8226 7.8955 3.7843 6.0533 2.5306 14.271 7.368 20.986 4.8497 3.7474-1.4398 12.844-4.2661 14.069-8.5004 2.7222-6.917 5.2866-13.188 7.8398-19.169 0.165-0.3828 0.4722-1.1162 0.6196-1.4805 1.8721-4.3447 3.7134-8.7891 5.4946-13.087 4.0196-9.6991 8.1763-19.729 12.954-29.28 0.641-0.123 1.2901-0.2625 1.9188-0.3966 0.897-0.1924 1.8247-0.3906 2.7388-0.5479 1.3721 0.0215 2.77 0.0371 4.1216 0.0508 6.7642 0.0732 13.759 0.1475 20.566 1.0898 1.999 0.1201 4.0356 0.1357 6.0054 0.1494 3.0942 0.0234 6.2944 0.0469 9.4214 0.4805 3.1841 0.3916 6.4443 0.4424 9.5972 0.4922 3.3662 0.0527 6.8467 0.1074 10.245 0.5771 4.4648 0.3896 9.0244 0.4668 13.435 0.543 1.3882 0.0238 2.8163 0.0494 4.2327 0.0834-1.3363 0.1587-2.679 0.3541-3.9841 0.5523-0.5054 0.0771-1.0107 0.1533-1.5161 0.2285l0.0073 0.0928 1.0806-0.0088c1.0532-0.0088 2.1421-0.0176 3.2124-0.0176 2.083 0 4.8262 0.0303 7.5732 0.2666 5.1108 0.3857 10.327 0.5645 15.372 0.7373 8.2855 0.2828 16.853 0.5768 25.183 1.7966-0.0334 3.85-0.5339 7.7333-1.019 11.489-0.4746 3.6719-0.9648 7.4697-1.0195 11.24l-5e-4 0.0391 0.0376 0.0078c1.639 0.3541 3.3589 0.7509 5.2788 1.2197 0 0 0.0928 0.0225 0.0899 0.0159 8.8466 1.6403 18.365 3.1531 28.058 3.1531 2.647 0 5.2432-0.1171 7.7391-0.3478 0 0 0.1139-0.0106 0.0995-0.0221 1.3353-0.2849 2.6813-0.6013 3.9841-0.9084 1.4041-0.3311 2.8553-0.6727 4.2881-0.9541 0 0 0.0866-0.0381 0.1108-0.0483 0.3494-0.155 0.7185-0.3022 1.1104-0.4566 1.9414-0.7686 4.1421-1.6396 4.4873-3.9102 1.0063-5.7813 0.9937-11.64 0.8301-17.108l-1e-3 -0.04-1.9585-0.2842c2.3674-0.0585 4.5188-0.235 6.5613-0.538 47.454 3.9425 95.163 5.2425 142.69 8.1375 4.6545 0.2834 9.3088 0.5669 13.963 0.8503 7.6726 0.548 15.36 0.9354 23.038 1.403 7.2854 0.4437 14.874-0.1972 22.027 0.9587 5.4824 0.0059 11.032 0.3701 16.399 0.7227 4.7729 0.3135 9.708 0.6367 14.575 0.708 3.9561 0.5225 8.0039 0.6758 11.918 0.8242 4.0151 0.1514 8.167 0.3086 12.228 0.8652 0.2632-0.0029 0.5254-0.0039 0.7886-0.0039 4.0952 0 8.2388 0.3135 12.246 0.6162 4.0098 0.3027 8.1558 0.6162 12.257 0.6162 0.5757 0 1.1475-0.0059 1.6921-0.0185 14.083 1.9679 28.529 1.3026 42.689 2.9451 15.585 1.8077 31.036 4.77 46.183 8.8622 1.7158 0.4636 4.6853 3.1386 7.0603 3.8964 17.934 5.7218 36.304 10.162 54.147 16.1 1.8984 0.6318 3.8613 1.2852 5.7773 1.9746 0.0605 0.2852 0.1465 0.6943 0.2354 1.1113 0.1035 0.4893 0.209 0.9893 0.2783 1.3135l0.0332 0.1563 0.2783-0.738c0.9521 1.9766 1.7786 3.4726 2.6676 4.8252-0.1986 5.798-0.1647 11.692-0.1315 17.393 0.0225 3.7412 0.0449 7.6104 1e-3 11.418-0.1709 0.2285-0.4287 0.5781-0.6719 0.9072-0.1804 0.2436-0.3506 0.4744-0.4746 0.6423-1.1545 0.0302-2.3052 0.0709-3.418 0.1097l-0.0391 1e-3 -0.0059 0.04c-0.1553 1.2061-0.3164 2.4541-0.4463 3.6885-3.7666 1.0439-7.6621 1.8018-11.431 2.5361-2.2422 0.4365-4.5615 0.8887-6.8242 1.3945-1.4746 0.2588-2.9658 0.6006-4.4082 0.9307-3.0137 0.6914-6.1299 1.4053-9.2578 1.4053-0.5879 0-1.1709-0.0254-1.7324-0.0762l-0.0479-0.0039-0.123 2.248-2e-3 0.04 0.0381 0.0088c0.959 0.2168 1.9795 0.4287 2.998 0.4287 0.5742 0 1.0996-0.0654 1.6006-0.1992 4.4434-0.7871 8.9609-1.6016 13.329-2.3896 4.5723-0.8242 9.2988-1.6768 13.952-2.5l0.2871-0.0557c1.7803-0.3457 3.6211-0.7031 5.3203-1.457 1.9697 1.3086 1.8809 3.585 1.7949 5.7871-0.0303 0.7832-0.0615 1.5918 0.0059 2.3291-1.4482-0.3535-2.873-0.9805-4.251-1.5859-2.1035-0.9248-4.2783-1.8809-6.5723-1.8809-0.5928 0-1.1836 0.0645-1.7539 0.1914l-0.0537 0.0117 0.0195 0.0518c1.0195 2.6016 3.4932 3.4688 5.8848 4.3066 1.2686 0.4453 2.5801 0.9043 3.6621 1.6182 0.1494 0.3145 0.2754 0.6621 0.3975 0.999 0.4355 1.1992 0.8848 2.4395 2.4355 2.5332 0.9209 2.7451 1.0186 5.6611 1.1133 8.4814 0.0391 1.1494 0.0791 2.3369 0.1738 3.499 0.4902 4.8818 0.585 9.8711 0.6768 14.696 0.0742 3.9328 0.1514 8 0.4435 11.992-0.4698 1.7087-0.901 3.4582-1.3185 5.1492-0.3613 1.4678-0.7354 2.9854-1.1338 4.4717-2.499 0.9736-5.2002 1.0205-7.8115 1.0654-0.7568 0.0127-1.5381 0.0264-2.332 0.0762-0.2217 0.2197-0.4365 0.4775-0.6445 0.7275-0.6016 0.7236-1.2246 1.4727-2.1543 1.4717-0.1777 0-0.3643-0.0273-0.5586-0.082-0.21-0.0439-0.4053-0.0664-0.582-0.0664-1.2598 0-1.5068 1.0898-1.7695 2.2432-0.2507 1.108-0.5115 2.2528-1.6768 2.5834-5.6375 0.2455-11.314 1.1962-16.804 2.1148-5.2578 0.8809-10.694 1.791-16.101 2.084l-0.083 0.0049 0.0479 0.0684c0.7119 1.0273 1.7148 2.2051 3.168 2.2051 0.2871 0 0.5879-0.0459 0.8857-0.1338 5.3887-0.6895 10.859-1.4658 16.15-2.2158 5.1582-0.7314 10.493-1.4883 15.754-2.165 0.8097-0.1808 1.6066-0.4639 2.37-0.8401 0.2941-0.0108 0.7399-0.0291 1.1749-0.0475 0.3676-0.0161 0.7224-0.0309 0.9772-0.0408 0 0 0.1927 0.3103 0.2201 0.3093 21.482-0.875 43.312-1.9805 64.423-3.0498 21.606-1.0938 43.949-2.2256 65.938-3.1104 13.276-0.7266 26.783-1.3018 39.846-1.8584 12.835-0.5469 26.106-1.1133 39.152-1.8213 0.751-0.0117 1.5029-0.0225 2.2539-0.0332 8.4795-0.1221 17.246-0.248 25.827-1.0576 11.02-0.3926 22.564-3.7754 34.31-10.056 8.0278-4.2848 16.197-8.8927 24.978-14.088 1.7705-0.8086 3.4863-1.8057 5.1455-2.7695 2.6523-1.541 5.3945-3.1338 8.418-3.9883 0.3965-0.125 0.8145-0.248 1.2178-0.3662 2.9277-0.8584 6.2441-1.832 6.8242-5.4033 1.1426-2.0322 2.46-4.0029 3.7334-5.9092 0.7363-1.1016 1.498-2.2412 2.2178-3.3809 2.1543-0.0781 4.3662-0.1387 6.6133-0.2012 1.4736-2.3535 2.8643-4.6797 3.6748-7.251l0.0195-0.0615-0.4521 0.0088c-4.2051 0.0859-8.5527 0.1738-12.798 0.5723-3.2822 0.4443-6.6416 0.5488-9.8906 0.6514-3.3408 0.1045-6.7959 0.2119-10.164 0.6885-7.3047 0.1748-14.714 0.6104-21.88 1.0322-2.6846 0.1572-5.4609 0.3203-8.1924 0.4678-9.5388 0.4092-19.232 0.9462-28.606 1.4648-8.4893 0.4697-17.268 0.9561-25.903 1.3457-6.3516 0.3076-12.803 0.6797-19.041 1.0391-7.1426 0.4121-14.529 0.8379-21.802 1.1689-0.0205-0.4092-0.0518-0.999-0.084-1.5889-0.0317-0.6036-0.0645-1.2053-0.085-1.6348-0.1357-2.9258-0.1143-5.9063-0.0938-8.7891 0.0282-3.8991 0.0553-7.9308-0.3024-11.884 14.982-0.682 28.747-1.3882 42.08-2.1579 5.7568-0.0361 12.449-0.127 19.012-0.75 0.748-0.0273 1.4971-0.0537 2.248-0.0801 10.644-0.374 21.649-0.7607 31.786-4.6328 10.15-3.6436 19.631-9.0938 28.799-14.365 3.2881-1.8906 6.6885-3.8457 10.069-5.6885 1.8379-1.1348 3.7627-2.21 5.623-3.249l0.6064-0.3392c1.548 0.6829 3.2583 1.0159 5.2285 1.0159 2.0947 0 4.2411-0.3721 6.3162-0.7314 24.757-4.2873 49.891-9.6619 73.449-18.53 16.431-6.1851 32.257-14.462 45.834-25.679 6.7936-5.6126 13.415-10.463 13.766-19.785 0.3572-9.4764-4.3684-18.355-10.336-25.406-6.7244-7.9451-15.42-13.958-24.263-19.447 0.1584-0.9097 0.3169-1.8193 0.4753-2.7289 0.3987-3.1888-43.195-18.319-48.074-22.078 0 0-0.0938-0.0625-0.1096-0.073-4.4226-2.9547-8.9287-5.9441-13.286-8.8352-10.795-7.1626-21.842-14.049-31.708-22.491-1.7637-1.509-5.4386-3.7881-6.166-6.0497-0.6619-2.0583 0.3669-3.2043-1.1206-5.1335-2.3042-2.9879-6.4294-4.7615-9.6074-6.635-8.0166-4.7258-16.131-6.3831-25.148-7.9298-13.617-2.3358-27.563-3.1489-41.371-3.1489-4.2813 0-8.2354 0.1426-12.085 0.436-2.5283 0.1113-5.1035 0.1582-7.5938 0.2031-5.1064 0.0923-10.387 0.188-15.548 0.8467-1.6816 0.0938-3.3955 0.1787-5.0518 0.2607-6.6621 0.3296-13.55 0.6709-20.261 1.6797-2.0469 0.2646-4.1436 0.3179-6.1709 0.3687-0.4857 0.0123-0.9705 0.0248-1.4552 0.0396 0.0089-0.244 0.0223-0.6407 0.0323-0.9322l0.0078-0.2383-0.5442 0.0217c-1.8828-2.776-4.1166-5.343-6.2771-7.8259-1.041-1.1963-2.1182-2.4331-3.1426-3.6792-0.5049-0.5259-1.0107-1.0791-1.5-1.6143-1.8516-2.0258-3.7668-4.1199-6.2261-5.4108-2.3933-1.9738-5.2335-3.222-8.2104-3.6092-3.3981-0.5873-6.9299-0.8905-10.497-0.9004-1.7646-0.0532-3.5293-0.0801-5.2451-0.0801-1.9165 0-3.8301 0.0336-5.6859 0.1-0.403-0.0117-0.8038-0.0248-1.2028-0.0375-1.1699-0.038-2.2833-0.0699-3.4164-0.0771 1.2184-0.27 2.4647-0.5518 3.7201-0.8423l0.0732-0.0171-0.0479-0.0581c-0.1484-0.1846-0.375-0.4624-0.6016-0.7412-0.2285-0.2813-0.457-0.5635-0.6455-0.7666-0.1855 0.0049-0.458 0.0098-0.7295 0.0151-0.2683 0.0048-0.5338 0.0096-0.718 0.0144-2.8347-1.4203-4.7518-3.9473-6.6052-6.3918-0.5654-0.7456-1.1504-1.5166-1.75-2.2407-2.3262-2.8301-4.9473-5.4736-7.4814-8.0308-2.8486-2.8735-5.7939-5.8452-8.3301-9.0903-1.8428-2.1138-1.3623-5.0024-0.9385-7.5508 0.0759-0.4604 0.1488-0.8953 0.2092-1.3276 0.0752-0.2001 0.1892-0.4941 0.3025-0.7891 0.1152-0.2974 0.2305-0.5952 0.3057-0.7944 0.29-0.7407 0.6025-1.4766 0.9287-2.1875l0.0156-0.0342-0.0303-0.0225c-0.7891-0.6055-1.5723-1.2178-2.3291-1.8101l-0.3545-0.2769-0.0293 0.0332c-0.9775 1.1094-1.9316 2.2041-2.8379 3.2529-0.6611-0.3101-1.9141-0.9082-2.5225-1.2026-0.0254-0.3652-0.0645-0.9023-0.1035-1.439-0.0394-0.5412-0.0786-1.08-0.1031-1.4447 1.6259-2.0749 3.8112-3.4714 6.2925-4.9532 3.9363-1.2681 7.7274-3.1762 11.393-5.0215 5.416-2.7261 11.016-5.5444 17.192-6.355l0.0322-0.0039 0.0078-0.0317c0.1025-0.4297 0.2939-1.2466 0.3857-1.6665 0.4063-0.166 0.832-0.3179 1.2432-0.4648 0.9961-0.356 2.0254-0.7236 2.9268-1.3345 0.6895-0.625 0.6973-1.5869 0.7051-2.5166 0.0088-1.1299 0.0176-2.1968 1.2227-2.5957 2.3955-1.1279 4.8174-2.2993 7.1602-3.4321 4.2373-2.0493 8.6201-4.1689 13-6.1074 1.8691-0.833 3.8086-1.6011 5.6836-2.3438 3.0039-1.189 6.1099-2.4192 9.0198-3.9538 1.808-0.2289 3.5859-0.725 5.3054-1.2049 1.8203-0.5083 3.7031-1.0337 5.6279-1.2441 10.649-1.3921 21.386-2.8154 31.917-4.2314 4.2129-1.2227 8.1924-3.188 12.041-5.0889 3.3027-1.6313 6.7178-3.3179 10.276-4.5338 41-19.693 82.266-38.838 123.36-58.3 11.309-5.356 23.002-10.894 34.456-16.45 2.7422-1.2075 5.499-2.5103 8.165-3.77 41.422-19.573 85.817-35.334 125.72-57.452 1.2676-0.7026 1.9365-1.9253 1.8848-3.4424l1e-4 -0.0334zm-528.03 177.4l-0.2175 0.5085c-2.3462 1.2885-4.3691 1.9153-6.1829 1.9153-1.2139 0-2.3281-0.293-3.3145-0.8711 2.0967-2.0444 5.084-2.3262 7.9736-2.5986 0.803-0.0757 1.5608-0.1487 2.2961-0.2563-0.1433 0.3418-0.3655 0.8609-0.5548 1.3022zm21.242 13.68c-0.0632-0.6419-0.1631-1.885-0.2015-2.3655 6.3521 0.6252 12.564 1.2985 18.727 2.6191 0.0974 0.1799 0.2361 0.4453 0.3755 0.7112 0.1191 0.2275 0.2373 0.4526 0.3262 0.6196-6.6465-0.0468-13.406-0.8412-19.228-1.5844zm276.95 322.76c0.0908-1.1689 0.1855-2.377 1.4873-2.4355 3.9277-0.582 8.1123-0.8662 12.79-0.8691-0.1201 0.2578-0.2354 0.5244-0.3564 0.8047-0.6514 1.499-1.3887 3.1982-2.9326 3.8633-1.9375 0.2471-3.9521 0.3672-6.1582 0.3672-1.5986 0-3.2666-0.0635-5.0977-0.1934 0.1797-0.4122 0.2217-0.9601 0.2676-1.5372zm-125.87 4.6074c-0.041-0.6611-0.0791-1.2852-0.0254-1.8535 14.448-0.709 29.122-1.5771 43.314-2.417 3.6855-0.2178 7.3701-0.4355 11.054-0.6514 8.3701-0.2246 16.869-0.7109 25.088-1.1816 9.7094-0.5565 19.75-1.1314 29.642-1.2781 3.0381 1.373 6.2201 2.5654 9.297 3.7185 0.6162 0.2305 1.2324 0.4609 1.8486 0.6943-0.0703 0.3594-0.1299 0.7373-0.1875 1.1035-0.252 1.6064-0.5127 3.2676-1.7871 4.3594-0.626 0.4727-1.3115 0.8721-1.9736 1.2588-0.6626 0.3862-1.347 0.7863-1.9692 1.2567-9e-4 4e-4 -0.0016 7e-4 -0.0024 0.0011-2.5586 1.4775-5.1504 2.9971-7.6572 4.4678-6.5723 3.8545-13.368 7.8408-20.228 11.431-9.6162 4.5244-20.721 6.9814-32.113 7.1055-15.44 0.9658-31.586 1.6689-47.983 2.0898-0.3145-0.0273-0.6416-0.0313-0.9873-0.0361-1.2861-0.0176-2.6162-0.0352-3.2441-1.2686-3.7236-7.1963-3.8594-15.429-3.9912-23.39l-0.0127-0.8047c2.16-0.7159 2.0379-2.6934 1.9197-4.6055zm163.93-211.82l0.1108-0.2297c2.0254 1.1349 3.96 2.4949 5.8315 3.8108 2.9114 2.0482 5.921 4.1653 9.3423 5.4799-1.0607 3.7184-2.2925 8.6373-2.4594 13.802-0.506 0.4586-1.0055 0.9391-1.4882 1.4297-2.0403-2.6973-3.9846-5.5302-5.8645-8.2708-2.0355-2.9667-4.1401-6.0338-6.3762-8.9404 0.686-1.2212 1.4025-2.4526 2.095-3.6436l0.0254-0.042-0.0439-0.0225c-0.5566-0.2939-1.6572-0.873-2.2393-1.1797 0.2735-0.5557 0.7491-1.5381 1.0665-2.1934zm-28.774 6.4053c0.5125-1.3025 1.0439-2.6457 2.1907-3.5359 0.5577 1.1348 1.1185 2.311 1.7136 3.5925-0.5566 0.0371-1.3682 0.0938-2.1641 0.1504-0.701 0.0485-1.3831 0.0965-1.873 0.1297 0.0443-0.112 0.0884-0.2242 0.1328-0.3367zm-1.7376 1.3081c0.5297 0.1318 1.0779 0.1997 1.6301 0.1997 1.4053 0 2.8916-0.416 4.6758-1.3086 0.4785 0.7275 0.9541 1.4678 1.4141 2.1846 0.4063 0.6318 0.8262 1.2852 1.251 1.9346-2.0449 0.1631-4.1855 0.2422-6.5439 0.2422-1.6826 0-3.4976-0.0414-5.542-0.1259 0.945-1.5781 1.9353-2.5745 3.1149-3.1266zm-0.4148 7.7876c0.5332-0.0215 1.0898-0.0322 1.7012-0.0322 1.126 0 2.2734 0.0371 3.3828 0.0723s2.2578 0.0713 3.3838 0.0713c1.9766 0 3.5801-0.1152 5.0479-0.3623 1.4111-0.2295 1.8105-1.5225 2.1963-2.7734 0.1195-0.3883 0.2356-0.7526 0.3777-1.0819 1.0083 1.5704 2.1093 3.1128 3.176 4.6044 0.3541 0.4942 0.7083 0.9894 1.0604 1.4865l0.0031 0.0047c2.5227 3.7166 4.834 8.1067 2.8708 12.49-0.458 0.2208-0.9136 0.4389-1.3669 0.6559-0.3604 0.1719-0.7188 0.3438-1.0664 0.5127-2.3252 0.623-4.7324 0.9395-7.1563 0.9395-2.7365 0-5.3469-0.4027-7.76-1.1971-0.5872-0.5148-1.2-1.0212-1.7927-1.5109-1.375-1.1348-2.7969-2.3096-3.9912-3.6621-1.4717-2.1172-2.665-4.4502-3.8184-6.7061-0.5664-1.1064-1.1514-2.25-1.7617-3.3545 2.2119-0.0832 3.914-0.131 5.5136-0.1564zm-56.02 149.14c0.0696-0.4048 0.137-0.7975 0.1829-1.0697 0.7798-1.0239 1.4285-1.8427 2.0388-2.5739 3.9473-0.376 7.1367-0.8652 10.037-1.5391v-2e-4c1.6676-0.371 3.343-0.825 4.9639-1.2644 0.665-0.1807 1.3301-0.3613 1.9971-0.5371l0.0488-0.0127-0.0156-0.0469c-0.1122-0.3365-0.3151-0.9374-0.6174-1.8217 1.7345 0.0592 3.0432 1.1104 4.1089 3.3054-4.9165 2.5093-10.099 4.1185-14.968 5.4831l-0.0084 2e-3c-2.8574 0.6914-5.7598 1.0752-7.9824 1.333 0.0546-0.3262 0.1356-0.7988 0.2147-1.2578zm-52.972 0.2158c1.752-0.0332 3.5635-0.0674 5.3311-0.1982 2.4531-0.0508 4.9346-0.2891 7.335-0.5205 2.709-0.2607 5.5098-0.5303 8.2803-0.5303 0.0811 0 0.1631 1e-3 0.2432 1e-3 0.4717 0.0078 0.9521 0.0107 1.4307 0.0107 6.1638 0 12.735-0.5882 21.299-1.9086 1.1355 0.6537 2.3174 1.3074 3.4595 1.9388 0.3064 0.1692 0.613 0.3385 0.9213 0.5095l2.1743 2.3288c-10.164 0.2533-20.481 0.8218-30.46 1.3727-9.4929 0.524-19.308 1.0654-28.973 1.3342-0.8837-0.9396-1.7684-1.9792-2.6289-3.0856 3.7677-1.1008 7.7423-1.1787 11.587-1.2525zm-26.398 4.8574c0.3115-1.4971 0.6328-3.0459 1.2822-4.4551 0.3303-0.1298 0.9696-0.3714 1.2964-0.4907 0.363-0.0234 0.8915-0.0544 1.4312-0.0875 0.5898-0.0352 1.1934-0.0713 1.6094-0.0977-0.1904 0.5254-0.2852 1.1289-0.377 1.7139-0.1885 1.1982-0.3828 2.4375-1.3955 3.1426-1.1074 0.3848-2.2734 0.5762-3.4004 0.7607-0.1899 0.0306-0.3799 0.0621-0.5679 0.0936 0.0411-0.1931 0.0813-0.3865 0.1216-0.5798zm-85.196-256.56c1.5547 0.1113 3.1631 0.2266 4.7393 0.4937 1.9922 0.7227 3.0566 3.6729 2.6777 5.8276-0.2764 1.5747-1.2598 2.478-2.6982 2.478h-1e-3c-0.3228 0-0.6718-0.045-1.0383-0.1321-1.1802-1.2261-2.2839-2.6821-3.3748-4.4519l-0.0022-0.0036c-0.132-0.2504-0.3302-0.621-0.531-0.9944-0.2053-0.3837-0.4115-0.7681-0.55-1.0302-0.02-0.5771-0.0387-1.6777-0.0486-2.2468 0.2756 0.0206 0.5514 0.0404 0.8271 0.0597zm-33.334-19.758c0.709 0 1.4414 0.0747 2.1494 0.1465 0.5242 0.0536 1.0632 0.1053 1.5887 0.1293-1.6119 1.0354-3.2971 1.8634-5.0253 2.6837-0.4316-0.5571-1.2363-1.6167-1.6719-2.1909l-0.0408-0.0538c0.8276-0.4854 1.7818-0.7148 2.9999-0.7148zm-3.6041 7.5057c0.0264-0.3258 0.0701-0.821 0.1128-1.3045 0.0342-0.397 0.0684-0.7852 0.0918-1.0625 2.0146 0.5566 4.1836 0.8394 6.4473 0.8394 1.6563-5e-4 3.4082-0.1514 5.2051-0.4497 0.7803 0.7554 3.4424 3.125 6.1162 3.125 1.0791-5e-4 2.0059-0.4014 2.7539-1.1929l0.1191-0.1265-0.167 0.0493c-0.8359 0.2461-1.6553 0.3711-2.4365 0.3711-2.0415 0-3.8022-0.8581-5.099-2.4771 0.2386-0.1553 0.5747-0.377 0.9135-0.6005 0.3173-0.209 0.6256-0.4123 0.8455-0.5563l0.0071 9e-3 0.0342-0.036 0.0381-0.0245-0.0067-0.0081c0.2091-0.2184 0.5117-0.5319 0.8182-0.8478 0.2993-0.308 0.5944-0.6132 0.7954-0.8239 1.3159 0.1988 2.6487 0.5058 3.938 0.8034l0.583 0.1338c0.3232 3.1392 0.377 6.271 0.3857 8.9263-4.8916 1.3364-9.5078 3.6074-13.972 5.8032-0.5266 0.2596-1.054 0.5186-1.5806 0.7761l5e-4 -0.0012-0.127 0.0635v1e-4c-1.0474 0.5234-2.0698 1.056-2.9385 1.5121-0.6996-4.4938-1.8049-8.8362-2.8784-12.901zm18.474 12.624c-0.4658 1.4707-0.9033 2.9727-1.3262 4.4258-0.1655 0.5674-0.3312 1.1363-0.4988 1.7056-0.5178 0.9569-1.0525 1.9457-1.5599 2.9295-0.7469 0.2747-1.3489 0.5059-1.8885 0.7244 0.1118-0.8975 0.238-1.8065 0.3613-2.6862 0.3555-2.542 0.7217-5.1699 0.7764-7.7876 0.2744-0.0234 0.71-0.0615 1.0469-0.0913l0.2727-0.024c0.8134 0.214 1.7099 0.4698 2.8161 0.8038zm-6.3457 3.7827c-0.3359 1.2769-1.7412 2.6436-3.2979 2.6436-0.3867 0-0.7598-0.0845-1.1104-0.2515-0.1191-0.3296-0.2939-0.8135-0.4688-1.2974-0.1709-0.4756-0.3418-0.9512-0.4619-1.2803 1.2969-0.8604 2.6943-1.7422 4.2686-2.2871 0.9502 0.545 1.3399 1.4454 1.0704 2.4727zm-7.75 2.3067l1.4023 0.4614c0.4207 0.3366 0.8547 0.6717 1.2754 0.9957 1.0703 0.8267 2.1777 1.6812 3.1719 2.644 0.1172 1.3413 0.0859 2.7075-0.0918 4.0625l-0.0029 0.0254 0.0195 0.0166c0.6414 0.5281 1.3049 1.0739 1.9756 1.6202l-2.5693 0.3066 0.0044 0.0061c-0.8003 0.1223-1.2708 0.7902-1.7107 1.4674 0.136-0.23 0.2642-0.4479 0.3625-0.6159l1e-3 8e-4 0.7207-1.2588-0.041-0.0234c-2.8711-1.6211-3.4922-4.7261-4.0928-7.7285-0.1319-0.6569-0.2676-1.3351-0.4248-1.9801zm-42.048 248.09c0.0703-1.7646 0.1436-3.5889 0.0693-5.3525 0.1123-1.3105 0.083-2.6904 0.0557-4.0254-0.0635-3.0957-0.1289-6.2979 1.5176-9.0146 0.5154-0.8417 1.0815-1.7358 1.8312-2.8918l0.4139 0.0866v0.0015l0.0288 0.0046 0.0669 0.014-1e-4 -0.0021c0.1416 0.0253 0.3251 0.0593 0.5157 0.0948 0.2001 0.0373 0.395 0.0735 0.5383 0.0981 0.106 2.4363 0.3054 4.9289 0.4998 7.3384 0.5991 7.4587 1.218 15.172-0.8247 22.558-0.1787 0.0734-0.4768 0.1933-0.6265 0.2498-0.2168 0.084-0.5371 0.2031-0.8584 0.3242-0.3296 0.1227-0.6597 0.2469-0.8787 0.3318l-0.1262-0.0154c-0.4912-0.0605-1.3057-0.1621-1.752-0.209-0.7313-3.1103-0.5985-6.4043-0.4706-9.5908zm151.7 73.811c-1.7051 1.0254-3.752 1.0859-5.7324 1.1436-0.8164 0.0244-1.6611 0.0488-2.4541 0.1426-7.5449 0.2051-15.205 0.6182-22.612 1.0176-6.6904 0.3604-13.607 0.7334-20.42 0.9521-4.8652 0.4268-9.8242 0.6455-14.619 0.8564-5.7705 0.2539-11.737 0.5156-17.582 1.1436v1e-4c-2.8955 0.0995-5.834 0.2958-8.6758 0.4852-4.0977 0.2734-8.335 0.5557-12.519 0.5557-0.1699 0-0.3408 0-0.5166-1e-3 -5.6006 0.6523-11.328 0.7695-16.866 0.8818-5.3262 0.1084-10.834 0.2207-16.224 0.8086-0.6221 0.0781-1.2607 0.1172-1.8984 0.1172-1.9746 0-4.0195-0.3721-6.0781-1.1064-0.4033-1.375-0.9209-2.7373-1.4209-4.0547-0.752-1.9805-1.5293-4.0293-1.9297-6.1426l-0.0625-1.0332c-0.709-11.814-1.4424-24.03-1.248-36.056-0.0586-1.4326 0.667-2.3613 2.1553-2.7627l0.0361-0.0098-0.0137-0.418c-0.0449-1.2998-0.0918-2.6445-0.1279-3.9482l-1e-3 -0.0303-0.0283-0.0117c-0.9727-0.4023-1.8721-0.8018-2.6738-1.1885-0.2354-1.6182-0.2529-3.2803-0.2695-4.8877-0.0039-0.4082-0.0078-0.8174-0.0156-1.2256 4.4287-0.0654 8.9248-0.3242 13.274-0.5742 3.7012-0.2129 7.5283-0.4336 11.304-0.5342 4.4814-0.5459 9.0654-0.666 13.498-0.7822 4.584-0.1191 9.3242-0.2432 13.962-0.8379v-1e-4c5.052-0.0579 10.177-0.3613 15.133-0.6552 5.3838-0.3193 10.95-0.6494 16.443-0.665 14.618-0.8965 29.486-1.5479 43.864-2.1787 8.6907-0.3801 17.676-0.774 26.516-1.2183-0.1472 9.0562-0.0645 16.612 0.2605 23.776l-0.0908 0.4287c-1.9014 0.0635-3.829 0.0939-5.6941 0.124-1.3203 0.0205-2.6865 0.042-4.0293 0.0752l-0.0703 2e-3 0.0283 0.0635c1.0117 2.291 2.0723 4.5332 3.1611 6.8213l0.0117 0.0244 0.2471 0.0176c1.0029 0.0732 2.04 0.1484 3.0742 0.2314 0.0547 0.2939 0.1367 0.7197 0.2178 1.1455 0.085 0.4424 0.1699 0.8848 0.2256 1.1797l0.0015 0.0071c0.0674 0.387 0.174 0.9828 0.2769 1.5525 0.0811 0.4492 0.1592 0.8809 0.2119 1.1797l0.0049 0.0293 0.0283 0.0078c0.3203 0.0898 0.8027 0.2197 1.2852 0.3496 0.4658 0.126 0.9316 0.251 1.251 0.3408 0.0391 1.3457 0.1084 2.7363 0.1758 4.082 0.3531 7.0919 0.7183 14.425-2.7748 20.779zm-54.477-79.734c3.709 0.1943 7.5449 0.3955 11.298 0.7744 6.6872 0.6751 13.417 0.7659 20.133 0.7219 6.2474-0.0409 12.788-0.7199 18.933 0.282 1.512 0.2465 3.0753 0.5003 4.6339 0.6922 1.5702 1.5144 2.2817 3.7028 2.118 6.5024-0.0776 0.0042-0.1748 0.0083-0.2764 0.0125-0.1201 0.0049-0.2402 0.0098-0.3213 0.0147-18.789 0.6075-37.884 1.5752-56.35 2.5117-18.33 0.9297-37.283 1.8906-55.938 2.499-2.9336 0.0449-5.918 0.2598-8.8037 0.4678-3.2451 0.2344-6.5996 0.4766-9.8955 0.4766-2.5538 0-4.8359-0.1447-6.9758-0.4411-0.4478-1.3317-1.0234-2.6346-1.5818-3.8948-0.6533-1.4756-1.3291-3.001-1.7959-4.5693-0.3672-2.2129-0.4922-4.4941-0.6143-6.7012-0.0898-1.6406-0.1836-3.3379-0.3754-5-0.1732-2.1281-0.2576-4.4131-0.2589-6.9797 3.637 1.0931 7.4379 1.7164 11.115 2.3185 3.3359 0.5459 6.7861 1.1094 10.108 2.0254 6.8328 1.8839 14.34 2.5343 21.352 3.5232 10.028 1.4144 20.134 2.424 30.192 3.597 4.4222 0.5157 8.8571 0.9334 13.304 1.1668z"/>
 <path d="m1142.6 311.42l0.0264 0.0078s-1.043-0.3037-0.0264-0.0078z"/>
</svg>
