<?xml version="1.0" encoding="UTF-8"?>
<!DOCTYPE svg  PUBLIC '-//W3C//DTD SVG 1.1//EN'  'http://www.w3.org/Graphics/SVG/1.1/DTD/svg11.dtd'>
<svg enable-background="new 0 0 2846.575 1719.979" version="1.1" viewBox="0 0 2846.575 1719.979" xml:space="preserve" xmlns="http://www.w3.org/2000/svg">
	<path d="m1141.2 850.76c-3.9238-5.5088-9.417-6.0534-14.21-7.0362-13.651-2.7991-27.435-4.9528-41.178-7.298-9.0758-1.5488-18.042-3.5809-26.162-8.0331-14.581-7.9949-15.71-22.57-2.7277-33.024 4.7301-3.8087 10.225-6.1249 15.965-7.9405 11.124-3.5182 21.262-8.8934 30.717-15.747 4.8223-3.4951 9.8647-6.9962 15.323-9.243 13.754-5.6614 26.617-12.567 37.807-22.496 6.7617-5.9999 14.353-6.0333 22.294-2.2956 7.9883 3.76 15.197 8.7241 22.237 13.972 15.058 11.226 28.68 24.117 42.548 36.722 20.092 18.263 40.908 35.396 64.754 48.867 24.745 13.978 45.833 33.144 67.569 51.275 5.7357 4.7845 5.6331 5.1442-0.021 11.239-16.796 18.105-35.061 33.86-60.959 36.997-2.6085 0.316-4.5728 1.4234-4.9283 4.2637-0.474 3.7869 0.3544 7.1584 3.5826 9.5616 3.8776 2.8865 8.3092 2.6473 12.633 1.7205 6.6925-1.4347 12.704-4.5623 18.536-8.0994 25.431-15.424 53.304-17.663 82.016-14.79 5.126 0.5129 10.445 1.8234 14.631 4.9066 8.5619 6.3071 18.404 9.1681 28.304 12.327 12.584 4.0148 24.146 10.446 35.322 17.408 12.216 7.6093 25.242 11.315 39.703 10.938 10.738-0.2798 21.514-0.2593 32.259 1.0182 6.9542 0.8267 13.163 2.994 18.667 7.2603 9.2229 7.1495 19.206 12.638 30.586 15.804 8.5774 2.3857 15.577 8.0356 22.28 13.69 11.58 9.7679 22.854 19.898 34.291 29.836 14.17 12.313 29.088 22.881 46.786 30.4 27.524 11.694 40.76 35.61 46.872 63.903 0.6719 3.1111 1.1638 6.2654 1.6272 9.4161 1.6309 11.084 8.6206 16.481 19.127 18.356 7.9659 1.421 12.396-0.7168 14.64-8.3342 1.4519-4.926 1.8763-10.163 2.6599-15.276 1.7555-11.454 5.902-16.153 17.142-18.455 5.0547-1.0354 10.248-1.8162 15.393-1.912 21.527-0.4012 43.034-0.4425 64.543 1.457 16.856 1.4885 31.912 7.0249 44.94 17.586 13.934 11.296 27.464 23.091 41.125 34.721 11.007 9.3711 22.118 18.392 37.525 19.309 6.4396 0.3835 10.005 4.7833 11.698 10.467 5.948 19.961 17.321 36.564 31.008 51.919 9.7866 10.979 15.573 23.932 17.51 38.621 2.2639 17.167 7.5818 33.102 16.808 48.088 18.136 29.459 14.046 60.05-0.2876 89.112-8.3916 17.015-25.133 26.617-43.252 31.667-9.6353 2.6857-17.886 6.4635-24.321 13.977-6.1252 7.1504-13.827 9.9674-23.166 10.413-18.284 0.8716-35.686-0.3199-51.15-12.007-6.9547-5.256-15.488-8.158-24.026-10.411-9.7327-2.5675-18.904-6.4935-27.041-12.377-10.632-7.6876-22.51-12.116-35.327-13.62-19.658-2.3059-36.961-9.8737-51.866-22.563-18.772-15.982-40.544-23.23-64.809-24.101-2.3885-0.0857-4.7974-0.4019-7.1617-0.2002-5.6528 0.4822-7.1648 3.0573-3.7264 7.8635 9.9584 13.92 22.429 25.294 39.205 29.821 10.227 2.7599 19.47 6.913 28.263 12.41 13.007 8.131 26.714 13.935 42.176 15.717 11.909 1.3733 23.471 4.4189 33.591 11.535 3.942 2.772 8.5966 3.9795 13.474 4.4709 7.1909 0.7249 14.083 2.8169 20.559 5.9852 12.39 6.0619 14.456 14.866 6.3087 26.178-1.1608 1.6118-2.4354 3.1782-3.8585 4.5583-6.4333 6.2384-11.74 12.664-11.023 22.722 0.3627 5.0887-3.1031 9.7887-5.9733 14.12-6.8418 10.324-12.79 21.03-17.352 32.636-4.5752 11.641-13.166 20.372-25.25 23.854-11.353 3.2715-21.256 8.8578-31.064 14.992-11.611 7.2609-23.979 12.49-37.698 14.304-26.583 3.516-41.51-9.7223-40.641-36.296 0.5236-16.024 5.6813-30.57 15.201-43.338 7.3785-9.8976 15.531-19.217 23.312-28.816 4.2672-5.2638 8.6274-10.475 11.494-16.701 2.0928-4.5457 1.8129-8.4869-2.9388-11.3-5.4215-3.2101-12.04-2.437-15.106 1.9797-0.8882 1.2799-1.7994 2.8749-1.849 4.3538-0.4264 12.702-8.7971 21.082-16.309 29.763-22.723 26.258-47.418 50.642-72.036 75.094-14.713 14.613-29.442 29.218-43.815 44.162-4.7679 4.9573-9.6848 7.287-16.689 7.1959-35.887-0.4678-71.781-0.3895-107.67-0.739-13.964-0.136-27.807-1.7858-41.553-4.4254-23.275-4.4694-39.263-20.258-55.742-35.338-3.5232-3.2241-1.0337-5.6595 1.3491-7.9302 7.7942-7.4285 15.7-14.741 23.424-22.241 6.2388-6.0577 12.624-12.025 18.016-19.955-5.6646-1.8953-9.3962 0.8666-12.996 2.6804-17.184 8.6587-34.887 15.575-54.048 18.527-5.4691 0.8427-10.565 3.2786-15.594 5.8499-22.842 11.68-47.171 13.46-70.517 4.188-29.344-11.654-58.849-12.682-89.226-8.1177-3.8972 0.5858-7.9429 1.5928-11.405 3.3937-9.4482 4.9144-19.548 6.8052-29.961 7.3051-34.66 1.6635-69.316 2.79-103.94-0.8953-8.5839-0.9136-16.319-3.7354-23.196-8.764-16.173-11.825-30.707-25.443-43.244-41.081-7.3259-9.1382-7.2645-13.238 0.3783-22.033 10.137-11.665 22.279-20.467 37.538-24.334 7.3374-1.8596 14.684-3.6826 22.03-5.5073 14.105-3.5037 27.281-9.2169 38.635-18.276 17.984-14.348 38.064-22.92 61.079-24.794 7.5906-0.618 15.362-2.3478 20.815-8.049 13.837-14.469 31.454-17.983 50.232-18.169 17.758-0.1754 34.889-3.2356 51.344-9.8676 7.7854-3.1381 15.231-6.9576 21.613-12.565 3.0532-2.6831 5.6907-5.7238 6.5687-9.7604 0.7288-3.3505-0.5194-6.3607-3.2062-8.4701-2.9417-2.3098-5.1677 0.0609-7.4235 1.587-0.6527 0.4417-1.2743 0.9954-1.7537 1.6183-11.36 14.754-27.937 17.431-44.795 18.97-11.504 1.0498-23.083 1.3171-34.635 1.7887-7.5417 0.3079-13.839 2.9503-19.072 8.5287-10.768 11.479-24.593 16.429-39.87 15.991-17.403-0.4995-32.102 4.2301-44.066 17.215-4.4022 4.7775-10.302 7.614-16.78 8.5626-6.439 0.9429-12.388 3.1951-17.957 6.2947-12.381 6.8899-25.65 10.986-39.594 12.742-14.452 1.8198-27.865 6.5786-40.772 13.05-9.9954 5.0118-20.117 9.5248-31.221 11.73-8.4786 1.6841-15.215 7.062-21.248 12.847-9.6948 9.2965-20.952 13.759-34.306 14.749-14.888 1.1045-29.431 0.205-43.874-3.4229-24.546-6.1653-42.374-21.174-56.035-41.933-3.8259-5.8138-3.9429-10.967 0.5016-16.349 16.444-19.91 33.98-37.626 60.997-43.335 22.303-4.713 42.526-15.774 63.2-25.137 24.324-11.015 48.559-22.247 72.553-33.957 9.5887-4.6798 19.424-6.7865 29.878-7.2295 22.309-0.9453 44.617-1.9082 66.918-3.0232 21.497-1.075 43.017-1.8947 64.409-4.4745 2.2422-0.2704 4.8792 0.3145 6.854-2.8452-1.5361-2.8059-4.5293-3.3341-7.4888-4.0497-14.788-3.5757-29.918-4.9545-44.992-6.0027-35.44-2.4642-70.905-3.5327-106.04 3.6968-9.4354 1.9413-18.382 5.0316-26.783 9.8854-5.1509 2.976-10.508 6.0309-16.175 7.5945-15.558 4.2928-29.683 11.342-43.285 19.846-9.5899 5.9956-20.402 8.9697-31.57 10.4-11.766 1.5072-22.125 5.9923-31.64 13.087-9.5815 7.1437-19.524 13.821-29.505 20.405-7.3255 4.8322-14.984 8.9257-23.921 10.43-6.7885 1.1428-12.543 5.0627-17.906 9.26-11.703 9.1586-25.019 13.224-39.738 14.664-21.998 2.1511-43.832-0.0431-65.711-1.0535-9.6841-0.4474-18.663-3.8124-26.708-9.4861-9.598-6.7688-20.239-10.814-31.877-12.822-10.942-1.8875-20.547-0.0818-29.054 7.1923-3.0281 2.5891-6.1471 5.1-9.4147 7.3735-3.5914 2.4985-7.1168 5.6205-11.163 6.85-25.4 7.7177-49.77 18.624-76.968 20.513-56.608 3.9303-113.14 4.5485-169.67-0.3641-19.048-1.6555-38.086-4.059-55.426-13.352-3.0973-1.6603-6.7199-2.7992-10.21-3.1865-13.789-1.5311-24.768-8.4659-34.592-17.544-17.537-16.205-30.998-35.163-39.257-57.792-4.2602-11.672-2.588-21.4 5.4019-31.022 22.851-27.519 37.088-59.278 44.714-94.112 2.2201-10.14 5.1417-20.004 9.8134-29.391 4.5248-9.0913 5.0522-19.221 5.6792-29.157 1.7075-27.056 3.0805-54.134 4.8094-81.189 0.584-9.1381 1.5623-18.272 2.854-27.338 1.6603-11.653 6.0751-22.215 13.675-31.382 5.4023-6.5165 9.3196-13.625 10.596-22.344 1.2549-8.5692 6.8205-15.117 12.796-21.147 5.3604-5.4093 11.605-9.713 17.614-14.325 3.1446-2.4137 6.2963-4.9979 8.7891-8.0421 4.504-5.5001 3.1136-9.4435-3.791-11.374-6.39-1.7867-12.803-1.0111-18.708 1.702-19.236 8.8382-34.901 20.938-38.242 43.761-0.6489 4.4318-2.7083 8.391-5.2506 11.954-6.6324 9.2941-10.608 19.598-12.234 30.819-2.335 16.107-8.6068 30.458-17.83 43.86-9.5805 13.922-9.1822 14.825 1.3887 27.881 1.5054 1.859 2.9843 3.751 4.6205 5.4911 8.1408 8.6572 9.3754 18.204 3.4162 28.441-14.227 24.439-17.949 51.777-21.498 79.045-1.5986 12.28-5.7776 23.093-12.969 32.928-5.9183 8.0935-10.058 16.617-12.489 26.705-4.7762 19.823-19.05 32.6-36.516 42.024-5.396 2.9111-10.118 1.2577-14.172-2.6033-6.6168-6.3014-10.392-14.082-10.749-23.274-0.6048-15.588 0.9039-31.085 2.6737-46.532 0.6787-5.9235 2.3398-11.963 6.1156-16.696 12.939-16.218 15.186-35.539 16.767-55.137 0.8011-9.9315 1.8226-19.847 2.5194-29.785 0.9032-12.882 3.4637-25.493 9.6372-36.758 12.897-23.535 15.994-49.022 16.522-75.123 0.3384-16.744 0.8743-33.529 0.0619-50.234-0.4965-10.21 3.153-16.962 10.359-23.778 20.562-19.452 40.531-39.538 60.495-59.613 12.725-12.796 23.565-26.973 30.754-43.788 3.9738-9.2943 9.7463-17.382 19.272-22.06 1.7265-0.8479 3.4028-2.1157 3.4439-5.4961-2.381-1.6473-5.4743-1.6415-8.3005-0.4218-3.6324 1.5676-7.2987 3.3726-10.415 5.7713-28.673 22.072-54.039 47.157-71.408 79.415-5.5179 10.248-12.75 19.264-20.347 28.003-4.186 4.8152-8.3586 9.6485-12.711 14.311-14.602 15.643-21.11 34.354-21.59 55.511-0.3611 15.933 0.142 31.892-2.1146 47.769-1.7651 12.418-4.8401 24.08-12.87 34.194-6.6047 8.3196-8.8229 18.638-11.122 28.756-1.77 7.7886-3.4261 15.607-7.5127 22.584-5.8287 9.951-13.526 13.398-24.208 8.9362-26.903-11.238-46.45-28.174-48.733-60.302-2.018-28.392-2.7733-56.498 2.7922-84.536 1.6417-8.2708 3.6628-16.581 8.3677-23.523 9.4968-14.011 13.395-29.712 15.217-46.069 1.4672-13.176 5.8412-24.618 15.76-33.84 9.2673-8.6166 9.8413-20.54 10.871-32.046 1.3145-14.686 2.1387-29.416 4.8699-43.945 1.6534-8.7961 4.6345-16.96 11.317-23.236 3.9911-3.7484 6.2645-8.3308 6.8479-13.592 0.9702-8.7489 5.3681-15.713 10.682-22.31 5.5361-6.8737 10.276-14.025 12.17-22.991 1.4115-6.6809 5.8167-12.171 9.7693-17.685 10.715-14.949 23.115-28.464 35.67-41.85 6.5468-6.9801 12.93-14.114 19.5-21.072 6.411-6.7907 11.696-13.988 12.346-23.863 0.32-4.8694 3.1539-8.8924 6.3554-12.604 20.096-23.301 41.723-45.064 65.427-64.69 9.2569-7.6646 19.618-13.765 30.978-17.796 9.5025-3.3728 18.278-7.8831 26.154-14.151 9.1169-7.2555 19.614-10.108 31.13-10.456 20.414-0.6168 40.614 2.0306 60.832 3.9307 21.004 1.9738 39.431-2.6924 55.37-16.885 9.226-8.2147 18.8-16.046 29.188-22.826 5.7786-3.7711 11.956-6.0474 18.779-7.2421 20.067-3.5142 40.409-4.352 60.604-6.5859 13.986-1.547 27.507-4.4794 40.328-10.36 14.59-6.6931 29.991-10.735 45.684-13.711 7.0864-1.3438 13.986-3.1784 20.581-6.0748 12.709-5.5816 21.431-14.75 25.969-28.057 10.66-31.259 33.007-50.929 63.198-62.387 9.0079-3.4186 17.683-6.9747 24.958-13.641 7.0161-6.4289 16.084-8.3549 25.22-9.9229 17.032-2.9231 34.21-1.6504 51.329-2.1164 9.0363-0.2459 18.205 0.1123 27.285-4.2164-1.6295-4.5052-5.2961-4.6423-8.603-5.2095-6.3165-1.0834-12.453-2.5108-17.983-6.0595-12.703-8.1518-16.144-19.356-9.4894-32.852 2.099-4.2568 5.0668-8.0884 7.6737-12.091 2.6083-4.0047 5.6075-7.7984 7.8187-12.008 3.6512-6.9514 0.9846-10.989-6.7524-9.9284-10.874 1.4902-20.683 6.0958-29.322 12.722-9.3038 7.137-19.243 12.621-30.635 15.663-6.9594 1.8583-13.262 5.4621-19.203 9.545-18.99 13.049-35.411 28.853-46.532 49.058-10.71 19.458-24.336 36.423-39.558 52.276-8.0035 8.3351-16.686 16.015-24.776 24.271-17.58 17.942-39.359 26.57-63.852 29.33-15.92 1.7944-31.352 5.3714-46.324 11.224-14.955 5.8454-30.81 8.1853-46.641 10.002-11.975 1.3744-22.288 5.1398-30.564 14.322-5.1455 5.7084-11.687 9.223-19.626 10.478-10.322 1.6321-19.63 6.4171-28.933 11.018-7.1417 3.5319-14.21 7.2865-21.59 10.248-14.271 5.7262-22.294 2.694-30.024-10.522-2.0448-3.496-3.6331-7.1927-3.9162-11.193-0.9072-12.815-0.0689-25.478 3.8922-37.822 3.5753-11.142 10.887-18.867 22.192-21.396 23.815-5.3279 38.205-20.31 45.664-42.723 4.4522-13.379 13.259-21.396 27.084-24.05 3.5151-0.6747 6.9219-1.9773 10.451-2.5032 23.779-3.5442 43.417-15.072 60.782-31.122 18.793-17.371 38.844-32.863 61.398-45.346 17.482-9.6747 31.969-23.723 46.652-37.239 14.962-13.772 29.635-27.871 45.756-40.33 9.5085-7.3488 19.409-13.856 31.088-17.47 7.6772-2.376 14.214-7.1592 20.601-11.954 5.1008-3.8295 10.096-7.806 15.035-11.843 12.675-10.36 27.095-16.681 43.33-18.699 13.348-1.6589 25.186-6.3194 35.992-14.686 18.334-14.197 33.738-13.976 52.301 0.0221 18.697 14.1 26.386 34.468 30.668 56.424 2.0565 10.544 3.043 21.293 4.7253 31.916 1.8403 11.619 5.9036 22.312 13.846 31.272 3.8143 4.3026 6.564 9.027 5.6587 15.136-1.0184 6.8724 1.9701 12.563 5.9622 17.63 11.836 15.022 25.384 27.558 45.502 30.321 5.1794 0.7115 9.8679 3.1141 14.15 6.1427 7.6035 5.3772 15.915 9.0415 25.131 10.568 10.988 1.8204 20.365 6.8908 28.252 14.587 8.1 7.9048 17.441 11.98 28.92 12.089 17.843 0.1689 33.329 7.2439 47.148 18.1 7.8344 6.1542 15.41 12.645 22.986 19.119 16.097 13.754 32.892 26.378 51.593 36.586 20.417 11.145 38.072 26.11 54.449 42.625 10.911 11.003 16.632 24.155 17.81 39.425 1.717 22.255 3.2212 44.527 5.062 66.771 1.3474 16.282 3.0791 32.532 4.6677 48.793 0.2714 2.7781 0.6078 5.5684 3.0283 8.2068 2.8177-1.2614 2.8505-3.9901 3.3502-6.506 2.891-14.551 3.0262-29.366 3.5959-44.072 1.2496-32.258 2.4464-64.539-0.7789-96.796-1.3981-13.979-6.5481-24.216-21.329-28.127-6.5123-1.7229-11.949-6.308-17.394-10.352-32.431-24.083-62.357-50.951-89.525-80.859-5.3663-5.9074-10.468-12.061-14.174-19.198-6.4121-12.349-4.2234-20.335 8.3757-26.4 17.944-8.6377 37.118-11.776 56.974-10.343 12.832 0.9257 25.21 4.0452 36.948 9.2438 15.347 6.7972 31.41 8.6073 47.926 7.7994 8.7621-0.4286 17.516-1.0293 26.269-1.6296 4.2706-0.2929 8.5582-0.6916 11.598-3.8577-0.9404-3.1788-3.1115-3.3576-4.9456-3.6523-9.5684-1.5372-18.546-4.9868-27.001-9.4078-13.799-7.2151-28.526-10.055-43.79-10.507-33.883-1.0045-67.78-1.9286-101.67-0.4975-22.778 0.9618-45.436 2.82-65.867 14.552-4.6128 2.6489-9.1454 2.3091-13.62-0.2709-12.31-7.0993-25.833-10.15-39.697-12.386-13.117-2.115-25.366-6.6756-36.396-14.361-7.2317-5.0385-15.218-8.6956-23.67-11.255-34.546-10.461-56.772-37.831-59.758-73.933-1.2886-15.574-0.4944-31.135 2.4875-46.458 4.4767-23.004 17.033-41.064 35.823-54.663 12.885-9.3258 24.131-7.6286 34.971 4.1199 6.1993 6.7192 8.9783 14.847 10.606 23.637 2.9735 16.052 4.6393 32.346 9.0167 48.142 6.4474 23.266 19.945 34.961 44.157 36.692 19.064 1.3627 36.963 5.4843 52.852 16.698 7.088 5.0027 15.596 5.8026 23.948 6.5352 29.804 2.6143 59.698 3.8387 89.586 4.4437 52.627 1.0655 105.27 1.5667 157.91 1.8682 8.2428 0.0472 14.191 2.3591 19.78 8.4413 15.917 17.321 32.46 34.065 48.581 51.202 11.831 12.577 22.163 26.221 27.437 42.988 1.775 5.6431 5.259 8.5049 11.128 9.1716 4.7324 0.5375 9.5532 1.2568 14.048 2.7568 16.687 5.5695 29.139 15.773 35.868 32.63 5.9869 14.997 9.2581 30.603 10.399 46.491 2.8114 39.132 1.6796 78.085-8.0698 116.41-5.0752 19.95-12.57 38.615-26.807 54.023-6.2161 6.7274-8.577 15.24-9.6561 24.035-2.2024 17.947-5.6825 35.291-16.425 50.586-4.5728 6.5107-6.2578 14.615-7.5499 22.529-4.2068 25.77-3.4053 51.69-1.5679 77.552 1.0872 15.303 6.1416 29.514 14.662 42.505 9.5504 14.561 11.352 30.342 5.9485 46.913-3.0669 9.4056-8.9797 15.996-18.93 18.028-20.873 4.2614-40.468 11.89-59.226 21.849-9.7668 5.1855-18.534 5.1794-27.292-3.0621-11.02-10.371-22.951-19.775-34.504-29.577-14.008-11.886-28.425-23.123-45.001-31.411-6.373-3.1864-12.242-7.4805-18.052-11.669-8.1173-5.8519-16.205-11.368-26.271-13.703-7.8605-1.8236-14.256-7.0047-20.696-11.7-16.783-12.238-32.244-26.056-47.598-40.005-10.624-9.6522-21.308-19.242-32.124-28.678-7.8911-6.884-16.466-11.932-27.358-13.614-10.765-1.6622-18.504-7.6976-21.286-19.676-3.5146-15.133-12.903-27.282-23.595-38.213-9.8176-10.037-18.461-20.904-25.682-32.927-3.5083-5.8414-6.562-11.884-7.7882-18.654-0.7228-3.9907-2.0231-7.7722-4.2537-11.092-7.4915-11.15-11.334-23.554-13.739-36.651-2.1776-11.859-6.6715-22.921-13.662-32.883-7.0487-10.046-15.973-17.722-27.473-22.243-1.4834-0.5831-3.0499-1.0139-4.4381-1.7715-21.607-11.792-42.721-24.326-65.526-34.071-15.919-6.8027-26.082-21.864-36.679-35.399-8.1954-10.468-7.0928-10.343-16.277-0.5883-9.0195 9.5794-18.032 19.171-26.815 28.965-4.7899 5.3418-9.0544 11.15-12.049 17.756-2.054 4.5314-3.5493 9.4905 0.2953 13.46 7.9723 8.23 5.1176 16.812 1.6559 25.527-0.871 2.1927-2.2792 4.1978-3.6031 6.1804-6.3522 9.5115-6.372 9.4982 2.2087 17.006 10.327 9.0365 11.824 20.183 0.8834 28.521-14.246 10.859-16.795 25.041-17.738 40.943-0.5648 9.5223-2.0574 19.006-3.457 28.459-2.2245 15.023-10.835 25.292-24.273 31.92-9.6425 4.7558-19.289 9.5303-28.692 14.734-4.4908 2.4852-8.5131 5.8683-12.561 9.0801-1.8868 1.4971-3.3759 3.6382-1.6902 6.2065 1.4724 2.2435 3.8686 2.7568 6.3362 2.3265 3.5706-0.6226 7.1826-1.7022 9.7503-4.2553 17.039-16.941 38.36-19.473 60.893-18.98 16.284 0.3563 14.877 1.7339 14.999-14.474 0.1074-14.356 0.1837-28.712 0.4014-43.066 0.1849-12.194 3.0215-23.49 10.074-33.828 7.7214-11.319 12.427-24.174 14.808-37.592 3.5015-19.729 12.977-35.783 27.806-48.892 6.2249-5.5024 11.146-14.247 19.113-15.531 8.0376-1.2955 15.164 5.9537 22.643 9.5194 13.677 6.521 26.825 14.022 39.74 21.982 22.86 14.088 37.39 34.118 44.664 59.825 5.7025 20.154 7.5828 40.673 7.3116 61.516-0.0621 4.7856-1.735 8.2938-5.2423 11.445-10.974 9.8607-21.7 19.998-32.678 29.856-8.1072 7.28-17.366 12.524-27.949 15.572-36.204 10.429-59.369 54.908-58.314 82.799 0.4603 12.177 2.7153 15.34 14.301 18.706 7.6974 2.2364 15.631 3.2827 23.563 3.8021 17.514 1.1471 35.064 1.4913 52.61 0.606 5.1409-0.2588 10.41-0.1617 15.781-4.1087zm344.1 310.7c5.0305 4.7363 10.917 4.7169 16.243 5.5533 34.132 5.3613 64.696 19.341 93.404 37.937 8.3856 5.4316 16.829 10.988 26.396 13.839 25.773 7.6788 37.965 27.752 46.726 50.688 3.5284 9.2367 3.0221 18.6-4.7225 26.664-5.6075 5.8389-5.1613 6.3157 1.0116 12.474 10.68 10.655 11.966 14.78 3.0106 26.483-23.236 30.362-50.067 55.913-90.592 60.878-12.4 1.5192-24.092 5.2943-34.615 12.278-10.173 6.7521-21.525 8.4257-33.252 6.4603-17.552-2.9417-33.78-9.4598-47.774-20.661-10.916-8.7378-19.842-18.697-17.303-34.386 0.8687-5.3671-2.1967-7.0388-7.0695-6.8074-3.2572 0.1549-6.3013 0.8597-9.131 2.4691-9.5966 5.4576-17.346 12.81-22.045 22.873-6.5193 13.961-0.7197 24.996 14.531 26.802 9.0212 1.0679 17.155 3.8948 24.359 9.0258 13.909 9.9067 29.384 15.838 45.919 19.371 8.2284 1.7588 16.219 4.1976 23.472 8.5566 6.4219 3.8596 10.997 9.0898 11.942 16.926 0.6787 5.6276 1.5985 12.452 8.5253 12.408 7.0425-0.045 7.6254-6.9989 8.2684-12.598 1.0714-9.327 6.4767-15.124 14.789-18.654 8.8905-3.7765 18.213-5.7534 27.807-6.4705 24.913-1.8623 47.468-9.566 66.778-25.984 13.687-11.636 27.135-23.501 38.935-37.076 26.125-30.056 28.969-70.313 7.2051-103.82-6.941-10.686-10.991-21.999-10.6-34.842 0.145-4.7723-0.0135-9.576-0.3921-14.337-0.5968-7.5015-4.4194-12.738-11.824-14.795-6.901-1.9178-13.865-3.6216-20.838-5.2643-24.23-5.7081-47.002-14.896-68.425-27.64-10.409-6.1921-16.158-14.936-17.863-26.756-1.1382-7.8915-2.1786-15.766-2.7288-23.738-0.5745-8.3259-1.8342-16.614-3.0845-24.875-0.259-1.7139-0.8479-4.1539-3.4431-4.2151-2.3262-0.0549-3.3462 1.7623-4.2137 3.5891-2.8235 5.9453-2.7487 12.375-3.161 18.733-1.3121 20.238-7.0856 27.163-26.927 32.511-8.839 2.3824-17.756 4.5416-26.445 7.3892-4.7543 1.5583-9.9645 3.0911-12.873 9.0162zm-835.69-238.05c-0.2596-5.1732 1e-4 -10.442-0.928-15.492-0.8922-4.8542-0.2929-12.211-5.929-13.202-5.9064-1.0391-7.6325 6.0854-9.4597 10.607-6.2454 15.455-16.237 28.286-27.27 40.423-13.678 15.046-27.378 30.077-41.367 44.831-4.4431 4.6856-6.2655 9.6131-6.1239 16.022 0.5197 23.524 0.4127 47.076-1.778 70.512-2.6174 28-1.8392 56.754-16.491 82.399-1.1586 2.0281-1.709 4.4878-2.1616 6.8204-2.1823 11.248-7.5225 20.929-14.552 29.78-4.7373 5.9645-9.522 12.122-11.584 19.409-3.7437 13.226-12.679 21.755-23.463 29.091-16.259 11.06-33.358 20.338-52.674 24.841-14.969 3.4897-27.002 11.529-36.694 23.218-2.7074 3.2651-7.0429 6.6827-4.809 11.376 2.1864 4.5931 7.6492 3.6093 11.86 3.8115 7.9784 0.3831 15.887-0.6998 23.767-2.0702 14.457-2.5145 26.267-10.474 39.03-17.048 26.593-13.699 49.566-31.743 71.394-51.709 4.9938-4.5679 10.567-8.4362 16.441-11.894 8.1447-4.7952 15.468-4.7656 22.964 1.6638 6.9769 5.9845 13.547 12.348 20.067 18.793 4.5441 4.4919 9.1719 8.9564 14.864 11.95 7.9358 4.1746 13.416 0.5707 12.983-8.3584-0.2647-5.4547-3.3134-9.7284-6.3247-13.948-8.1304-11.393-17.769-21.517-27.247-31.746-12.793-13.807-19.125-29.802-19.284-48.736-0.2548-30.322 0.7533-60.552 2.8684-90.808 1.4077-20.138 8.4385-37.015 22.914-50.945 3.4443-3.3145 6.6398-6.8885 9.9264-10.365 7.9406-8.4002 15.848-16.832 23.806-25.216 6.8264-7.1917 10.523-15.925 12.265-25.495 1.7125-9.4081 3.2913-18.863 2.9947-28.512zm269.1 67.542c8.2863 3.6534 15.777 3.8615 23.063 4.7659 19.854 2.4639 39.565 5.7372 57.347 15.465 13.914 7.6121 28.695 11.703 44.266 13.516 29.885 3.4791 58.822 10.431 86.031 23.608 15.075 7.3011 30.27 14.302 46.275 19.347 10.116 3.1882 17.51 9.4027 21.639 19.164 4.8923 11.566 12.527 21.237 20.542 30.673 15.244 17.95 31.739 34.726 48.506 51.229 7.0959 6.984 14.516 13.65 21.99 20.233 3.9512 3.4797 8.5001 5.3342 14.155 5.2234 12.897-0.2532 16.7 2.9977 20.222 15.337 3.0146 10.559 2.152 21.344 2.1725 32.089 0.0187 9.8716-2.1783 18.889-9.0836 26.456-3.8345 4.2021-6.1597 9.3323-6.5157 15.107-0.2346 3.8054 1.1228 6.4952 5.5988 5.1047 17.58-5.4614 26.293-11.595 28.666-29.342 2.1266-15.902 1.8903-31.816 1.4111-47.753-0.5527-18.376-7.4285-33.893-20.703-46.848-13.988-13.652-27.935-27.324-43.151-39.618-8.0741-6.5236-16.329-12.952-26.253-16.39-9.9796-3.4568-18.65-9.0039-26.763-15.486-9.0282-7.2136-18.156-14.376-26.561-22.283-29.293-27.554-65.405-43.625-100.92-60.747-23.494-4.2375-45.782-13.823-69.046-17.875-32.952-5.7385-66.681-5.2279-100.19-4.0236-3.7418 0.1342-7.7065 0.2413-12.699 3.0482zm-374.82-168.13c-6.4808 4.9772-9.3682 11.558-12.224 17.996-5.4981 12.397-14.002 21.095-27.38 24.629-10.649 2.8132-16.828 9.6003-19.145 20.549-3.3128 15.658-9.5145 30.386-16.047 44.932-7.3434 16.351-14.516 32.799-22.524 48.825-5.1549 10.316-5.0098 18.95 4.366 26.355 5.0497 3.9883 4.8207 8.1033 1.9385 13.441-5.6754 10.511-11.353 21.17-14.32 32.79-2.9901 11.711-9.4635 20.927-17.89 29.097-8.0116 7.7676-16.221 15.336-24.081 23.253-4.7736 4.8079-9.6289 9.9777-10.393 17.066-1.2119 11.242-8.2022 17.617-17.274 22.759-7.963 4.5134-16.14 8.6852-23.4 14.378-7.1938 5.6398-8.8704 12.862-6.5974 21.343 1.9141 7.1417 4.7304 8.5894 11.144 5.4454 2.8451-1.3948 5.476-3.2595 8.1039-5.0573 6.2496-4.2754 12.155-9.5471 19.379-11.686 11.424-3.3818 20.679-10.037 30.038-16.843 7.4256-5.3994 15.024-10.306 24.757-10.944 7.2684-0.4761 11.348-5.5807 12.914-12.293 1.4436-6.187 2.3226-12.525 3.1305-18.837 1.5814-12.355 3.8727-24.548 11.242-34.9 8.4167-11.823 11.634-25.098 12.787-39.228 1.4584-17.868 3.1398-35.719 4.862-53.564 1.3634-14.128 5.1391-27.324 14.639-38.463 3.0684-3.5979 6.2671-7.6822 7.563-12.086 4.6002-15.634 15.476-26.661 26.134-37.984 4.3675-4.6397 8.8738-9.2256 12.654-14.327 13.064-17.63 11.716-36.876 5.6234-56.648zm-102.34 582.04c12.532-0.1295 23.734-4.2198 34.352-9.8601 10.444-5.548 21.545-8.351 33.193-8.8044 41.796-1.6268 83.606-3.8434 125.4-0.2023 15.861 1.3817 32.008 2.3115 46.364 10.06 13.091 7.0656 25.776 7.076 38.782 0.4794 13.005-6.5962 26.041-6.2594 39.126-0.2515 1.8073 0.8298 3.6684 1.5422 5.4825 2.3579 5.0574 2.274 7.4219-0.1816 8.6066-4.8242 2.811-11.017-2.9993-19.941-14.421-21.404-9.4714-1.2133-19.001-2.1428-28.534-2.672-29.826-1.6548-59.654-3.3896-89.505-4.4336-16.627-0.5814-31.028-5.2104-43.306-16.891-8.35-7.9436-17.539-15.082-27.544-20.941-5.7184-3.3481-7.8098-2.7548-9.9297 3.3003-2.3587 6.7377-3.9933 13.754-5.574 20.732-1.9256 8.5011-6.9631 12.431-15.649 13.685-16.998 2.4541-34.152 2.4849-51.19 4.2172-10.124 1.0291-19.245 3.1881-27.653 9.5907-10.999 8.3754-24.472 8.0609-35.406-0.5525-7.8729-6.2023-16.682-9.2405-26.183-10.693-15.388-2.3517-30.588-5.2404-45.079-11.192-8.9737-3.6857-17.224-1.9056-24.54 4.2239-9.4088 7.8829-15.986 17.68-19.152 29.603-0.6032 2.2717-0.94 4.7242-0.8083 7.0602 0.3737 6.6294 3.446 8.6268 9.2997 5.6421 4.5803-2.3353 8.8441-5.3611 13.036-8.3752 14.442-10.384 30.277-13.295 47.628-9.806 11.446 2.302 22.059 6.7026 32.54 11.576 9.8252 4.5686 19.942 8.0011 30.66 8.3744zm29.132-773.95c-18.053 5.8705-33.555 19.376-40.214 37.685-5.9914 16.472-15.03 30.594-26.204 43.752-7.6628 9.0233-12.082 19.542-13.212 31.443-3.17 33.372-3.2809 66.813-2.2682 100.27 0.2684 8.8663 2.5519 10.947 10.255 11.511 10.365 0.7581 16.855-2.843 18.326-10.421 1.0607-5.4669 1.7153-11.011 2.6882-16.497 2.652-14.954 5.2099-30.097 16.032-41.753 6.2002-6.6782 10.333-14.265 12.159-22.904 3.765-17.812 15.307-26.736 32.508-28.205 28.507-2.4355 52.891-16.892 79.103-25.993 2.4591-0.8539 5.711-2.0165 5.1211-5.6088-0.442-2.6914-3.2368-3.478-5.4725-3.8628-24.713-4.2538-49.147-3.8837-72.951 5.0408-5.3096 1.9907-9.2886 6.0955-13.887 9.2212-11.339 7.7063-23.48 9.8345-36.15 3.7272-11.773-5.6753-14.523-22.741-0.8337-29.469 2.5001-1.2287 4.8691-2.7324 7.3978-3.8931 6.0699-2.7864 9.3593-7.351 8.9267-14.105-0.6627-10.344 4.1386-18.319 10.435-25.865 3.2354-3.8773 7.536-7.2224 8.2413-14.072zm168.99 389.99c5.702 5.1127 12.193 4.3278 18.729 2.4391 7.8502-2.2686 14.059-7.2706 20.19-12.457 13.029-11.021 28.129-14.335 44.759-11.437 11.169 1.9464 21.378 6.2923 30.772 12.564 10.138 6.7695 21.258 11.113 33.322 12.347 24.547 2.5115 44.833 12.902 61.433 31.122 11.993 13.163 11.649 10.284-1.3339 20.855-11.75 9.5675-23.8 18.797-34.158 29.931-2.3453 2.5212-5.9423 5.3708-4.3002 9.1174 2.069 4.7207 7.0451 4.7715 11.471 4.1124 7.5576-1.1257 14.615-3.8671 21.28-7.605 9.8214-5.5077 20.341-9.0288 31.332-11.389 31.502-6.7648 63.218-8.152 95.1-3.5774 12.224 1.754 25.361 3.1038 34.792 11.47 15.993 14.189 38.269 15.773 54.463 29.04 0.5834 0.478 1.468 0.5999 2.2239 0.8534 2.7576 0.924 5.8014 1.5155 7.7476-1.0092 2.5325-3.2852 0.2146-6.1177-2.139-8.3097-12.078-11.249-25.306-20.895-41.486-25.139-9.5104-2.4948-18.135-6.2773-25.275-12.866-9.9529-9.1846-21.735-12.696-34.943-13.214-11.947-0.4678-23.875-1.4814-35.801-2.3945-12.82-0.9816-25.3-2.9843-36.102-10.952-2.7972-2.0635-6.4128-3.6493-9.835-4.1157-10.461-1.4254-18.513-7.1448-26.038-13.753-13.481-11.839-26.717-23.956-40.069-35.943-9.5744-8.5959-19.803-16.25-32.459-19.61-22.821-6.0603-46.056-9.2838-69.705-9.2838-8.6473 0-16.538 2.5494-23.625 7.3509-4.9422 3.348-9.7446 6.9447-14.335 10.76-8.3405 6.9326-16.965 13.17-27.827 15.667-2.9218 0.6718-6.2907 1.2367-8.1823 5.4255zm463.64 214.45c2.6351 0 4.2375 0.1161 5.8182-0.02 6.8445-0.5897 7.9604-2.6241 3.8679-8.0598-13.281-17.64-29.94-28.218-53.169-25.466-12.084 1.4314-23.249 5.4255-33.894 10.92-12.958 6.6888-26.652 10.25-41.112 11.421-17.455 1.4142-34.897 2.9885-52.336 4.5936-10.769 0.9911-21.151 3.2999-30.868 8.4275-24.57 12.964-48.87 12.079-72.678-2.1405-6.5298-3.8997-13.14-7.8375-20.785-8.6396-9.9902-1.0482-18.093-5.5784-25.591-11.8-5.2138-4.3267-10.602-8.4352-17.087-10.781-7.5283-2.7233-14.973-2.7821-21.721 1.8298-6.3207 4.3201-9.9537 10.711-8.9815 18.367 0.9623 7.5767 7.931 7.8575 13.738 9.0946 1.5565 0.3315 3.0746 0.8915 4.6432 1.1104 17.577 2.4543 33.85 8.3192 49.172 17.389 9.6315 5.7015 20.389 8.6284 31.594 10.229 21.426 3.0604 42.938 3.2358 64.363 1.4797 22.635-1.8551 45.128-5.056 64.89-18.003 5.3544-3.5082 11.869-5.2308 18.244-4.9872 23.206 0.8867 45.051-4.0743 65.896-14.019 0.7097-0.3386 1.5313-0.4344 2.2806-0.6998 10.328-3.6553 20.173-3.3274 29.752 2.6772 7.5627 4.74 16.118 6.6664 23.963 7.0778zm-317.24-602.7c0.0065 0.1757 0.013 0.3512 0.0195 0.5268 5.957-0.4744 11.931-0.7952 17.867-1.4611 8.0214-0.8997 13.11-5.1377 14.481-13.394 1.5007-9.0355 3.1827-18.041 4.6702-27.078 1.4791-8.9855 0.9688-9.8387-7.9838-9.8477-17.94-0.0181-35.882 0.2584-53.821 0.5101-40.256 0.5648-80.539-0.0328-120.73 3.0661-10.753 0.829-21.44 1.9966-31.826 4.9619-11.966 3.4167-20.048 11.189-24.143 22.903-2.486 7.1115-2.9772 14.22 3.163 19.933 5.1357 4.7786 15.682 5.4095 22.516 1.2988 7.0012-4.2112 12.494-9.8885 14.891-17.995 3.2205-10.894 11.062-16.198 21.792-17.666 25.788-3.5284 51.683-2.9599 77.584-1.6643 1.1859 0.0594 2.3543 0.4117 3.5385 0.5705 12.863 1.7245 22.757 7.6505 26.881 20.5 3.6578 11.398 11.533 15.422 22.741 14.858 2.7817-0.1399 5.5763-0.0209 8.365-0.0209zm1153.5 662.34c1.4316-22.16-6.2964-40.921-21.531-57.25-15.775-16.908-31.761-33.499-50.1-47.67-7.9741-6.1619-16.616-10.95-26.661-12.714-2.7134-0.4768-5.5435-0.8405-8.2601-0.5945-2.7465 0.2485-5.7639 1.1425-6.2429 4.5111-0.3939 2.7686 1.8788 4.2861 3.9729 5.3751 5.6935 2.9602 11.775 4.6334 18.177 5.4169 15.017 1.8379 24.352 9.8083 26.756 24.393 1.6464 9.9873 6.1525 17.836 12.93 24.915 6.3834 6.6671 11.917 14.1 14.454 23.064 3.172 11.208 7.5168 21.892 13.78 31.604 3.7313 5.7854 2.7668 9.92-1.139 14.897-5.8865 7.5007-11.473 15.271-14.845 24.371-1.9674 5.3107-3.1958 10.693-2.2529 16.342 0.6476 3.8801 2.9027 5.6921 6.7855 3.8833 2.504-1.1661 4.998-2.5333 7.1509-4.2452 18.037-14.343 30.638-31.408 27.026-56.297zm-918.39-429.58c-17.688-3.0634-31.995 0.639-43.836 12.77-4.1899 4.2927-8.8276 8.8133-14.853 9.5316-19.373 2.3094-38.896 4.6949-56.548-7.28-8.2407-5.5905-16.825-10.581-26.494-13.455-4.6244-1.3743-9.2354-2.5223-14.075-1.8182-4.6172 0.6718-6.137 3.3866-4.319 7.6398 0.7652 1.7901 1.9369 3.5096 3.2702 4.9379 13.6 14.569 29.381 25.611 49.361 29.394 19.367 3.667 38.264 3.1059 54.591-9.6326 8.9409-6.976 18.356-12.264 29.37-15.207 9.2455-2.4706 17.757-6.7119 23.532-16.881zm648.28 600.2c-6.5569 0.3657-14.55 3.6639-21.912 8.7158-4.933 3.3855-9.8452 6.9407-15.889 7.9692-26.436 4.5-42.001 22.597-54.97 43.878-2.063 3.3848-3.2893 7.2463-3.189 11.378 0.0933 3.8425 1.0907 7.1913 5.1035 8.5581 3.3933 1.1556 6.2328-0.2301 8.6312-2.6294 4.0681-4.0691 6.3232-9.1305 7.7437-14.596 2.9907-11.508 10.549-18.426 21.732-21.653 5.3479-1.543 10.737-2.9532 16.14-4.2925 11.637-2.8845 22.984-6.5457 33.451-12.509 4.8578-2.7675 9.5406-5.8717 12.965-10.405 2.156-2.8539 4.4379-5.9386 2.7517-9.8157-1.921-4.4173-5.9558-4.769-12.559-4.5986zm-333.36 53.76c-2.4415-2.2755-5.2146-2.8043-7.9541-3.1813-25.333-3.4843-50.838-4.0626-76.354-4.3123-3.167-0.0311-6.3502 0.5693-9.5092 0.9995-3.1128 0.4238-6.9103 0.4315-7.3235 4.5635-0.3542 3.5411 2.4517 5.6218 5.1974 7.4028 4.2632 2.765 9.1454 2.7214 13.888 2.766 25.553 0.2396 50.984-1.5026 76.28-5.1478 1.9206-0.2766 4.0063-0.2904 5.7756-3.0904zm-548.79-787.18c18.398-6.9865 29.941-19.533 35.008-37.9 2.1128-7.6581-0.9414-12.144-7.7733-12.81-5.8018-0.5655-9.4468 2.2161-10.91 9.9269-2.045 10.776-6.2272 20.307-13.34 28.682-2.4532 2.8881-5.465 5.9751-2.9843 12.102zm587.3 10.081c0.09 1.2321 0.1165 2.8184 0.3367 4.3771 0.6909 4.8928 1.9624 9.5294 7.7979 10.452 5.892 0.9315 9.8698-2.0386 12.357-7.096 1.5616-3.1757 2.9526-6.4774 2.8329-10.166-0.2231-6.8715-6.0852-13.92-11.896-14.28-5.8817-0.3643-10.255 4.6229-11.206 12.819-0.1363 1.1739-0.1391 2.3632-0.2226 3.8934zm362.95 701.79c-0.127-3.4213-1.8837-4.9819-5.2496-3.5831-4.337 1.8022-6.9276 4.9731-6.0071 10.008 0.2717 1.4852 0.762 3.3793 2.6495 3.334 4.6992-0.113 6.2269-3.9304 7.9301-7.4011 0.3337-0.6798 0.4315-1.4752 0.6771-2.3575z"/>
	<path d="m2286.2 1182.9c5.303 3.1295 9.0808 3.7159 12.917 4.0862 37.781 3.646 75.659 3.2662 113.54 2.6681 8.208-0.1295 15.67-2.6469 22.418-7.2821 10.246-7.0386 21.195-12.634 33.015-16.564 7.6614-2.5474 14.674-6.4806 20.31-12.256 7.3472-7.5272 16.216-10.935 26.453-12.428 17.538-2.5594 34.947-2.7109 52.324 0.8058 6.6609 1.3478 13.208 3.2723 18.745 7.4366 5.793 4.3574 6.8323 8.2954 2.7844 14.346-4.4182 6.6042-9.6304 12.686-14.614 18.901-6.4819 8.0841-13.215 15.97-19.581 24.143-4.4346 5.6929-7.8093 12.01-9.3752 19.185-2.2075 10.116-8.7568 16.607-17.596 21.418-22.629 12.316-46.531 20.771-72.092 24.31-15.193 2.1033-29.536 5.6312-41.239 16.851-7.5093 7.1997-18.022 8.264-27.928 9.2339-18.138 1.7758-35.192 6.4849-50.81 16.102-9.4526 5.8206-20.108 7.5701-30.95 7.8666-31.092 0.8501-62.188 1.2549-93.297 0.5408-20.335-0.4669-38.057-7.0403-53.722-20.114-17.642-14.725-33.042-31.066-43.21-52.002-5.9648-12.283-14.865-22.656-23.81-32.836-15.526-17.672-31.444-35-47.025-52.625-7.3949-8.365-14.51-17.027-19.707-26.99-6.96-13.342-3.8542-19.836 10.759-23.252 8.2493-1.9287 16.653-1.3585 25.006-1.6313 5.5737-0.182 11.152-0.3489 16.715-0.7163 6.1052-0.4033 10.131-3.074 12.173-9.4343 4.9595-15.449 14.244-28.383 24.885-40.449 10.81-12.258 21.861-24.34 32.057-37.097 24.408-30.541 40.894-64.464 43.28-104.3 0.4968-8.2891 2.1128-16.593 5.4905-24.394 3.7454-8.6509 9.4036-14.69 19.433-15.4 6.1536-0.4361 11.607-2.8173 16.236-6.8372 3.0542-2.6527 2.1265-5.4643-1.4343-5.9715-15.521-2.2111-30.995-2.0052-46.113 2.8-2.2947 0.7293-4.1653 2.3955-5.1885 4.6987-0.968 2.1795-2.3169 4.3596-2.5959 6.6493-3.2146 26.397-14.649 50.351-22.087 75.488-5.9788 20.206-14.839 38.583-28.661 54.57-9.3987 10.871-19.061 21.478-29.565 31.283-7.8694 7.3466-16.001 14.063-26.582 17.759-9.4316 3.295-17.04 10.199-25.014 16.175-11.506 8.6241-23.361 16.632-36.638 22.398-23.111 10.036-45.51 10.773-66.963-4.3582-8.0637-5.6879-17.079-7.7463-26.97-8.2748-19.491-1.041-38.94-2.9677-58.383-4.7761-9.2174-0.8575-18.053-3.3727-25.825-8.6337-12.152-8.2253-25.796-12.322-40.023-14.919-3.9187-0.7152-7.803-1.7001-11.75-2.1669-17.312-2.0481-29.835-10.02-35.733-27.242-2.7281-7.9676-8.6992-12.317-17.039-15.183-30.679-10.54-48.36-33.654-58.366-63.457-0.9874-2.9412-1.401-6.3853-0.9689-9.4386 1.7581-12.418-2.0834-23.405-6.8931-34.6-7.0959-16.517-10.546-34.215-14.764-51.64-3.4655-14.315-8.0095-27.995-15.483-41.118-8.2454-14.478-7.0162-30.772-0.2284-46.12 2.1716-4.9102 6.2177-8.3964 11.771-9.248 13.235-2.0299 24.948-8.0735 36.883-13.586 8.6787-4.0083 17.44-7.7639 26.61-10.632 9.7921-3.0623 18.929-1.977 27.671 2.9111 6.256 3.4982 12.345 7.3112 18.378 11.187 7.1132 4.5694 14.553 8.3179 22.958 9.7189 6.4851 1.0808 11.907 4.3595 17.325 7.7537 6.4163 4.0198 12.601 8.5258 19.361 11.859 21.233 10.471 40.89 23.129 58.373 39.185 4.9028 4.5028 10.27 8.6979 16.924 10.841 2.6241-4.0366-0.3237-6.4274-2.0347-8.7451-7.8489-10.632-17.139-19.964-27.037-28.667-30.221-26.574-64.411-46.757-101.17-62.865-16.56-7.2571-34.26-6.6584-51.65-8.3199-5.1559-0.4927-10.37-0.4822-15.496-1.1629-9.796-1.3007-15.791-6.7858-17.702-16.696-2.6005-13.482-1.8887-27.008-0.6163-40.505 1.2085-12.82 4.8912-24.892 11.278-36.239 6.837-12.147 12.968-24.691 19.452-37.038 6.0392-11.5 15.266-17.129 28.535-18.466 20.31-2.0472 40.574-2.1597 60.911-2.0402 9.9307 0.0584 18.809 2.7413 26.983 8.2563 11.222 7.5718 22.262 15.226 36.218 17.59 7.0973 1.2023 12.573 6.6369 18.185 11.146 4.538 3.6465 8.8025 7.9359 15.056 8.4128 2.4183-3.8059-0.351-5.7417-2.0646-7.5754-18.533-19.831-37.781-38.856-59.915-54.802-20.168-14.53-43.53-18.989-67.285-22.617-6.2843-0.9597-12.563-2.1779-18.703-3.8115-10.569-2.8123-17.218-9.7014-19.373-20.525-1.3984-7.0234-2.557-14.098-3.666-21.175-2.0958-13.372-7.8987-24.925-16.526-35.269-9.2195-11.055-19.824-20.753-29.756-31.109-9.9052-10.328-20.284-20.221-24.368-34.836-1.5924-5.6973-6.3109-10.107-10.278-14.571-22.881-25.746-48.494-48.439-76.729-68.161-2.9323-2.0483-5.9313-4.2924-9.2469-5.448-11.008-3.8364-20.488-9.4971-29.267-17.507-8.1521-7.4388-19.858-7.5107-30.569-8.6206-35.383-3.6661-70.905-2.519-106.38-2.813-35.887-0.2974-71.779-0.2245-107.67 0.0583-7.6301 0.0602-13.62-1.9079-19.459-6.9828-20.16-17.521-41.125-34.124-60.03-53.064-6.2076-6.2191-12.033-12.755-16.716-20.248-7.3176-11.709-7.5227-23.505 0.5469-34.707 12.639-17.545 28.162-31.388 50.014-36.526 5.8276-1.3701 11.893-3.0362 16.231-7.26 12.008-11.692 27.228-14.537 42.814-15.883 18.679-1.6133 37.437-1.5031 56.183-0.6122 9.3716 0.4454 18.189 2.9318 26.199 7.5281 19.793 11.358 41.295 16.458 63.731 18.718 19.122 1.9257 37.696 6.3508 55.689 13.146 9.3472 3.5298 18.858 6.6106 28.828 7.5755 9.9279 0.9608 18.349 5.0233 25.982 11.106 9.355 7.4545 18.876 14.718 27.955 22.496 8.5074 7.2891 18.14 11.388 29.199 12.351 10.343 0.9005 20.703 1.077 31.071 0.5393 2.0172-0.1046 4.2543-0.4975 4.8369-2.7008 0.5443-2.058-0.7865-3.7932-2.39-5.1225-4.5624-3.7822-10.21-4.4604-15.73-4.9636-6.6068-0.6023-12.44-2.8106-17.487-6.9514-6.9298-5.6852-6.8535-9.7991-0.0262-15.314 6.1229-4.9457 13.402-6.7794 20.973-7.9364 18.557-2.8357 37.328-3.0863 55.986-4.6858 9.4808-0.8127 18.866-1.9856 28.368-4.4266-1.2802-4.393-4.3505-4.0798-6.8053-4.3171-9.1218-0.8817-18.253-1.9562-27.402-2.2174-38.662-1.1036-77.335-1.8437-116-2.9396-10.347-0.2933-20.75-0.8025-30.988-2.2177-19.389-2.6802-35.153-12.289-47.63-27.248-2.0074-2.407-3.6547-5.2966-4.7709-8.2287-2.7566-7.24-0.718-11.336 6.9191-13.354 10.047-2.6547 20.416-3.5077 30.742-4.3045 65.26-5.0354 130.64-5.6174 196.04-5.0335 29.519 0.2635 58.969 1.5497 88.348 4.5773 11.41 1.1759 21.695 4.1899 30.306 12.383 5.8458 5.5621 13.427 8.5247 21.167 10.709 10.442 2.9464 20.144 7.4423 29.322 13.202 10.238 6.4251 21.222 10.731 33.336 12.402 19.941 2.7504 37.058 11.477 51.882 25.144 11.134 10.265 22.684 20.087 34.25 29.869 8.9017 7.5292 18.748 13.424 30.257 16.31 8.4419 2.1174 14.819 7.4843 20.324 14.038 2.8146 3.3511 5.7278 6.6369 8.8176 9.7315 1.2939 1.2961 3.2163 2.9611 5.0981 1.1328 1.5371-1.4936 1.4211-3.9053 0.3955-5.6098-2.0435-3.3967-4.3105-6.7049-6.8398-9.7554-11.224-13.536-24.206-25.38-36.603-37.79-7.3204-7.3288-14.735-14.632-21.356-22.573-7.6626-9.1897-4.921-16.137 6.8451-18.708 11.95-2.6107 23.846-0.8207 35.621 1.2932 20.884 3.749 40.922 10.351 60.277 18.99 18.946 8.4574 38.164 16.014 58.36 21.126 18.388 4.6548 34.936 13.351 49.627 25.446 4.9253 4.0551 9.8289 8.1377 14.799 12.137 6.1899 4.9812 12.514 9.0178 20.648 11.202 9.0652 2.4347 17.38 7.8095 25.876 12.187 15.288 7.8778 30.682 15.197 48.229 16.669 8.9688 0.7525 16.771 5.084 23.979 10.16 30.294 21.335 55.695 47.606 77.131 77.72 6.1047 8.5762 10.192 18.028 8.6104 29.089-1.0261 7.1796 2.0999 13.329 5.8958 18.997 8.4109 12.56 12.977 26.547 14.692 41.31 2.1238 18.283 7.0203 35.073 20.202 48.705 3.3027 3.4154 5.9446 7.6314 7.0676 12.358 2.3777 10.007 7.6267 18.437 14.4 25.838 9.2849 10.146 13.134 21.27 9.9363 35.087-2.7227 11.762-0.1785 22.852 7.0908 32.841 10.162 13.964 14.399 30.058 15.809 47.003 0.4656 5.5929 1.2483 11.109 2.9143 16.446 1.0981 3.5178 3.5928 5.4039 7.342 3.7384 9.2439-4.106 17.649-9.3072 22.617-18.639 3.3799-6.3478 3.0828-12.314-2.1553-17.516-4.5232-4.4915-9.2441-8.7851-13.913-13.129-7.3254-6.8155-14.224-14.001-19.174-22.793-8.4236-14.965-6.7581-26.845 5.3706-38.928 2.8223-2.8118 5.9536-5.3497 8.53-8.366 7.5303-8.8158 6.8979-16.393-1.8665-23.753-2.1228-1.783-4.5083-3.3013-6.9197-4.6854-23.691-13.6-39.487-34.283-52.006-57.897-1.3015-2.4546-2.4202-5.0508-3.2627-7.6961-4.1394-12.993-0.2432-20.213 13.204-22.36 22.46-3.5861 43.765 0.2574 62.899 12.906 7.6841 5.0795 15.65 8.8625 24.207 12.373 21.414 8.7864 40.33 21.899 49.656 44.135 6.0103 14.331 14.731 26.324 24.774 37.717 8.4348 9.5687 17.347 18.728 24.901 29.051 4.5068 6.1578 8.2244 12.527 9.1963 20.433 0.947 7.7048 5.366 14.086 9.9509 20.16 6.3528 8.4161 11.478 17.173 11.201 28.287-0.1262 5.0741 2.8008 9.2877 6.5623 12.317 10.091 8.1273 15.73 18.68 18.877 31.04 1.7856 7.014 6.1497 12.855 10.296 18.763 20.032 28.542 18.636 58.92 7.2009 90-0.939 2.5524-2.606 5.0117-4.469 7.0185-7.252 7.8121-11.362 17.249-14.567 27.176-3.4463 10.675-7.4355 20.872-15.628 29.173-5.7874 5.8638-7.303 14.086-8.3655 22.019-1.7979 13.424-3.1794 26.904-4.762 40.358-0.9812 8.3381-2.3701 16.635-6.0178 24.255-4.3953 9.1821-10.972 11.765-20.661 8.5548-8.0583-2.6695-14.977-7.4082-21.713-12.401-13.473-9.9869-26.012-21.09-38.352-32.421-22.069-20.265-45.136-38.909-71.875-53.147-24.876-13.246-41.908-33.931-48.965-61.963-1.6843-6.6893-1.6799-13.405-1.8337-20.174-0.2151-9.474-0.2576-9.4573-9.0847-7.8025-2.3494 0.4404-4.728 0.7206-7.0842 1.1265-13.324 2.2945-13.73 2.5864-16.129 16.416-2.5188 14.52-4.5522 29.128-7.2705 43.609-2.3901 12.735-7.7891 24.179-16.216 34.188-7.1758 8.523-15.688 14.639-26.862 16.582-19.331 3.3616-33.157 14.692-44.013 30.366-5.4702 7.8981-9.8074 16.433-13.987 25.029-5.3213 10.944-13.158 18.768-24.978 22.512-3.7485 1.1875-7.4133 3.0485-10.681 5.2479-4.7593 3.2033-6.2688 8.0819-5.0703 13.662 1.1545 5.376 5.0674 7.8704 10.062 8.9611 5.1489 1.1245 10.629 1.529 15.396-0.3359 17.384-6.801 31.673-17.768 36.654-36.435 4.8345-18.118 13.886-32.434 30.88-40.249 28.84-13.261 54.883-30.367 79.007-51.026 16.078-13.769 21.032-12.89 37.52-0.0045 13.233 10.342 25.472 21.782 35.905 34.985 8.0771 10.221 7.7991 14.159-0.9897 23.868-6.5188 7.2015-14.077 13.056-23.494 15.895-8.5391 2.5745-16.114 6.9003-23.27 12-32.277 23.004-61.476 49.459-87.898 78.98-3.7129 4.1483-7.4106 8.4179-9.2683 13.819-1.3208 3.8409 0.5498 5.4617 4.177 4.6124 6.2783-1.4698 11.825-4.7053 17.267-8.0485 19.785-12.155 37.666-26.79 54.874-42.291 14.825-13.356 30.461-25.592 46.822-37.095 21.467-15.093 41.456-15.192 62.477 0.6609 14.702 11.088 28.971 22.433 40.961 36.498 9.022 10.584 14.788 22.446 16.828 36.343 1.9294 13.14 1.7961 26.259 0.7859 39.365-0.688 8.9255-4.7131 16.925-10.112 23.964-22.09 28.799-48.984 52.329-79.899 71.189-9.9568 6.0745-21.304 8.8165-32.842 10.441-10.711 1.5076-21.084 4.1288-30.906 8.8123-9.4436 4.5031-19.514 6.8497-29.851 8.1676-13.971 1.781-27.153 5.5011-39.289 13.196-14.54 9.219-31.383 11.303-48.061 12.907-21.421 2.0602-42.911 3.3989-64.37 5.0526-7.366 0.5676-14.688 1.3374-23.563 4.2676zm-291.88-899.85c15.158-0.338 30.316-0.2885 45.33 2.1668 4.7117 0.7706 9.4738 1.5575 14.02 2.9615 39.059 12.062 76.095 28.521 109.93 51.671 7.9939 5.47 16.311 9.9209 25.671 12.407 8.5398 2.2679 16.93 5.3298 23.938 10.599 24.007 18.049 46.726 37.332 58.622 66.244 2.0945 5.0904 5.3904 9.7701 8.6133 14.296 8.8105 12.373 18.906 23.702 29.728 34.322 17.643 17.314 35.408 34.514 53.471 51.387 5.114 4.7766 7.1819 9.7535 7.0791 16.689-0.301 20.33-0.3186 40.678 0.1875 61.003 0.3767 15.126 1.2898 30.269 3.7891 45.241 0.366 2.1921-0.2852 5.2468 2.6292 6.0814 3.3826 0.9684 4.897-1.9998 6.5283-4.1401 3.6885-4.8387 5.5649-10.539 7.2854-16.279 1.9895-6.6368 5.2976-12.46 10.536-17.061 6.8694-6.0336 11.432-6.7282 19.469-2.1763 6.2307 3.5289 12.309 7.4101 18.091 11.634 19.017 13.894 38.601 26.808 59.506 37.768 15.056 7.893 27.072 19.575 37.241 33.131 4.0996 5.4645 7.7356 11.333 8.5879 18.197 0.8003 6.4412 3.7463 11.296 8.7883 14.963 6.2388 4.5383 9.165 10.753 10.21 18.188 0.8943 6.3607 2.9102 12.442 5.9028 18.108 2.2202 4.2024 4.6672 9.3191 10.542 7.7785 5.729-1.5023 5.5225-7.2222 5.873-11.92 0.6013-8.0579-3.1245-14.65-7.7683-20.803-7.7124-10.22-14.991-20.552-17.579-33.577-0.7307-3.6758-3.4331-7.2238-5.9417-10.24-17.507-21.047-37.18-39.422-63.052-49.954-7.7966-3.1741-14.973-7.5068-21.694-12.53-27.131-20.279-49.576-44.904-67.658-73.513-4.2666-6.7502-8.292-13.761-10.486-21.426-4.7305-16.526-13.735-30.478-25.007-43.062-14.629-16.333-29.614-32.348-44.39-48.55-8.3301-9.1346-16.673-18.292-22.972-29.019-7.3904-12.587-4.4668-19.675 9.8418-23.837 3.4131-0.9928 7.0405-1.2384 10.56-1.8804 1.9458-0.355 3.9949-0.5342 5.7756-1.3051 2.303-0.9969 3.8145-2.8866 3.4392-5.6498-0.3181-2.3446-2.1611-3.355-4.136-3.6448-3.1396-0.4608-6.3479-0.7955-9.5112-0.6944-23.145 0.7399-42.861-7.4199-59.94-22.688-7.7539-6.9319-16.031-13.278-25.33-17.915-18.979-9.4642-36.642-20.996-53.956-33.128-15.176-10.634-31.538-18.454-49.761-22.514-13.253-2.9524-26.025-7.4512-37.525-15.054-7.4607-4.9326-15.998-7.1721-24.738-8.2991-10.668-1.3758-21.357-2.6563-32.159-2.6908-29.108-0.0929-58.223-0.7563-87.32-0.2581-10.727 0.1837-18.764-2.6275-26.605-10.125-19.877-19.006-40.24-37.536-61.755-54.726-8.1053-6.4757-16.493-12.535-25.489-17.758-9.965-5.7866-19.615-5.9169-29.098 0.929-9.3718 6.7662-18.825 13.425-28.059 20.375-11.659 8.7756-24.16 15.164-38.945 16.983-8.2518 1.0153-16.554 2.5763-24.321 5.9221-9.1127 3.9249-11.433 8.0429-10.061 17.748 1.5758 11.146 5.7723 13.513 14.941 7.2672 10.167-6.9255 21.353-11.044 33.2-12.718 19.016-2.6865 36.243-9.2488 51.505-20.788 5.0605-3.8262 9.525-4.4668 15.225-1.1308 11.367 6.653 23.214 12.229 36.409 14.662 3.7178 0.6854 7.3256 3.1776 10.48 5.5192 30.892 22.93 55.698 50.154 62.522 89.863 0.4045 2.3532 1.114 4.6523 1.5912 6.9949 1.6899 8.2983 6.2935 13.215 15.021 14.645 10.598 1.7365 21.081 4.1934 31.593 6.4383 10.305 2.2008 16.597 8.6234 19.959 18.536 4.9034 14.455 7.0457 29.403 8.8422 44.455 1.3474 11.288-1.6877 20.967-8.6924 30.068-11.701 15.203-24.721 29.209-37.451 43.493-9.8176 11.015-19.447 22.156-27.398 34.682-5.3103 8.3652-5.433 16.042 0.2137 24.364 21.133 31.144 45.266 59.698 72.759 85.397 2.3119 2.1609 4.9802 3.9915 7.6686 5.6801 1.692 1.063 3.8662 1.5267 5.548-0.0515 1.9269-1.8082 0.4824-3.6848-0.5009-5.3173-3.5365-5.8717-8.6694-10.383-13.292-15.326-4.9065-5.2469-10.996-10.22-12.454-17.282-3.832-18.559-15.641-31.959-27.439-45.476-5.5031-6.3046-11.373-12.293-17.16-18.343-2.5692-2.686-3.2676-5.2426-0.675-8.3618 16.624-20.002 34.276-38.933 56.386-53.064 9.4362-6.0307 19.51-6.4824 29.65-1.6781 3.9508 1.872 7.8134 3.9897 11.516 6.3148 8.8119 5.5339 17.695 10.665 28.266 12.304 5.5676 0.8633 10.398 3.9323 14.988 7.1781 12.805 9.0557 23.843 19.929 33.139 32.545 3.5527 4.8215 6.7751 9.8688 8.2556 15.798 5.1165 20.492 19.644 32.338 38.101 39.634 10.797 4.2677 21.422 8.5844 31.181 14.878 9.8997 6.3848 20.704 9.8658 32.413 11.331 9.4617 1.1843 19.068 1.5249 28.332 4.2795 9.1316 2.7152 14.074 8.6808 14.821 18.049 0.4114 5.1606 0.249 10.365 0.5815 15.534 0.7285 11.318 2.4219 22.816 10.827 30.933 10.275 9.9231 16.428 21.206 17.916 35.355 0.5737 5.4568 3.3853 10.242 9.3389 11.064 22.701 3.1362 45.295 1.2003 67.77-2.406 3.8643-0.6201 3.8022-3.6912 1.6401-6.3035-2.0195-2.4404-4.2998-4.726-6.7417-6.7457-10.832-8.9594-22.621-16.466-36.017-20.863-11.962-3.9261-19.297-11.291-23.092-23.523-5.0999-16.438-13.992-31.174-23.002-45.821-7.5059-12.201-17.577-20.193-31.444-23.856-13.475-3.5588-26.865-7.4763-40.178-11.605-14.5-4.4965-28.605-10.021-41.11-18.886-7.6248-5.4058-14.154-11.605-15.548-21.648-0.7312-5.2676-3.843-9.5581-7.0925-13.648-5.9692-7.513-12.758-14.25-19.688-20.861-16.541-15.781-35.102-28.797-54.78-40.319-16.282-9.5337-28.831-22.446-36.257-40.068-2.9431-6.9836-6.119-14.07-11.305-19.614-8.6998-9.2993-13.605-20.399-17.745-32.159-8.1946-23.275-23.937-39.112-47.583-46.775-5.725-1.8553-11.226-4.1164-15.888-8.0527-8.4736-7.1561-11.4-16.18-8.4705-26.822 3.0253-10.989 10.797-17.392 22.585-18.018 9.9383-0.5278 19.927-0.1088 29.894-0.1088zm-95.621 674.4c0.0568 7.5515 4.051 10.897 11.579 9.5298 4.3906-0.7972 8.1735-3.0824 11.885-5.4199 3.7058-2.3342 7.2177-5.0014 11.032-7.1342 15.002-8.3887 24.764-4.5384 30.196 11.964 1.3617 4.1367 2.3068 8.4617 2.9492 12.774 1.6423 11.022 2.9448 22.094 4.5149 33.127 0.5449 3.8292 0.6216 9.1349 5.8236 8.7742 4.4688-0.3098 5.5662-5.0629 5.9304-9.2366 0.5538-6.3456 1.4468-12.682 1.6204-19.037 0.9913-36.243 1.9869-72.487 2.6154-108.74 0.311-17.939 1.5736-35.819 2.2311-53.728 0.3713-10.114 4.6385-16.017 13.897-19.846 23.224-9.6038 46.661-18.378 71.445-23.101 12.173-2.3198 24.034-5.6363 35.006-11.605 12.171-6.6208 22.678-15.22 28.503-28.001 6.5825-14.442 10.597-30.062 20.164-43.131 0.8552-1.1683 1.4702-2.9802-0.1343-4.2675-1.3838-1.1099-3.0977-0.8865-4.4927-0.1677-2.1006 1.0823-4.3855 2.1671-5.9653 3.8419-10.251 10.868-19.168 22.94-21.191 37.982-1.7896 13.306-9.106 19.48-21.118 22.399-11.692 2.8414-23.692 3.0045-35.538 4.4294-9.5012 1.1429-17.644 4.3298-24.555 10.964-2.8569 2.7423-5.9447 5.3802-9.3142 7.4302-18.68 11.365-37.417 3.2505-41.384-17.981-1.6074-8.6028-2.4612-17.321-2.9995-26.095-0.975-15.89-1.5582-31.83-4.1611-47.588-0.5221-3.1603-0.8768-6.3613-2.7836-9.0452-2.2611-3.1824-4.6555-3.0642-6.0829 0.5414-1.9159 4.8387-2.4061 10.019-2.8584 15.205-2.8383 32.561-3.8234 65.208-4.9451 97.856-0.9026 26.268-2.2179 52.512-4.3867 78.73-2.333 28.204-16.736 46.43-42.84 56.15-5.2041 1.9375-10.692 3.2759-15.266 6.6708-5.3143 3.9447-9.4029 8.6247-9.3732 15.752zm751.85-179.61c7.7661-4.2495 8.9751-12.042 10.58-19.082 4.6294-20.301 5.9929-40.966 4.5483-61.718-1.1104-15.962-3.1567-31.844-13.789-44.919-7.5933-9.3381-13.306-19.779-18.773-30.422-17.644-34.35-43.391-61.676-74.043-84.641-2.5928-1.9426-5.0239-5.2722-9.9658-3.8286 1.4751 6.5859 5.8372 11.242 9.6995 16.026 14.769 18.293 28.669 37.189 41.638 56.816 9.9238 15.019 21.7 28.614 36.33 39.278 6.8323 4.9806 9.1372 10.782 8.9963 19.158-0.5632 33.443-0.5144 66.901 2.2327 100.28 0.3448 4.1895-0.8283 8.754 2.5459 13.055zm-532.45 355.24c-0.0371 0.4868-0.0742 0.9734-0.1113 1.4602 4.6384 0.5553 9.2659 1.462 13.917 1.6096 34.62 1.0984 69.248 1.5184 103.85-0.5431 8.6956-0.5182 17.862 0.4133 25.844-3.6626 15.684-8.0095 32.705-9.7557 49.694-11.404 20.003-1.9409 39.223-6.2137 57.32-15.207 9.9836-4.9613 20.246-9.3181 31.391-11.086 2.3384-0.3708 5.0859-0.5383 5.2754-3.6449 0.1636-2.6812-1.9788-4.218-4.0256-5.4757-4.4753-2.7489-9.3889-4.2629-14.601-4.8453-11.433-1.2772-22.682 0.0292-32.032 6.7711-15.162 10.933-32.416 14.648-50.293 16.964-13.596 1.7612-26.403 5.6775-37.962 13.284-7.8079 5.1381-16.538 7.646-25.769 8.6727-25.332 2.8169-50.75 4.2281-76.218 5.0405-15.432 0.4924-30.852 1.3651-46.278 2.067zm164.49-384.25c-0.491-1.5432-1.3506-2.7318-2.8032-3.5958-4.1565-2.472-8.3181-1.8351-12.593-0.377-16.113 5.4967-29.586 14.968-41.184 27.263-1.0779 1.1423-1.98 2.4859-2.7842 3.8426-1.2654 2.1349-1.9856 4.5461-0.2612 6.6434 1.6052 1.9525 4.0173 2.558 6.4744 1.7859 1.875-0.5891 4.0298-1.1209 5.3875-2.3951 12.804-12.018 26.547-22.452 43.648-27.726 2.3107-0.7127 3.713-2.8839 4.1154-5.4407z"/>
</svg>
