<?xml version="1.0" encoding="utf-8"?>
<svg xmlns="http://www.w3.org/2000/svg" xmlns:xlink="http://www.w3.org/1999/xlink" version= "1.1" width="1012px" height="1013px" viewBox="-146 207 1012 1013">
<g id="layer1">
<g style="fill:rgb(255,255,255); fill-opacity:1.0; stroke-linejoin: miter">
<path d="M-146.001,205.81519C-146.31497,205.81519,-146.61607,205.93993,-146.83807,206.16193C-147.06007,206.38393,-147.18481,206.68503,-147.18481,206.999L-147.1838,1220.0C-147.1838,1220.6538,-146.6538,1221.1838,-146.0,1221.1838L866.001,1221.1848C866.31494,1221.1848,866.6161,1221.06,866.8381,1220.838C867.06006,1220.616,867.18475,1220.315,867.18475,1220.001L867.1838,207.0C867.1838,206.3462,866.6538,205.8162,866.0,205.8162L-146.001,205.81519 Z"/>
</g>
<g>
<g style="fill:rgb(0,0,0); fill-opacity:1.0; stroke-linejoin: miter">
<path d="M213.48972,394.7613C205.36499,396.78268,194.04742,399.6883,188.35686,401.2203C182.66643,402.75214,172.06007,405.61066,164.80467,407.55322C151.66922,411.07492,151.606,411.0908,151.6375,411.48605C151.6533,411.7073,151.81117,412.4659,152.0007,413.16147L152.34814,414.44177L154.05511,414.44223C156.90025,414.4428,159.49225,415.13873,161.46767,416.4512C162.58975,417.1785,164.43858,419.04404,165.197,420.19797C165.98708,421.38367,166.1923,422.47443,166.31793,426.14136C166.44351,429.96643,166.74367,430.70947,168.37157,431.12067L169.08278,431.2947L167.5177,432.59048C165.74718,434.02838,163.47058,436.22495,162.39548,437.52084L161.66829,438.374L153.35516,434.68927C145.4372,431.16302,144.99469,430.989,143.88826,430.9097C142.76611,430.84604,142.70287,430.8619,142.18117,431.32016L141.6436,431.79425L141.64316,433.91232C141.62692,435.88794,141.61107,436.06183,141.19997,436.83627C140.82045,437.57913,140.7255,438.06897,140.37698,441.46716C140.02852,444.75482,139.99677,445.41852,140.15465,446.25632C140.26517,446.79373,140.35965,448.34277,140.37512,449.68625C140.40623,451.99396,140.46938,452.38922,141.3062,456.40405L142.20618,460.6717L143.02779,461.96808C143.47021,462.6952,143.94424,463.2802,144.0549,463.2802C144.18134,463.2802,146.75781,462.71185,149.80856,462.00122C152.84334,461.30627,155.3725,460.76953,155.41985,460.81702C155.46727,460.86432,155.24573,461.89166,154.92943,463.0771C150.05702,481.39508,149.16614,507.12695,152.28867,538.6763C152.46211,540.36755,152.66695,543.3232,152.76135,545.2357C152.99733,550.2937,153.54715,565.2779,153.54692,566.4792L153.5467,567.5223L152.17183,566.16266C149.50122,563.56995,145.37675,559.8388,142.89569,557.79926C141.97911,557.0561,141.22058,556.2025,140.06711,554.6374C138.3922,552.39264,135.67433,548.9306,133.88875,546.81226C133.30411,546.1165,132.64046,545.1839,132.41928,544.7571C131.92953,543.77686,131.6135,543.4135,131.26572,543.4134C131.10768,543.4134,130.39658,542.74927,129.68549,541.94293C124.13902,535.74585,117.78639,529.70654,109.77428,523.0189C106.61371,520.3785,102.94752,516.9006,102.12593,515.74646C101.778275,515.2723,101.33597,514.1972,100.78312,512.47424C100.19872,510.6407,99.8196,509.72382,99.44033,509.23383C98.93471,508.5699,98.90309,508.55402,98.06541,508.60138C97.06958,508.64862,90.06725,510.00604,87.12723,510.71667C85.941696,511.00104,85.05648,511.3011,85.00905,511.42743C84.85092,511.8069,85.34052,513.46674,92.06886,535.65967C93.72723,541.1289,102.71415,570.8618,109.72676,594.1455C116.51825,616.6386,117.24472,619.1045,118.824036,624.811C122.2827,637.4406,124.49333,647.3356,127.824326,665.276C129.19778,672.6419,129.56085,674.98145,130.42857,681.9519C132.25876,696.63605,132.9367,704.2547,133.28227,714.1175C133.5178,720.8352,133.79005,775.60266,133.69087,794.8859C133.57547,816.09735,133.41676,818.9107,132.32579,820.63336C131.63007,821.7239,131.36116,822.6089,131.36087,823.8733C131.36058,825.20105,130.91762,827.08185,129.73131,830.9225C128.07048,836.23285,127.62729,839.03046,127.76857,843.4087C127.87842,846.82275,128.09947,847.945,130.0579,854.4733C133.37471,865.6172,142.0769,896.12445,143.19812,900.55054C144.4299,905.3874,144.66632,908.2008,144.44351,915.17114C144.15694,924.2753,143.84035,926.2352,141.89517,931.2768C140.77231,934.18494,139.98134,936.99817,139.52238,939.66943C138.96843,942.95685,139.10959,948.04663,139.80461,949.8643C139.8836,950.0698,135.2367,950.1003,98.94633,950.0921L57.993217,950.0828L57.986206,981.2997L57.979195,1012.51636L44.702248,1012.5133L31.42529,1012.5104L31.416222,1052.9734L31.40717,1093.4368L372.7356,1093.5135L714.0641,1093.5903L714.0731,1053.1271L714.08215,1012.66406L671.37463,1012.63855C647.87134,1012.6173,628.6039,1012.61304,628.54065,1012.62866C628.01904,1012.70776,629.6964,1004.1096,631.49976,997.47156C635.42285,982.9785,641.3063,967.09485,647.6157,953.8826C650.7943,947.2449,653.21375,941.3499,653.78345,938.9158C653.9258,938.29956,654.17883,937.20886,654.353,936.4818C655.0016,933.7475,657.0255,930.318,660.7726,925.64044C663.11255,922.71686,665.23096,920.45715,665.879,920.18854C666.6062,919.8883,667.19104,920.0465,667.5702,920.6315C668.02844,921.29535,668.2178,922.5915,668.4066,926.1163C668.5327,928.4398,668.6273,929.19855,668.94324,930.1943C669.51184,931.9804,670.12805,932.5338,670.4918,931.6015C670.5868,931.3644,670.9347,930.11584,671.28284,928.81964C672.1371,925.64294,672.75366,924.4576,673.57556,924.4579C674.1763,924.458,674.47644,924.948,675.18713,927.0977C676.4193,930.7651,678.66284,934.89087,679.40576,934.891C680.03784,934.8912,680.76526,933.0736,681.9518,928.5217C683.6603,921.9785,684.4669,919.9871,686.79114,916.5578C688.13513,914.5508,690.17444,912.2278,690.74365,912.03827C691.2179,911.8961,692.22925,912.9554,693.76184,915.2159C695.6421,917.99817,696.6377,918.88354,697.15955,918.2514C697.49133,917.8563,697.6655,916.5918,697.82434,913.55725C698.04675,908.8154,698.4579,907.5985,702.7273,899.01685C705.8899,892.6319,707.99304,888.09595,708.5941,886.38904L709.08435,884.9508L709.90625,885.7098C710.3645,886.1208,711.834,887.4804,713.20886,888.7294C715.91125,891.22736,717.776,892.65045,719.24585,893.3461C720.3047,893.8521,721.3794,893.9471,721.69543,893.56805C721.9801,893.2204,721.82227,891.8925,721.09607,888.826C719.97485,884.06824,719.88025,883.37274,719.897,879.3423C719.8978,875.40656,720.10376,873.3044,721.1643,865.9866C722.0668,859.74335,722.68384,857.1829,723.5375,856.2663C723.9011,855.8713,724.0276,855.8397,724.723,855.90326C725.3867,855.96655,725.7977,856.1722,727.04614,857.0258C729.5906,858.7651,732.9254,860.0935,734.3795,859.9516C734.88525,859.9043,734.901,859.8885,734.8855,859.1773C734.854,858.3552,733.9851,856.17395,732.3264,852.6804C731.1572,850.24603,730.5886,848.66534,730.0834,846.38916C729.29395,842.8644,728.97876,837.55334,729.28015,833.11206C729.5499,829.17645,729.78723,827.4537,730.9741,820.94196C731.5123,818.00214,731.6395,814.3984,731.29236,811.85345C730.12463,803.39716,728.4031,796.88477,726.0492,792.09503C723.96375,787.8427,721.94116,785.266,716.916,780.4125L713.5027,777.1083L713.5034,773.6942C713.50464,768.8417,713.25244,765.47516,712.5582,760.2905C712.069,756.7342,712.16394,755.6593,713.0493,754.64813C713.30225,754.3478,713.79236,754.0002,714.14014,753.858C715.12024,753.46313,717.6333,753.2423,719.7196,753.35345C724.2086,753.60724,727.21155,754.5562,730.8463,756.8965C732.7744,758.12964,734.2283,758.77814,736.2671,759.28436C740.5819,760.3443,745.0708,760.47186,747.83704,759.6189C749.60754,759.06616,750.3823,757.94403,752.28,752.9815C754.1621,748.0661,754.82654,745.2529,754.82715,742.1549C754.82764,740.0369,754.79614,739.83136,753.83276,736.3697L753.37476,734.67834L756.90015,731.43896C760.91565,727.7414,762.3069,726.19257,763.06604,724.6122C764.1572,722.3522,764.1417,720.5345,762.98914,715.3658C762.1837,711.8092,762.1682,710.6395,762.83276,708.1739C763.60767,705.3291,763.4503,703.0848,762.2969,700.587C760.7803,697.3149,757.9044,694.5482,753.9059,692.5557C751.0768,691.1485,741.199,687.82697,738.7174,687.4471C737.8165,687.3204,735.2877,686.2925,731.7792,684.6478C725.7738,681.83307,724.74646,680.96356,724.7471,678.7508C724.74756,676.64844,723.9575,674.92554,722.2035,673.17065C720.402,671.3683,719.12195,670.5302,709.97156,665.13824C704.6931,662.02344,701.67456,659.84155,701.10583,658.73505C700.7582,658.07104,700.8373,657.66003,701.5963,656.0798C703.1144,652.99786,703.33606,651.36975,702.56213,649.0621C701.3616,645.47375,699.1653,642.7863,695.40405,640.27246C690.489,636.9837,684.6256,634.8486,675.60095,633.07635C670.401,632.0477,667.7457,631.41486,664.2844,630.4026C658.64197,628.7573,659.02136,628.82086,655.21216,628.82C649.7908,628.80286,644.74866,629.2286,639.6587,630.15985C636.5449,630.7282,632.4983,632.2289,627.9142,634.4722C623.21924,636.7788,619.7416,638.9277,616.0106,641.8352C612.2799,644.72687,610.0194,646.1015,607.47437,646.9702C602.4794,648.7077,595.87134,653.3531,593.08875,657.0668C592.17175,658.3154,590.63794,661.0496,589.0408,664.35266C587.6809,667.1974,587.07996,668.5407,584.3915,674.94147C582.6519,679.1139,580.13763,684.0446,578.55646,686.41534C576.6591,689.25977,574.9516,691.12463,572.29584,693.22626C570.99945,694.2532,569.8454,695.4543,569.8453,695.80194C569.84515,696.38684,571.31525,695.8656,574.0501,694.33295C576.1999,693.1322,577.6541,692.6267,578.19147,692.8798C578.5075,693.0221,578.555,693.11694,578.46,693.4804C578.17535,694.6658,576.6734,696.43585,574.98175,697.5733C572.75287,699.0745,569.5914,700.3065,567.88446,700.3062C565.08673,700.3372,564.58075,701.12726,566.3033,702.8033C567.26715,703.7202,567.6938,704.5264,567.5356,705.1111C567.42487,705.601,567.6618,706.04364,568.5151,706.9764C568.89435,707.38763,569.2104,707.8619,569.21027,708.0198C569.21027,708.1938,568.9572,708.82574,568.64105,709.4105C566.66437,713.1562,566.01605,714.56274,565.3676,716.5225C564.1181,720.3473,563.311,724.61475,562.09186,733.89246C560.5086,745.8729,559.1479,751.78406,556.9975,755.98804C556.31744,757.2997,555.9063,757.8528,554.4045,759.43304C553.42426,760.4603,552.5074,761.50323,552.3809,761.75604C552.1595,762.19867,552.1595,762.24603,552.45966,762.51483C552.72833,762.75195,553.0129,762.8153,553.9296,762.78375C555.81036,762.7526,558.1025,762.0419,560.8372,760.68317C562.3863,759.89325,563.9196,759.372,564.31476,759.49854C565.05756,759.7358,565.0098,761.31635,564.1872,764.1613C562.6213,769.6455,558.7952,773.64355,549.0417,780.05835C542.8448,784.11914,539.1774,785.8411,532.60175,787.78375L529.6933,788.6368L527.0379,788.3201C493.8622,784.3926,456.12076,771.0915,386.9614,738.94244C381.08215,736.22253,366.40002,729.29626,362.06967,727.20886C360.67896,726.5447,358.29248,725.40607,356.7753,724.6789C355.25812,723.9672,350.81714,721.83246,346.89767,719.9347C340.1335,716.66156,339.73843,716.45593,338.7271,715.49164C338.14243,714.93835,337.0994,714.10034,336.40402,713.6102L335.15558,712.7248L335.0452,711.6658C334.9033,710.11676,334.52432,708.15674,334.16107,706.9396C332.6607,702.0394,327.61963,697.3598,321.07657,694.8135C318.8639,693.94366,318.01044,693.76953,316.0663,693.7535C313.90085,693.75287,312.17795,693.9896,304.62247,695.3473C303.105,695.6314,298.99536,696.3259,295.5021,696.91L289.13205,697.9675L288.91098,697.3194C288.80035,696.9717,286.05188,689.4,282.81363,680.4848L276.9374,664.2824L277.03275,662.62274C277.08026,661.706,277.27054,659.03485,277.44495,656.6957C278.25348,645.71045,278.52368,638.8192,278.71664,624.4517L278.87735,612.77124L280.58475,611.0173C281.51746,610.06903,282.65576,608.85223,283.0985,608.3466C283.7941,607.5406,283.9522,607.42993,284.2999,607.5249C284.52118,607.5722,284.7424,607.7622,284.8056,607.9202C284.85303,608.0781,285.18478,608.66315,285.53235,609.20044C286.13278,610.1333,286.1802,610.1649,286.6702,610.0702C287.68182,609.84924,288.83582,609.3277,289.3101,608.8854C289.76855,608.4587,289.81598,608.3323,289.75293,607.6369L289.70566,606.86224L290.46414,607.70013L291.20685,608.55396L292.34494,608.04834C292.97723,607.764,293.76764,607.29,294.09964,606.95807C294.65308,606.4366,294.74786,606.405,295.1746,606.54736C295.44327,606.6422,295.93326,606.6741,296.28098,606.6267C296.9764,606.53186,298.39917,605.6946,298.65216,605.22034C298.7786,604.9675,298.4154,604.035,296.6618,600.162C295.47693,597.5539,294.54483,595.38824,294.57648,595.34076C294.6238,595.30927,295.60397,595.0249,296.7578,594.725C297.92752,594.40894,298.90753,594.1247,298.9392,594.0931C299.09726,593.9508,297.4072,588.62396,296.15933,585.336C292.54187,575.75684,288.24423,569.08563,281.19638,562.00323C277.00876,557.81366,274.13263,555.5369,269.72333,552.91223L267.09982,551.3627L265.45685,547.99567C264.5563,546.14606,263.51355,544.15436,263.1343,543.56946C261.30148,540.7556,258.9481,533.42114,255.64764,520.15924C254.85806,516.9663,254.22638,514.3266,254.258,514.295C254.28961,514.2791,256.34448,513.7422,258.82614,513.1263C264.1214,511.79968,267.23544,510.88367,268.54742,510.26764C271.55087,508.86163,273.51138,506.26996,273.65417,503.5354L273.71774,502.271L271.8693,498.49286C270.38422,495.45795,270.03668,494.62006,270.1158,494.25653C270.22653,493.735,270.89066,492.67627,271.91827,491.47528C272.75623,490.4795,272.96198,489.48383,272.53537,488.64594C272.093,487.8239,270.59158,487.33368,268.42615,487.33313L267.3039,487.3329L268.4895,486.52704C270.67102,485.026,272.26797,483.16132,272.2682,482.08643C272.26825,481.88092,272.15768,481.32782,272.01556,480.86945C271.8102,480.15808,271.69962,480.0,271.19382,479.81012C269.89786,479.28833,268.94965,478.735,268.44403,478.21307C267.98578,477.73883,267.92258,477.56506,267.92267,476.85382C267.9229,475.88965,268.3498,475.13104,270.04144,473.04498C271.0376,471.81238,271.05344,471.7807,271.1327,470.67444L271.19614,469.55206L263.64188,465.28284C258.94806,462.62634,256.05597,460.9029,256.0244,460.74475C255.99283,460.58673,256.32492,460.0495,256.7676,459.51227C257.76358,458.32697,258.23804,457.50525,258.75992,456.146C259.266,454.77094,259.26605,454.66034,258.69675,455.6402C257.85876,457.10986,257.4478,457.1571,257.29,455.78198L257.2112,455.02332L256.45212,456.63538C256.04095,457.52045,255.62991,458.24738,255.55087,458.2473C255.47183,458.2473,254.88739,456.72992,254.2555,454.8806C253.60782,453.04688,252.69168,450.45447,252.202,449.15823L251.3017,446.78708L251.99728,446.01276C252.64545,445.28577,252.81934,444.9065,252.55075,444.7801C252.48755,444.74835,251.52362,443.3098,250.41763,441.5868L248.39526,438.42517L249.56516,437.24008C250.21335,436.57635,250.988,435.67538,251.28839,435.24887C252.71136,433.24188,254.13467,429.55945,254.75192,426.31927C254.9418,425.32346,255.11581,424.4227,255.13165,424.32785C255.16327,424.24893,255.95377,423.67996,256.88644,423.0954C260.2219,421.00964,262.90936,418.7817,263.51025,417.64386C264.0005,416.67978,265.70764,416.42715,267.27225,417.05975C268.39438,417.51846,268.4734,417.42368,268.07858,416.01685C267.4468,413.70905,266.51465,412.3021,265.12387,411.6063C264.55493,411.30594,264.2862,411.27435,263.03745,411.35294C262.2631,411.40018,261.06177,411.5579,260.39795,411.7159L259.16504,411.98416L257.61618,411.25687C255.60895,410.30804,254.85031,410.14978,253.08002,410.27576C248.73343,410.59122,245.39813,411.6177,243.62753,413.19785C242.2363,414.43057,241.9042,415.37866,241.23941,419.8358C240.49533,424.783,240.60605,424.40372,239.92639,424.6722C239.15176,425.004,238.50375,424.8615,237.22372,424.07095C235.54846,423.0432,231.8819,421.31964,230.08017,420.7184C227.83586,419.9751,226.25537,419.67444,224.59575,419.67395L223.20486,419.67374L223.78976,419.1997C224.51695,418.59918,225.02303,417.55612,225.0232,416.67102C225.02336,416.07037,224.72308,415.45395,222.82716,412.10254C221.62653,409.96863,220.55205,407.92905,220.45728,407.5814C220.07826,406.17468,220.44234,403.7248,221.34373,401.68628C222.6089,398.80975,225.16995,396.32886,228.5212,394.7647L229.72256,394.1961L229.31195,392.63126C228.9645,391.28754,228.85394,391.06628,228.58527,391.082C228.41136,391.09778,221.61446,392.75595,213.48972,394.7613 Z M191.18362,624.08435C191.40479,624.5585,191.89458,625.2698,192.24232,625.68097C193.0166,626.58203,193.09555,626.69275,193.50629,627.92566C193.68002,628.46326,194.40665,630.17035,195.11758,631.7196C199.11449,640.50836,199.95186,642.5318,201.51552,647.19495C203.45834,653.0278,204.42146,657.58014,204.73651,662.36926C205.02007,666.57367,204.75095,668.5495,203.31158,673.19617C202.23592,676.64154,201.77722,678.2694,201.42908,679.9447C201.12852,681.3039,200.57504,682.6156,199.84769,683.7062C199.46822,684.24335,199.42085,684.1644,199.27892,682.6786C198.90042,678.7429,195.16048,652.09326,194.15019,646.08685C192.84001,638.23096,191.05574,630.70703,189.25502,625.39575C189.00232,624.60547,188.78117,623.92566,188.78117,623.8467C188.78123,623.72015,190.09323,623.2781,190.51999,623.26227C190.66217,623.24646,190.94664,623.5941,191.18362,624.08435 Z M349.50296,731.94775C360.9926,737.5141,390.76773,751.52496,392.0637,751.9836C392.30087,752.07837,392.49045,752.17334,392.4588,752.20483C392.42725,752.23645,391.7318,752.0467,390.90997,751.7778C386.61102,750.43335,380.09924,749.531,371.39023,749.0863C363.9932,748.7054,357.9236,749.1465,343.82437,751.08746C341.6273,751.3873,339.77798,751.59247,339.73056,751.545C339.43036,751.2448,341.20264,741.8247,342.5631,736.48267C343.1327,734.25415,343.5915,732.04144,343.7024,731.0298C343.84503,729.62305,343.92407,729.3386,344.12955,729.38617C344.25595,729.43365,346.67392,730.5879,349.50296,731.94775 Z M312.6758,729.5846C312.6758,729.64795,312.50168,730.7227,312.28015,732.00287C311.52042,736.5548,310.63354,744.2206,310.3637,748.81976C310.3003,749.8472,310.20535,750.70074,310.15787,750.7481C309.9998,750.8429,307.78732,749.4515,306.3966,748.3607C305.68542,747.8073,304.65826,746.84283,304.1053,746.2105C303.55215,745.59406,302.57242,744.5032,301.92456,743.80756C299.9177,741.6575,298.36935,738.7646,296.80566,734.27545C295.9684,731.85693,295.7945,732.1572,298.21286,731.85736C303.58707,731.21063,307.04868,730.674,310.30478,729.96344C312.7233,729.44244,312.67587,729.4582,312.6758,729.5846 Z M162.77847,773.6966L162.74588,778.1855L161.16501,779.2916C159.07835,780.7454,156.39084,782.92584,154.0511,785.0749L152.15398,786.829L152.10754,782.51404C152.04572,776.239,152.1723,775.76495,155.7143,769.2853C157.95961,765.1606,160.82172,759.48663,161.89708,756.98956L162.59294,755.3617L162.70201,762.2847C162.76437,766.0941,162.81064,771.2309,162.77847,773.6966 Z M419.12076,764.12854C432.11197,769.80585,448.3431,776.4164,458.78992,780.29114C476.34872,786.7913,489.24545,790.8088,502.33212,793.8624L505.57217,794.6218L504.70273,794.8589C484.8176,800.46533,474.29,804.35114,464.9319,809.50183C462.1813,811.0187,460.0157,812.07715,459.7944,811.998C459.73114,811.9664,458.40384,810.1012,456.85538,807.8405C440.61218,784.20685,428.95032,771.6545,415.0589,762.8474C412.49872,761.2189,412.5145,761.2346,413.74725,761.77234C414.36368,762.04126,416.78168,763.1007,419.12076,764.12854 Z M281.50754,865.54004C281.50754,865.619,281.3651,866.346,281.1911,867.1679C280.65308,869.79156,280.51038,871.92535,280.60425,876.509C280.65097,879.354,280.76114,881.3613,280.93478,882.40466C282.65524,893.0899,288.24884,900.4409,298.49005,905.50104C301.95105,907.20886,303.97412,907.6835,309.31653,908.09564C312.4302,908.31757,321.72412,908.19336,323.62088,907.8777C327.33533,907.2937,330.2281,906.47235,333.3421,905.16125C337.8156,903.28125,338.89044,902.87054,339.6018,902.776L340.34467,902.68115L340.23395,903.2186C339.96487,904.6253,336.62836,911.08923,334.2567,914.83453C326.3509,927.28784,314.93668,937.70154,299.88766,946.23334C298.59134,946.9601,296.42566,948.1452,295.06613,948.8561L292.60022,950.1357L222.24811,950.1199C183.53947,950.111,151.88034,950.0566,151.88034,950.00934C151.88034,949.96185,152.22836,948.7922,152.67119,947.4173C154.69583,940.92145,155.66098,936.10077,156.23146,929.6363C156.77026,923.47205,156.80507,909.27844,156.31859,893.4408C156.13036,887.26056,155.8492,872.3239,155.85016,868.18274L155.85078,865.38513L218.67917,865.3992C253.23093,865.4071,281.50754,865.47687,281.50754,865.54004 Z M339.76813,865.9165C342.12296,866.897,347.76492,869.9487,349.9142,871.4035C350.05637,871.49817,350.89352,874.138,350.89346,874.51746C350.89346,874.6123,344.52277,878.7995,342.91028,879.779C340.53915,881.18536,335.51227,883.8395,333.0463,884.9611C327.43463,887.5205,323.9255,888.152,316.2756,887.9764C308.43588,887.8007,305.8123,886.8833,301.76688,882.89935C297.9111,879.1209,296.2205,876.1806,295.65234,872.2447C295.3841,870.39557,295.17957,866.3808,295.3219,865.8276L295.41684,865.41656L317.00772,865.4214L338.58273,865.4263L339.76813,865.9165 Z M524.98395,925.847C534.6093,927.57184,543.7132,929.66016,553.9864,932.49194C559.39154,933.9788,566.3143,935.73486,571.8461,937.0005C581.74005,939.2788,583.44696,939.8798,583.8575,941.3183C584.01544,941.82404,583.9522,942.2509,583.4775,944.35284C581.8005,951.7022,581.3409,957.092,580.52985,978.82495L580.2277,986.98083L574.0765,999.7665L567.925,1012.552L564.46356,1012.551L561.002,1012.55054L558.14264,1005.91125C546.863,979.6709,535.06195,953.4461,524.2243,930.5411C522.34424,926.5892,521.83875,925.372,522.0283,925.37213C522.1865,925.37213,523.5141,925.59375,524.98395,925.847 Z"/>
</g>
</g>
<g style="fill:rgb(0,0,0); fill-opacity:0.99607843; stroke-linejoin: miter">
<path d="M818.90405,1100.77L814.81616,1104.3859Q785.7521,1115.3135,644.7339,1121.8651Q502.7399,1128.4114,310.31873,1127.1738Q126.67775,1125.4445,16.57493,1117.0527Q-18.703232,1114.3403,-41.54193,1111.1417L-60.737232,1107.8531Q-76.5559,1104.459,-76.73375,1100.7692Q-71.93165,1089.4458,54.42933,1081.9268Q180.79031,1074.4075,371.08502,1074.1222Q561.3798,1074.408,687.74084,1081.9274Q814.1019,1089.4464,818.90405,1100.77"/>
</g>
</g>
</svg>