<?xml version='1.0' encoding='utf-8'?>
<svg xmlns="http://www.w3.org/2000/svg" version="1.1" width="600px" height="976px" viewBox="0 0 600 976"> <g id="layer1"> <g style="fill:rgb(0,0,0); fill-opacity:1.0; stroke-linejoin: miter"> <path d="M431.71097,94.65429Q435.292,94.65429,433.65228,97.53893L433.65894,97.71385Q439.93454,117.000824,437.9483,120.22532L424.7297,144.07253Q424.00763,145.51016,423.97058,149.07538Q428.55322,173.93497,432.2056,181.70863L434.19852,225.9314L409.43927,262.93384L384.32733,287.414L389.65732,343.23593Q393.9289,347.98492,396.94373,374.13174Q402.77313,381.16687,402.38345,386.70337Q411.34705,394.44177,410.78394,401.116Q417.16354,401.6739,420.15924,405.99213Q446.18347,396.96326,478.31107,393.59818Q488.10388,392.73636,495.61887,392.73636Q518.2018,392.73636,520.2149,400.51895Q523.75214,440.36523,517.71686,453.07907Q515.2473,467.55988,499.93427,496.26Q493.02383,514.1327,492.3546,521.34344Q493.3363,531.3206,497.20798,540.2426L522.06445,572.78156Q523.291,582.1305,521.9432,582.65576Q517.4909,584.7294,512.9313,584.7294Q508.7128,584.7294,504.40244,582.95447Q478.31567,561.0793,456.6651,560.84375Q451.2212,557.2216,446.8133,549.5658Q442.29626,537.3533,463.34073,524.2298L466.1276,467.19028L471.14648,450.2529L440.23267,468.2469Q403.0725,476.99173,385.98096,482.57495Q377.21643,485.72455,366.37073,499.26086Q343.3075,536.9193,306.66757,582.87366L300.58734,595.383Q292.58096,631.227,289.18604,636.6418Q283.9817,648.6138,274.43176,659.2899L253.51793,702.8693Q252.03784,705.30505,254.4527,725.8367Q254.26877,731.1273,241.07936,731.1273Q237.95898,731.1273,234.11067,730.8312Q234.0863,731.2078,233.66167,731.2078Q231.30865,731.2078,216.66525,719.64294Q202.2615,721.6485,194.5569,721.6485Q185.06587,721.6485,185.74074,718.6051Q180.01181,710.7573,186.40875,701.26935Q188.74823,697.89594,202.31819,696.59796L218.18744,687.61365Q221.10294,686.87427,223.43408,678.29913Q233.18045,676.8939,234.14601,670.5978Q246.29422,634.519,247.11748,621.3806L276.75983,549.5796Q280.73697,513.91016,285.80444,506.75592Q293.74927,486.17303,305.17575,467.40424Q310.1521,447.9807,308.69202,440.78738Q310.80322,438.98248,301.5613,429.50925L298.06046,408.9556L286.75592,396.1428Q286.61908,386.2226,271.4963,361.7024L269.27444,352.06662Q268.91614,351.29175,268.16852,351.29175Q266.82828,351.29175,264.23697,353.7818Q257.42374,374.20337,237.06529,395.00595Q233.61584,400.1139,223.12291,400.1139Q218.44771,400.1139,212.37422,399.09985L195.75798,372.4837L189.20079,337.03058L170.45497,317.5703Q168.06282,315.1236,167.83119,312.2919Q169.22952,298.17645,174.31467,293.97266L182.94083,289.1019Q183.0296,288.4201,183.72726,288.4201Q187.04137,288.4201,204.09528,303.80518Q203.59787,299.717,207.81892,299.717Q209.83954,299.717,212.9414,300.65384Q215.6081,301.84457,215.71974,306.6382Q210.59961,320.23904,212.70905,333.34036Q218.55423,347.3853,223.86356,347.3853Q224.41736,347.3853,224.96532,347.2325Q224.91583,343.82272,236.31024,333.5278Q238.64777,317.2627,247.0131,308.01715Q254.32321,302.44562,267.45523,300.1948L270.9834,294.45505L275.49893,274.1696Q277.77493,273.9311,263.85037,266.68353L259.77045,259.92007Q251.77469,251.59984,253.87134,234.24799Q253.08295,218.75911,284.19217,201.43356Q289.11157,199.61922,293.8122,199.61922Q299.92682,199.61922,305.6712,202.6893L316.12473,213.57286L327.04294,233.97385Q328.57404,249.18813,334.1579,258.72205Q335.5192,266.6597,330.39334,266.6597Q330.3522,266.6597,330.31067,266.65918L330.30737,266.65918L334.23926,267.44574L367.86874,247.73596Q385.4016,228.92044,401.20303,222.45723Q404.48425,183.2036,403.54803,146.61433Q394.82907,130.6876,395.4248,105.30867Q396.42804,103.17047,398.64194,103.17047Q400.44153,103.17047,403.0411,104.58331L408.11096,115.98939Q423.9411,106.59415,427.2045,95.2886Q430.03174,94.65429,431.71097,94.65429 Z"/> </g> </g> </svg>