<?xml version="1.0" encoding="UTF-8"?>
<svg width="1858.5" height="1280.6" version="1.1" viewBox="0 0 1858.486 1280.6131" xmlns="http://www.w3.org/2000/svg">
 <defs>
  <filter id="p" x="-.10235" y="-1.0945" width="1.2047" height="3.189" color-interpolation-filters="sRGB">
   <feGaussianBlur stdDeviation="0.36417252"/>
  </filter>
  <filter id="r" x="-.12731" y="-.50646" width="1.2546" height="2.0129" color-interpolation-filters="sRGB">
   <feGaussianBlur stdDeviation="0.481533"/>
  </filter>
  <filter id="t" x="-.11713" y="-.46597" width="1.2343" height="1.9319" color-interpolation-filters="sRGB">
   <feGaussianBlur stdDeviation="0.44303119"/>
  </filter>
  <filter id="v" x="-.16995" y="-.48723" width="1.3399" height="1.9745" color-interpolation-filters="sRGB">
   <feGaussianBlur stdDeviation="0.58875159"/>
  </filter>
  <filter id="x" x="-.13758" y="-.39443" width="1.2752" height="1.7889" color-interpolation-filters="sRGB">
   <feGaussianBlur stdDeviation="0.47660843"/>
  </filter>
  <filter id="z" x="-.11089" y="-.13362" width="1.2218" height="1.2672" color-interpolation-filters="sRGB">
   <feGaussianBlur stdDeviation="0.31110068"/>
  </filter>
  <filter id="aa" x="-.13944" y="-.16802" width="1.2789" height="1.336" color-interpolation-filters="sRGB">
   <feGaussianBlur stdDeviation="0.31129827"/>
  </filter>
  <filter id="ab" x="-.16931" y="-.16205" width="1.3386" height="1.3241" color-interpolation-filters="sRGB">
   <feGaussianBlur stdDeviation="0.39056863"/>
  </filter>
  <filter id="ac" x="-.3217" y="-.38763" width="1.6434" height="1.7753" color-interpolation-filters="sRGB">
   <feGaussianBlur stdDeviation="0.71819208"/>
  </filter>
  <filter id="ad" x="-.26623" y="-.25482" width="1.5325" height="1.5096" color-interpolation-filters="sRGB">
   <feGaussianBlur stdDeviation="0.61415502"/>
  </filter>
  <filter id="q" x="-.10235" y="-1.0945" width="1.2047" height="3.189" color-interpolation-filters="sRGB">
   <feGaussianBlur stdDeviation="0.36417252"/>
  </filter>
  <filter id="s" x="-.12731" y="-.50646" width="1.2546" height="2.0129" color-interpolation-filters="sRGB">
   <feGaussianBlur stdDeviation="0.481533"/>
  </filter>
  <filter id="y" x="-.13758" y="-.39443" width="1.2752" height="1.7889" color-interpolation-filters="sRGB">
   <feGaussianBlur stdDeviation="0.47660843"/>
  </filter>
  <filter id="w" x="-.16995" y="-.48723" width="1.3399" height="1.9745" color-interpolation-filters="sRGB">
   <feGaussianBlur stdDeviation="0.58875159"/>
  </filter>
  <filter id="u" x="-.11713" y="-.46597" width="1.2343" height="1.9319" color-interpolation-filters="sRGB">
   <feGaussianBlur stdDeviation="0.44303119"/>
  </filter>
 </defs>
 <g transform="translate(0 228.25)">
  <path d="m414.22 525.16c-15.929-1e-3 -28.842 12.91-28.844 28.839 2e-3 11.665 7.0314 22.18 17.809 26.642-2.2401 5.2058-61.738 142.67-118.49 192.03-11.612 10.099-28.265 15.408-42.271 18.56-18.245 1.4827-36.822 2.0743-47.049-12.171-28.207-38.736-64.95-98.503-75.635-122.25 6.4094-4.3937 10.245-11.661 10.255-19.432 3e-3 -13.034-10.563-23.601-23.596-23.602-13.034 9e-4 -23.598 10.568-23.596 23.602 0.0147 9.7966 6.0779 18.566 15.239 22.036 0.83834 29.392 2.4076 145.87-24.806 156.82l-0.92917 0.22371 0.0574-0.0918c-0.03 0.0376-0.0624 0.0614-0.0918 0.0975l-0.0516 0.0115-0.0975 0.14336c-0.26841 0.0775-0.53485 0.16616-0.80872 0.22372 0 0 0.76968-0.1812 0.78004-0.18354-12.431 13.544-35.199-98.021-35.199-98.021l-1.7666 0.37856c6.7652-3.8021 10.956-10.955 10.966-18.715 1e-3 -11.876-9.6266-21.504-21.503-21.503-11.874 1e-3 -21.498 9.6288-21.497 21.503 2e-3 11.081 8.4246 20.345 19.455 21.399l-0.37855 0.0803s22.618 77.1 27.766 116.02c0.16768 0.45649 0.29275 0.93736 0.3384 1.4454 0 0 7.2153 54.44 7.3416 81.824 0.11952 25.932-5.0195 71.501-6.6418 85.283h721.73c0.28193 0 0.5528-0.032 0.82021-0.08-2.2065-20.274-5.3992-52.818-5.3054-73.134 0.12631-27.384 7.3416-81.824 7.3416-81.824 0.0475-0.52921 0.17589-1.03 0.35559-1.5027-0.19294-0.0716-0.38623-0.16748-0.57931-0.22944 0.062 0.0176 0.37242 0.11204 0.59652 0.17782 0.0946-0.24169 0.20644-0.46766 0.33265-0.68826l0.60225-4.9384 5e-3 -0.0229c1.332-32.704 28.36-123.48 28.976-125.58 9.8775-1.027 17.385-9.3465 17.396-19.277 4.4e-4 -10.716-8.6871-19.404-19.404-19.404-10.716-4.7e-4 -19.404 8.6871-19.403 19.404 6e-3 6.2068 2.9834 12.036 8.0069 15.681l-1.1184-0.2409s-21.956 94.451-35.377 102.27l-5.7126-1.4052c-27.55-20.248-21.778-159.38-21.778-159.38l-0.26956-0.0459c9.6166-2.3492 16.386-10.961 16.398-20.86 1e-3 -11.876-9.6265-21.504-21.503-21.503-11.874 1e-3 -21.498 9.6288-21.497 21.503 9e-3 7.3917 3.8152 14.26 10.077 18.188l-1.7321-0.28103s-45.926 106.44-77.952 127.97c-1.8291 1.2292-3.45 2.7884-4.5311 4.2157l-0.78005-0.18928s-27.942 6.7322-42.925 4.7778c-12.975-1.6925-31.533-7.3742-43.338-17.551-56.424-48.643-112.92-190.88-113.49-192.53 9.8741-4.8435 16.134-14.881 16.14-25.879-1e-3 -15.926-12.912-28.837-28.839-28.839z" fill="#2e3436"/>
  <path d="m1449.5 525.16c-15.928-1e-3 -28.842 12.91-28.844 28.839 0 11.665 7.0313 22.18 17.809 26.642-2.2401 5.2058-61.738 142.67-118.49 192.03-11.612 10.099-28.265 15.408-42.271 18.56-18.245 1.4827-36.822 2.0743-47.049-12.171-28.207-38.736-64.95-98.503-75.635-122.25 6.4094-4.3938 10.245-11.661 10.255-19.432 0-13.034-10.562-23.601-23.596-23.602-13.034 9.1e-4 -23.598 10.568-23.596 23.602 0.015 9.7966 6.078 18.566 15.24 22.036 0.8384 29.392 2.4076 145.87-24.806 156.82l-0.9292 0.22371 0.057-0.0918c-0.03 0.0376-0.063 0.0613-0.092 0.0975l-0.052 0.0115-0.098 0.14336c-0.2684 0.0775-0.5348 0.16616-0.8087 0.22372 0 0 0.7697-0.1812 0.78-0.18354-12.431 13.544-35.199-98.021-35.199-98.021l-1.7666 0.37856c6.7652-3.8021 10.956-10.955 10.966-18.715 0-11.876-9.6265-21.504-21.503-21.503-11.874 1e-3 -21.498 9.6288-21.497 21.503 0 11.081 8.4246 20.345 19.455 21.399l-0.3785 0.0803s25.188 85.819 28.477 122.1c-8.3951 2.3416-12.487 14.509-12.303 23.252 0.133 6.3208 3.129 17.445 8.2019 19.707v52.899c0 0.3932 0.044 0.7744 0.057 1.1643-0.2167 0.532-0.3384 1.1147-0.3384 1.7264v6.074c0 1.9327 1.1933 3.5692 2.885 4.2329 0.1066 0.2587 0.2314 0.5073 0.3442 0.7628-7.5602 2.1791-13.144 11.283-14.328 19.077-1.0089 6.6459 1.2624 15.774 7.2555 18.818 0.6101 0.3098 2.2067 0.5812 4.6229 0.8144-0.8849 0.8298-1.4453 2.0008-1.4453 3.3152v6.074c0 2.5231 2.031 4.5541 4.554 4.5541h722.55c2.5231 0 4.5541-2.031 4.5541-4.5541v-6.074c0-1.4473-0.6802-2.7173-1.7264-3.5503 0.6058 0 9.7333 0.023 9.7333 0.023 4.8585-5.2263 10.075-11.845 9.9053-18.979-0.1671-7.0308-3.772-16.706-10.639-18.222-2.0025-0.442-5.5242-0.8875-9.7047-1.3307 0.116-0.2634 0.246-0.519 0.3556-0.7857 1.6128-0.6997 2.7417-2.2998 2.7417-4.1756v-6.074c0-0.479-0.093-0.932-0.2295-1.3651 0.023-0.5095 0.074-1.0104 0.074-1.5256v-54.098c2.014 0.38145 2.2307-0.55221 7.9035-6.5558 9.7693-10.339-0.3825-26.306-10.335-29.504 0.087 0.0264 0.8029 0.304 0.8029 0.304l0.7285-5.7528-0.013-0.13191c1.3321-32.704 28.377-123.37 28.993-125.47 9.8775-1.027 17.385-9.3465 17.396-19.277 5e-4 -10.716-8.6871-19.404-19.404-19.404-10.716-4.5e-4 -19.404 8.6871-19.403 19.404 0 6.2068 2.9833 12.036 8.0068 15.681l-1.1185-0.2409s-21.956 94.451-35.377 102.27l-5.7126-1.4052c-27.55-20.248-21.778-159.37-21.778-159.37l-0.2696-0.0459c9.6166-2.3492 16.386-10.961 16.398-20.86 0-11.876-9.6266-21.504-21.503-21.503-11.874 1e-3 -21.498 9.6288-21.497 21.503 0.013 7.3918 3.8152 14.26 10.077 18.188l-1.732-0.28103s-45.926 106.44-77.953 127.97c-1.829 1.2292-3.4499 2.7884-4.5311 4.2156l-0.7799-0.18926s-27.942 6.7322-42.925 4.7777c-12.975-1.6925-31.534-7.3742-43.338-17.551-56.424-48.643-112.92-190.88-113.49-192.53 9.874-4.8435 16.134-14.881 16.14-25.879 0-15.926-12.912-28.837-28.838-28.839zm-75.073 135.3c-52.402 1.4963-105.8 7.022-156.94 19.352-7.2965 1.7589-14.545 3.7673-21.738 5.9822 12.522 21.679 30.746 50.219 45.908 71.041 7.8855 10.983 22.21 10.527 36.278 9.3834 10.799-2.4306 23.637-6.5239 32.59-14.31 22.97-19.977 46.462-58.61 63.906-91.448zm147.37 0.16061c16.319 32.557 38.462 70.675 60.648 89.802 8.9696 7.7328 23.075 12.049 32.934 13.335 11.385 1.4851 32.612-3.6306 32.612-3.6306l0.5965 0.14339c0.8215-1.0845 2.0515-2.2664 3.4414-3.2004 15.089-10.14 34.222-45.07 46.596-70.163-8.5585-2.758-17.199-5.2351-25.914-7.3358-49.188-11.857-100.48-17.322-150.91-18.95zm254.04 44.967c0.5141 29.469 3.4368 70.282 15.348 79.036l3.9576 0.97506c5.0965-2.9697 11.903-23.856 17.075-42.231-0.5446-7.804-1.7188-15.122-3.7568-21.646-0.2221-0.71008-0.921-1.2269-1.5773-1.5773-10.067-5.3748-20.449-10.219-31.047-14.557zm-652.01 0.94063c-11.179 4.4857-22.122 9.5402-32.71 15.194-0.6466 0.34523-1.3415 0.85471-1.5601 1.5543-1.4909 4.7728-2.5305 9.9626-3.189 15.463 5.2353 21.886 13.94 53.426 19.598 47.261-0.01 1e-3 -0.5276 0.12618-0.5276 0.12618 0.187-0.0394 0.3673-0.10196 0.5506-0.15487l0.063-0.0975 0.04-5e-3c0.021-0.0235 0.043-0.0433 0.063-0.0688l-0.04 0.0631 0.6309-0.14913c13.398-5.3899 16.563-48.173 17.081-79.186z" fill="#2e3436"/>
  <g transform="matrix(2.9366 0 0 2.9366 3.0971 -389.61)">
   <path d="m140 69.932c-5.4241-4.6e-4 -9.8216 4.3962-9.8223 9.8203 8.8e-4 3.9722 2.3944 7.5528 6.0645 9.0723-0.76283 1.7727-21.023 48.584-40.35 65.393-3.954 3.439-9.625 5.2468-14.395 6.3203-6.2129 0.50489-12.539 0.70637-16.021-4.1445-9.6054-13.191-22.117-33.543-25.756-41.629 2.1826-1.4962 3.4887-3.971 3.4922-6.6172 7.7e-4 -4.4383-3.5968-8.0368-8.0352-8.0371-4.4383 3e-4 -8.0359 3.5988-8.0352 8.0371 5e-3 3.336 2.0697 6.3223 5.1895 7.5039 0.28548 10.009 0.81986 49.674-8.4473 53.402l-0.31641 0.0762 0.01953-0.0312c-0.0102 0.0128-0.02125 0.0209-0.03125 0.0332l-0.01758 4e-3 -0.0332 0.0488c-0.0914 0.0264-0.18213 0.0566-0.27539 0.0762 0 0 0.2621-0.0617 0.26562-0.0625-4.2331 4.612-11.986-33.379-11.986-33.379l-0.60156 0.12891c2.3037-1.2947 3.731-3.7304 3.7344-6.373 4.6e-4 -4.0442-3.2781-7.3227-7.3223-7.3223-4.0434 6.1e-4 -7.3208 3.2789-7.3203 7.3223 5.8e-4 3.7733 2.8688 6.9282 6.625 7.2871l-0.12891 0.0273s7.7022 26.255 9.4551 39.508c0.0571 0.15545 0.09969 0.3192 0.11523 0.49219 0 0 2.457 18.538 2.5 27.863 0.0407 8.8306-1.7093 24.348-2.2617 29.041h245.77c0.096 0 0.18824-0.0107 0.2793-0.0273-0.75138-6.9037-1.8386-17.986-1.8066-24.904 0.043-9.325 2.5-27.863 2.5-27.863 0.0154-0.17193 0.0584-0.33387 0.11523-0.48828 0.0325-0.0824 0.0834-0.2028 0.125-0.27539l0.20508-1.6816-8e-3 -2e-3c0.45359-11.137 9.667-42.053 9.877-42.77 3.3636-0.34973 5.9201-3.1828 5.9238-6.5644 1.5e-4 -3.6492-2.9582-6.6076-6.6074-6.6074-3.6492-1.6e-4 -6.6076 2.9582-6.6074 6.6074 2e-3 2.1136 1.0159 4.0985 2.7266 5.3398l-0.38086-0.082s-7.4765 32.163-12.047 34.826l-1.9453-0.47851c-9.3816-6.895-7.416-54.271-7.416-54.271l-0.0918-0.0156c3.2747-0.79997 5.5799-3.7325 5.584-7.1035 4.6e-4 -4.0442-3.2781-7.3227-7.3223-7.3223-4.0434 6.1e-4 -7.3208 3.2788-7.3203 7.3223 3e-3 2.5171 1.2992 4.8561 3.4316 6.1934l-0.58984-0.0957s-15.639 36.247-26.545 43.576c-0.62286 0.41856-1.1748 0.94953-1.543 1.4356l-0.26563-0.0645s-9.5151 2.2925-14.617 1.627c-4.4183-0.57635-10.738-2.5111-14.758-5.9766-19.214-16.564-38.451-65.001-38.646-65.562 3.3624-1.6493 5.4941-5.0674 5.4961-8.8125-6.2e-4 -5.4234-4.397-9.8197-9.8203-9.8203z" fill="#edd400"/>
   <path d="m138.36 73.385c0 1.9526 0.16709 2.6293-1.7855 2.6293-1.9526-2e-6 -4.9418 1.4483-4.9418-0.50428s3.0204-4.5668 4.973-4.5668c1.9526 2e-6 1.7543 0.48916 1.7543 2.4418z" fill="#fce94f" filter="url(#z)"/>
   <path d="m33.831 102.79c0 1.5539 0.13297 2.0923-1.4209 2.0923-1.5538 0-3.9326 1.1526-3.9326-0.4013 0-1.5538 2.4036-3.6342 3.9574-3.6342s1.396 0.38927 1.396 1.9431z" fill="#fce94f" filter="url(#ac)"/>
   <path d="m5.5938 125.14c0.45813 1.6265 0.75607 2.151-0.87044 2.6091-1.6265 0.45812-3.7766 2.3659-4.2348 0.73938-0.45812-1.6265 1.4445-4.5127 3.071-4.9709 1.6265-0.45811 1.5761-4e-3 2.0342 1.6224z" fill="#fce94f" filter="url(#ad)"/>
   <path transform="matrix(-1 0 0 1 546.97 -1)" d="m273.83 125.22c-0.45813 1.6265-0.75607 2.151 0.87044 2.6091 1.6265 0.45812 3.7766 2.3659 4.2348 0.73938 0.45812-1.6265-1.4445-4.5127-3.071-4.9709-1.6265-0.45811-1.5761-4e-3 -2.0342 1.6224z" fill="#fce94f" filter="url(#ab)"/>
   <path d="m244.86 102.61c0 1.5539 0.13297 2.0923-1.4209 2.0923-1.5538 0-3.9326 1.1526-3.9326-0.4013 0-1.5538 2.4036-3.6342 3.9574-3.6342s1.396 0.38927 1.396 1.9431z" fill="#fce94f" filter="url(#aa)"/>
   <path d="m136.23 88.826 8.1095-0.24219 0.17188 0.54856s-2.6637-0.15382-3.9958-0.11968c-1.519 0.03893-4.5434 0.36968-4.5434 0.36968z" fill="#c4a000" filter="url(#p)"/>
   <path transform="matrix(.84039 0 0 .84039 5.0655 18.322)" d="m32.445 115.8 8.814-1.037 0.26391 0.70631s-3.2315-0.10163-4.8109 0.18271c-1.4601 0.26287-4.2273 1.3928-4.2273 1.3928z" fill="#c4a000" filter="url(#t)"/>
   <path transform="matrix(.60766 0 0 .60766 -13.171 66.432)" d="m32.445 115.8 8.014-1.9461 0.30027 1.07s-2.8227 0.094-4.1927 0.40089c-1.3733 0.30758-3.9727 1.4292-3.9727 1.4292z" fill="#c4a000" filter="url(#v)"/>
   <path transform="matrix(-.72748 0 0 .86273 270.76 14.494)" d="m32.445 115.8 8.814-1.037 0.26391 0.70631s-3.2315-0.10163-4.8109 0.18271c-1.4601 0.26287-4.2273 1.3928-4.2273 1.3928z" fill="#c4a000" filter="url(#r)"/>
   <path transform="matrix(-.60766 0 0 .60766 293.12 65.171)" d="m32.445 115.8 8.014-1.9461 0.30027 1.07s-2.8227 0.094-4.1927 0.40089c-1.3733 0.30758-3.9727 1.4292-3.9727 1.4292z" fill="#c4a000" filter="url(#x)"/>
  </g>
  <g transform="matrix(2.9366 0 0 2.9366 3.0971 -396.68)">
   <path d="m487.1 116.11c-26.525 0.15985-53.929 2.4472-80.01 8.7344-13.427 3.2368-26.526 8.2578-38.715 14.766-0.32246 0.17216-0.6664 0.42648-0.77539 0.77539-9.4275 30.181 16.971 93.326 16.971 93.326 0 0.42958 0.62511 1.8967 1.0547 1.8984l105.78 0.41992 105.78-0.41992c0.42958-2e-3 1.0547-1.4689 1.0547-1.8984 0 0 26.398-63.145 16.971-93.326-0.10899-0.34891-0.45293-0.60323-0.77539-0.77539-12.189-6.5078-25.288-11.529-38.715-14.766-26.081-6.2872-53.485-8.5745-80.01-8.7344-1.4274-9e-3 -2.8676 4e-3 -4.3008 4e-3 -1.4331-1e-4 -2.8733-0.0125-4.3008-4e-3z" fill="#5c3566"/>
   <path d="m492.29 72.404c-5.4241-4.6e-4 -9.8216 4.3962-9.8223 9.8203 8.8e-4 3.9722 2.3944 7.5528 6.0644 9.0723-0.76283 1.7727-21.023 48.584-40.35 65.393-3.954 3.439-9.625 5.2468-14.395 6.3203-6.2129 0.50489-12.539 0.70636-16.021-4.1445-9.6054-13.191-22.117-33.543-25.756-41.629 2.1826-1.4962 3.4887-3.971 3.4922-6.6172 7.7e-4 -4.4383-3.5968-8.0368-8.0352-8.0371-4.4383 3.1e-4 -8.0359 3.5988-8.0352 8.0371 5e-3 3.336 2.0697 6.3223 5.1895 7.5039 0.28548 10.009 0.81986 49.674-8.4473 53.402l-0.3164 0.0762 0.0195-0.0312c-0.0102 0.0128-0.0211 0.0209-0.0312 0.0332l-0.0176 4e-3 -0.0332 0.0488c-0.0914 0.0264-0.18213 0.0566-0.2754 0.0762 0 0 0.2621-0.0617 0.26563-0.0625-4.2331 4.612-11.986-33.379-11.986-33.379l-0.60156 0.1289c2.3037-1.2947 3.731-3.7304 3.7344-6.373 4.6e-4 -4.0442-3.2781-7.3227-7.3223-7.3223-4.0434 6.1e-4 -7.3208 3.2789-7.3203 7.3223 5.8e-4 3.7733 2.8688 6.9282 6.625 7.2871l-0.12891 0.0274s8.5772 29.224 9.6973 41.578c-2.8588 0.79737-4.2522 4.9408-4.1895 7.918 0.0453 2.1524 1.0655 5.9404 2.793 6.7109v18.014c0 0.13389 0.0151 0.26371 0.0195 0.39649-0.0738 0.18115-0.11523 0.37959-0.11523 0.58789v2.0684c0 0.6581 0.40636 1.2154 0.98242 1.4414 0.0363 0.0881 0.0788 0.17274 0.11719 0.25977-2.5744 0.74201-4.476 3.842-4.8789 6.4961-0.34356 2.2631 0.42988 5.3716 2.4707 6.4082 0.20773 0.10552 0.75142 0.19794 1.5742 0.27735-0.30133 0.28256-0.49218 0.68131-0.49218 1.1289v2.0684c0 0.85917 0.69161 1.5508 1.5508 1.5508h246.05c0.85916 0 1.5508-0.69161 1.5508-1.5508v-2.0684c0-0.49283-0.23165-0.9253-0.58789-1.209 0.2063 5.4e-4 3.3144 8e-3 3.3144 8e-3 1.6545-1.7797 3.4308-4.0337 3.373-6.4629-0.0569-2.3942-1.2845-5.6888-3.623-6.2051-0.68189-0.15053-1.8811-0.30221-3.3047-0.45312 0.0394-0.0897 0.0838-0.17673 0.12109-0.26758 0.54919-0.23821 0.9336-0.78313 0.9336-1.4219v-2.0684c0-0.16313-0.0318-0.31737-0.0781-0.46485 8e-3 -0.17352 0.0254-0.34409 0.0254-0.51953v-18.422c0.68587 0.1299 0.75965-0.18805 2.6914-2.2324 3.3267-3.5206-0.13028-8.9578-3.5195-10.047 0.0296 9e-3 0.28516 0.084 0.28516 0.084l0.23632-1.9375v-2e-3c0.4545-11.138 9.6592-42.055 9.8691-42.771 3.3636-0.34973 5.9201-3.1828 5.9238-6.5645 1.5e-4 -3.6492-2.9582-6.6076-6.6074-6.6074-3.6492-1.5e-4 -6.6076 2.9582-6.6074 6.6074 2e-3 1.9755 0.88783 3.8393 2.4004 5.0879 0.10571 0.0873 0.21442 0.17087 0.32617 0.25196l-0.38086-0.082s-7.4765 32.163-12.047 34.826l-1.9453-0.47852c-9.3816-6.895-7.416-54.271-7.416-54.271l-0.0918-0.0156c3.2747-0.79997 5.58-3.7325 5.584-7.1035 4.6e-4 -4.0442-3.2781-7.3227-7.3223-7.3223-4.0434 6.2e-4 -7.3208 3.2789-7.3203 7.3223 3e-3 2.5171 1.2992 4.8561 3.4316 6.1934l-0.58984-0.0957s-15.639 36.247-26.545 43.576c-0.62286 0.41857-1.1748 0.94953-1.543 1.4356l-0.26562-0.0644s-9.5151 2.2925-14.617 1.627c-4.4183-0.57635-10.738-2.5111-14.758-5.9766-19.214-16.564-38.451-65.001-38.646-65.563 3.3624-1.6493 5.4941-5.0674 5.4961-8.8125-6.2e-4 -5.4234-4.397-9.8197-9.8203-9.8203z" fill="#edd400"/>
   <path d="m490.7 75.832c0 1.9526 0.16709 2.6293-1.7855 2.6293-1.9526-2e-6 -4.9418 1.4483-4.9418-0.50428s3.0204-4.5668 4.973-4.5668c1.9526 2e-6 1.7543 0.48916 1.7543 2.4418z" fill="#fce94f"/>
   <path d="m385.9 105.46c0 1.5539 0.13297 2.0923-1.4209 2.0923-1.5538 0-3.9326 1.1526-3.9326-0.4013 0-1.5538 2.4036-3.6342 3.9574-3.6342s1.396 0.38927 1.396 1.9431z" fill="#fce94f"/>
   <path d="m357.86 127.53c0.45813 1.6265 0.75607 2.151-0.87044 2.6091-1.6265 0.45812-3.7766 2.3659-4.2348 0.73938-0.45812-1.6265 1.4445-4.5127 3.071-4.9709 1.6265-0.45811 1.5761-4e-3 2.0342 1.6224z" fill="#fce94f"/>
   <path d="m625.95 127.56c-0.45813 1.6265-0.75607 2.151 0.87044 2.6091 1.6265 0.45812 3.7766 2.3659 4.2348 0.73938 0.45812-1.6265-1.4445-4.5127-3.071-4.9709-1.6265-0.45811-1.5761-4e-3 -2.0342 1.6224z" fill="#fce94f"/>
   <path d="m597.31 104.78c0 1.5539 0.13297 2.0923-1.4209 2.0923-1.5538 0-3.9326 1.1526-3.9326-0.4013 0-1.5538 2.4036-3.6342 3.9574-3.6342s1.396 0.38927 1.396 1.9431z" fill="#fce94f"/>
   <path d="m488.53 91.172 8.1095-0.24219 0.17188 0.54856s-2.6637-0.15382-3.9958-0.11968c-1.519 0.03893-4.5434 0.36968-4.5434 0.36968z" fill="#c4a000" filter="url(#q)"/>
   <path transform="matrix(-.72748 0 0 .86273 622.93 16.884)" d="m32.445 115.8 8.814-1.037 0.26391 0.70631s-3.2315-0.10163-4.8109 0.18271c-1.4601 0.26287-4.2273 1.3928-4.2273 1.3928z" fill="#c4a000" filter="url(#s)"/>
   <path transform="matrix(-.60766 0 0 .60766 645.42 67.665)" d="m32.445 115.8 8.014-1.9461 0.30027 1.07s-2.8227 0.094-4.1927 0.40089c-1.3733 0.30758-3.9727 1.4292-3.9727 1.4292z" fill="#c4a000" filter="url(#y)"/>
   <path transform="matrix(.60766 0 0 .60766 339.44 68.184)" d="m32.445 115.8 8.014-1.9461 0.30027 1.07s-2.8227 0.094-4.1927 0.40089c-1.3733 0.30758-3.9727 1.4292-3.9727 1.4292z" fill="#c4a000" filter="url(#w)"/>
   <path transform="matrix(.84039 0 0 .84039 357.47 20.869)" d="m32.445 115.8 8.814-1.037 0.26391 0.70631s-3.2315-0.10163-4.8109 0.18271c-1.4601 0.26287-4.2273 1.3928-4.2273 1.3928z" fill="#c4a000" filter="url(#u)"/>
   <path d="m367.15 195.64 248.93-0.48809 3e-3 0.53745-248.97 0.49245z" fill="#c4a000"/>
   <path d="m368.45 180.87 247.13 1.7996-0.0294 0.30484-247.07-2.0377z" fill="#c4a000"/>
   <path d="m367.24 231.52 248.1-0.0786 0.44094 0.57412 0.11676 0.61177-249.09-0.21192 0.0875-0.48171z" fill="#c4a000"/>
   <path d="m368.03 218.29 246.99-0.32177 0.059 0.34903-247.03 0.0395z" fill="#c4a000"/>
  </g>
 </g>
</svg>
