<?xml version="1.0" encoding="UTF-8"?>
<svg viewBox="0 0 64 64" xmlns="http://www.w3.org/2000/svg">
 <path d="m34.166 31.559h-6.9274l7.2068 11.446 2.3626-1.2507 8.7257 13.858-5.6859-19.458-2.4066 1.2741-3.2752-5.8696z" fill="#ff0" fill-rule="evenodd"/>
 <path d="m33.636 32.728-4.1477-0.0722 5.487 8.7763 2.0052-1.0616 6.225 10.102-4.1174-12.833-2.0426 1.0814-3.4095-5.9923z" fill="#ff0" fill-rule="evenodd" opacity=".8"/>
 <path d="m31.433 8.2931c-5.6954 0-10.506 3.6321-12.003 8.5921-0.62314-0.35234-1.34-0.55507-2.1065-0.55507-2.3704 0-4.2937 1.9233-4.2937 4.2937 0 0.02415-4e-4 0.04711 0 0.07117-0.71005-0.14547-1.4545-0.22773-2.2251-0.22773-4.6984 0-8.5114 2.8873-8.5114 6.4429s3.813 6.4429 8.5114 6.4429c1.8609 0 3.5804-0.45634 4.9816-1.224 0.83688 2.5039 3.1985 4.3127 5.9827 4.3127 1.8866 0 3.5783-0.83066 4.7349-2.1445 1.122 0.58693 2.4415 0.92517 3.8524 0.92517 1.9197 0 3.6716-0.62445 4.9864-1.651 1.7717 1.8388 4.3768 3.0032 7.2826 3.0032 3.5648 0 6.6804-1.754 8.3549-4.3554 0.25207 0.03693 0.5107 0.05692 0.77334 0.05692 2.836 0 5.1334-2.2303 5.1334-4.9816s-2.2975-4.9864-5.1334-4.9864c-0.50747 0-0.99816 0.07558-1.4613 0.20875-1.5282-1.8013-3.813-3.0502-6.4239-3.3543-0.53408-6.0852-5.8981-10.869-12.435-10.869z" fill="#3f3f3f"/>
</svg>
