<?xml version='1.0' encoding='utf-8'?>
<svg xmlns="http://www.w3.org/2000/svg" version="1.1" width="600px" height="976px" viewBox="0 0 600 976"> <g id="layer1"> <g style="fill:rgb(0,0,0); fill-opacity:1.0; stroke-linejoin: miter"> <path d="M349.41757,395.16302L349.56332,396.1473L349.27698,395.24124Q349.34583,395.20206,349.4141,395.16302 Z M487.42667,491.83112L494.78165,501.70844L494.7767,501.70844Q491.67636,504.09845,489.4235,507.341L489.4235,507.341L486.766,492.2099L487.42667,491.83112 Z M509.63895,548.43146Q510.01886,548.44995,510.39838,548.457L510.39325,548.457L510.74216,550.18604L509.63385,548.43146 Z M510.87775,550.85803L511.6733,554.8006L511.6733,554.8006Q508.65643,553.54346,505.9311,552.5771L505.92603,552.5771L510.87775,550.85803 Z M318.73157,169.40784Q318.4529,169.40784,318.1258,169.48615L318.10876,169.4931Q317.02625,169.98926,317.21033,171.3042L323.70975,218.79936L316.42395,170.19537L316.4049,170.06921Q179.2965,199.61327,109.76405,209.72916Q74.86937,215.15077,47.171574,215.15077Q31.030682,215.15077,17.333834,213.3096Q16.052797,213.3118,16.58838,219.51743Q22.302736,276.07712,24.126652,315.29977Q26.490055,337.6622,50.866707,338.49777Q53.40241,338.6776,56.451416,338.6776Q64.75623,338.6776,76.86927,337.3433L152.15271,326.65115Q172.28282,324.15652,185.33638,323.8658Q187.60272,323.81094,189.83403,323.81094Q203.96742,323.81094,216.69588,326.0126Q225.25504,327.09183,255.23502,335.49744Q260.55997,336.7495,265.23,337.15002Q267.00967,337.33612,268.80502,337.33612Q277.94727,337.33612,287.49588,332.51086Q303.3721,325.35553,333.74307,292.14294L333.7464,292.14294L343.6026,364.16803Q343.64258,364.3509,343.696,364.51074L343.69257,364.51074Q341.97955,365.02084,340.05396,365.71906L339.99445,365.74432Q332.85565,368.7917,333.21478,372.9292Q333.3072,373.9906,333.77264,374.95532Q335.97522,378.4754,336.32098,379.6754Q337.03375,381.4969,337.61444,384.46512Q338.0703,386.79025,338.4696,390.38608Q340.4881,412.57083,341.2177,416.6694Q342.37518,424.84903,344.2605,430.35648Q347.14862,439.01474,353.0694,445.24802Q358.65604,451.1796,368.30875,457.62668L368.30505,457.62668L368.10504,462.8926Q370.6902,462.54102,373.07315,462.54102Q384.871,462.54102,391.7132,471.15933Q398.3625,534.8603,399.3603,555.81366Q400.61786,576.8439,397.786,590.1192L406.60718,587.0568L406.61124,587.0568Q408.1779,599.83417,410.79077,610.5805Q412.2843,616.7343,414.1682,622.7236Q425.10144,654.7908,426.83344,661.82983Q430.97235,676.6546,433.03363,690.233Q437.6967,717.5096,437.8611,785.9835Q439.55045,786.1511,441.66574,786.20166L441.66132,786.20166Q440.86807,790.04504,439.62784,795.2522Q439.304,796.8401,439.1323,798.19543Q438.5878,802.41736,439.60428,804.87085Q441.5262,810.37476,455.5035,812.51624Q457.60074,812.79846,459.32938,812.79846Q461.8681,812.79846,463.6118,812.1897Q466.3442,811.2334,467.52786,808.25867Q468.93216,804.8108,468.58853,797.26245Q468.17587,789.93225,466.33633,785.55396Q466.10303,785.00244,465.95212,784.6719L465.94745,784.6719Q467.8119,784.4654,469.77628,784.23145L480.70853,692.9158L473.78885,611.1851L528.16705,626.5509L501.53146,671.6979L501.52646,671.6979Q497.40765,674.1098,493.0985,678.1737Q488.35764,683.15027,490.19638,687.45105Q490.82147,689.20483,492.22913,691.16504Q492.3645,691.5946,498.1966,698.34436Q499.4226,699.9302,500.2782,701.61743Q501.0163,703.06665,501.62366,704.9718Q504.7937,717.1648,506.44745,720.86755Q508.82568,726.79974,512.03394,730.9482Q515.99023,736.01544,522.14056,739.5986Q528.8639,743.37885,533.62195,743.4301Q538.4853,743.38275,538.26215,738.28705Q538.1469,736.4489,537.3189,734.00385L531.4287,719.208Q529.8997,714.9523,529.2799,711.4115Q528.2066,705.166,529.12585,697.94385L529.13116,697.94385Q530.9494,698.3455,532.9371,698.7106Q580.6046,618.7108,582.22845,607.61035Q583.896,600.9132,581.1053,597.24194Q579.43256,594.0409,567.97687,586.50696Q534.5299,564.74695,513.8646,555.73535L513.86975,555.73535Q514.19763,555.7433,514.5266,555.7433Q525.07983,555.7433,536.8263,547.557Q552.3636,536.2681,552.20355,527.40576Q552.0572,523.08,547.7172,518.19324Q545.8528,516.09143,543.14734,513.7278L526.9349,500.32294Q522.22046,496.2838,519.06226,493.0531Q513.0458,486.97772,509.17236,479.3668L509.16727,479.3668L511.55566,477.99747L485.2396,433.15875L453.50272,418.44278L451.8852,418.1963L451.88068,418.1963Q452.62665,414.84015,452.80527,414.61664Q455.42886,408.78137,455.38126,408.50543Q456.12723,406.21674,456.86026,401.36682Q456.9706,401.3692,457.07895,401.3692Q460.402,401.3692,461.81955,399.12457Q464.34366,394.97253,464.43216,390.77966Q464.4528,389.58817,463.564,389.4256L463.5594,389.4256Q465.83426,381.9218,466.1436,377.60858Q466.7191,371.18683,464.39792,366.5133Q461.59763,360.98224,454.82266,356.5468Q447.61832,351.96036,440.3442,350.8782L440.26486,350.86752Q438.81915,350.65894,437.42288,350.65894Q426.30704,350.65894,418.324,363.87885Q415.55927,368.83606,415.64124,374.6621Q415.67523,377.80054,416.46628,381.94318Q417.4192,386.61316,418.29462,389.3001L418.29044,389.3001Q417.24597,391.1945,417.48013,394.43872Q418.29196,400.41406,421.291,400.68042Q422.39462,408.596,423.1567,410.73785L422.41776,413.70557L422.41776,413.70557L417.0579,412.88873L416.96756,412.875L410.02972,423.3071Q387.86707,429.80264,380.90814,430.66135Q378.87482,430.97775,377.06473,430.97775Q372.52737,430.97775,369.39276,428.9896L369.22577,433.3862L359.55463,427.76144L354.45898,411.63797L354.45544,411.63797Q354.7036,411.21878,354.6568,410.76535L352.11005,393.53528L352.10654,393.53528Q356.91,390.43658,357.1281,388.5544Q357.31165,387.9765,357.2099,386.9003Q356.04688,381.7685,356.15527,380.01166Q356.14764,378.90253,356.31567,377.57056Q357.47064,370.57263,357.42035,369.9619Q357.60187,367.6855,357.11896,366.15845Q355.9822,363.12747,351.42,363.12747Q349.36652,363.12747,346.61908,363.74152L346.61908,363.74152L320.21014,170.75525Q319.88754,169.40784,318.73157,169.40784 Z"/> </g> </g> </svg>