<?xml version='1.0' encoding='utf-8'?>
<svg xmlns="http://www.w3.org/2000/svg" version="1.1" width="600px" height="976px" viewBox="0 0 600 976"> <g id="layer1"> <g style="fill:rgb(0,0,0); fill-opacity:1.0; stroke-linejoin: miter"> <path d="M237.06406,408.3413Q232.8096,408.3413,232.12915,412.2558Q231.63913,414.66086,231.90395,417.81674Q232.09149,420.25433,232.9975,421.78265L232.7009,424.93396L232.51872,425.34055L231.95427,426.248L231.84511,426.4417L231.84511,426.4417L231.05737,426.49957L230.9657,429.35568L229.49196,429.41574Q231.31863,452.53662,234.33948,456.72028Q235.55133,458.91345,237.7905,460.33606L248.85947,466.0747Q254.96646,468.56802,265.10312,469.76257L258.48608,496.27032Q249.39061,510.77213,241.00598,526.0331Q241.8446,528.25903,244.13,528.4503Q244.43874,528.41815,244.74117,528.3871L244.74081,528.3871Q253.60057,527.47644,257.04346,527.47644Q257.1989,527.47644,257.3433,527.4783Q259.02344,527.49976,259.20874,527.7726Q259.23926,527.7694,259.27454,527.7694Q259.27982,527.7694,259.28522,527.7695Q260.42358,527.78406,266.35287,530.9895L270.0622,531.27405L270.06247,531.27405L270.1341,531.27954Q270.78635,531.5734,270.7176,531.8966Q263.86285,566.3606,256.95258,593.41113Q256.23517,595.80383,251.14911,636.8904Q251.81328,637.46045,252.85231,637.856L252.84978,637.856Q252.7494,638.109,252.61374,638.38293Q251.5968,640.4323,249.74413,642.8513Q248.16339,644.8843,246.72525,646.0912Q246.00124,646.7869,242.63585,648.8479Q242.1404,649.18994,241.78024,649.54565Q240.8942,650.40967,240.81528,651.7444Q240.79434,653.6217,242.01308,654.74335Q243.01453,655.6643,245.42151,655.81323Q246.48047,655.8566,247.51999,655.8566Q250.73215,655.8566,253.75876,655.442Q254.87769,655.2616,255.34616,654.99536Q255.58368,654.8624,255.70721,654.7217Q256.1653,653.984,256.24173,653.984Q256.244,653.984,256.2459,653.9847Q256.4882,653.78064,257.0416,653.615Q257.68875,653.4366,258.42572,653.41L260.75165,653.4619Q261.31763,653.4064,261.61603,653.16504Q262.23087,652.71857,262.13104,651.26276Q262.24017,651.04895,261.07013,644.73535L260.82562,642.75775Q260.65237,640.9127,260.65634,638.8343L260.65897,638.8343L260.67636,638.8351L260.6757,638.8351L265.59393,639.0522Q277.4194,587.01166,278.2784,586.9956L278.27945,586.9956Q278.31592,586.9963,278.3323,587.09216L297.4718,552.3617L310.40442,580.0697Q317.04904,622.3302,322.43268,641.05975L324.71353,640.6874L324.71335,640.6874L329.60312,639.889L329.6064,639.889Q328.3667,647.9109,327.4638,652.26746Q327.28464,653.3544,327.43692,653.6871Q327.57693,653.97784,327.95807,654.0018Q331.0419,654.0148,333.13116,654.437Q333.66168,654.4747,336.55878,655.5481Q337.22485,655.7433,338.0265,655.8723Q345.24368,656.7486,345.8203,656.7486Q345.886,656.7486,345.8655,656.73724L345.86896,656.73724Q346.32755,656.7571,346.75287,656.7571Q350.7576,656.7571,351.8122,654.99756Q352.3072,654.103,352.00577,652.82056Q351.67603,651.5271,350.78094,650.74084Q350.29593,650.31445,349.61462,650.16296Q349.2829,650.0941,348.94016,650.07263Q347.07263,650.02124,346.78394,649.9535Q346.0985,649.8635,345.47742,649.6073Q344.1698,649.0769,343.05917,647.5548Q341.38388,645.44196,338.56738,638.4259L338.564,638.4259L338.67957,638.40704Q329.82468,571.4675,330.22137,571.33466L330.22687,571.33466Q329.9875,568.82874,323.45258,539.824L325.0604,535.9391L326.5199,475.68497L328.46396,473.3629L360.42682,468.6833L377.3194,442.08334L375.81796,441.61026L376.75705,438.7154L375.59332,438.39682L376.6365,433.396Q377.9531,432.203,378.8515,429.9293Q380.03564,426.99197,380.27695,424.54938Q380.79388,420.51367,376.5185,419.29437L376.51617,419.29358Q373.56558,418.44086,371.1917,418.44086Q370.0005,418.44086,368.95447,418.65558Q366.3802,419.26996,366.18518,421.7447Q366.08673,422.96158,366.52005,424.8631Q366.6477,425.64102,368.05963,430.27155Q368.2786,431.05893,368.46054,431.86606L367.46747,436.1724L366.9822,436.03955L366.97498,436.03754L366.1107,438.55164L365.4967,438.3582L353.25827,456.51874L330.41147,456.95612L323.63742,449.40442L307.87796,452.54626L307.37366,452.5659L307.35468,451.90997L307.33356,451.91763L307.85715,448.58472Q309.04248,448.4309,309.2849,448.05414L309.88156,446.8703L310.96313,445.0196Q311.27643,444.4058,311.32324,444.01007Q311.38092,443.51917,311.15393,443.11935L310.5199,442.312L310.51678,442.312Q310.98822,442.06906,311.26556,441.65295Q311.78613,440.9393,312.14603,439.2868Q312.56348,437.27942,312.46472,435.70322Q312.3811,434.38745,311.74686,433.62292L311.74442,433.62Q311.63696,433.48987,311.51312,433.37503L311.51,433.37503Q311.5137,433.28076,311.5172,433.18585Q310.69794,430.7305,310.12524,429.63742Q309.4165,428.22485,308.49515,427.33334L308.49207,427.33334Q308.06064,426.4057,307.66708,425.8687Q306.83215,424.67633,305.6639,424.17023L305.65073,424.1644Q304.339,423.62177,302.9036,423.62177Q301.96445,423.62177,300.97235,423.85406Q299.2392,424.3109,298.03055,425.79077L298.02756,425.79077Q296.27536,426.49503,294.675,428.05316Q294.07196,428.64178,293.62946,429.25677L293.62653,429.25677Q292.6964,429.98898,292.18134,430.53546Q291.04614,431.685,290.57025,433.03918Q289.91568,434.78357,290.22644,437.25598Q289.92664,437.1093,289.58148,437.1093Q289.32977,437.1093,289.05396,437.18732Q288.35864,437.44568,288.28696,438.36484Q288.1809,442.09778,288.52783,442.7552Q288.7066,443.19733,289.07788,443.3288Q289.26892,443.42416,289.80875,443.42416Q290.0355,443.42416,290.32376,443.40735L290.32666,443.40735Q290.31024,444.8804,290.51147,447.7024Q290.52924,448.21,290.51038,448.59033Q290.5633,448.9606,290.02356,451.60858L289.9619,451.5801L289.89893,451.5509L289.69244,453.2536L288.79434,453.28854L272.03513,449.02954L267.02518,453.92517L246.42996,449.8905L242.40335,429.26163L242.3313,428.8925L242.23566,428.8964L242.0461,425.6949L242.04596,425.69244L241.05272,425.76538L241.05272,425.76538Q241.05151,425.70767,241.05023,425.65366L241.04782,425.65366L241.26096,422.73297Q241.6729,422.0155,242.11443,421.32776Q244.82968,417.31995,245.18115,416.61426Q246.15622,414.92526,246.42114,413.73352Q246.96494,411.31137,244.68652,409.9649Q241.88496,408.4272,237.27316,408.34357L237.27069,408.34357Q237.16634,408.3413,237.06406,408.3413 Z"/> </g> </g> </svg>